<svg xmlns="http://www.w3.org/2000/svg" xmlns:xlink="http://www.w3.org/1999/xlink" xml:space="preserve" version="1.1" style="shape-rendering:geometricPrecision;text-rendering:geometricPrecision;image-rendering:optimizeQuality;" viewBox="0 0 842 1003.75" x="0px" y="0px" fill-rule="evenodd" clip-rule="evenodd"><defs><style type="text/css">
   
    .fil0 {fill:black}
   
  </style></defs><g><path class="fil0" d="M68 89c-2,-6 8,-33 6,-32 -3,1 -12,31 -13,40 -3,23 6,60 10,85 3,17 -2,27 -15,39 -12,10 -29,14 -44,12 -6,-1 -9,-3 -11,-9 -3,-13 0,-38 5,-51 4,-7 9,-14 13,-22 11,-22 11,-42 19,-62 6,-16 31,-37 44,-61 7,-12 20,-23 34,-26 12,-3 31,-4 31,13 0,7 -10,27 -8,29 4,7 19,-27 21,-29 11,-15 31,4 36,17 6,18 1,13 18,20 34,13 29,51 28,78 -1,23 10,33 18,52 9,20 -2,40 -16,55 -6,8 -32,33 -43,24 -5,-5 -27,-68 -28,-81 -1,-11 13,-47 15,-65 1,-6 -3,-21 -5,-20 0,0 -5,15 -18,14 -9,-1 -13,-10 -10,-17 39,-86 -21,18 -22,20 -3,8 -3,19 -5,27 -2,14 -5,28 -7,42 -2,9 -8,13 -16,18 -3,1 -3,1 -6,-1 -4,-4 -16,-13 -17,-14 -2,-3 -4,-9 -5,-17 -6,-34 -4,-40 -1,-68 1,-11 -4,3 -8,-10z"/><path class="fil0" d="M147 99c0,-1 -7,17 -9,23 -1,7 -3,16 -5,26 -2,10 -4,21 -5,27 -1,7 -1,9 0,11 1,2 4,4 5,5 1,1 2,2 1,4 0,3 0,6 -2,9 -2,2 -4,3 -7,2 -3,0 -5,-1 -8,-1 -2,1 -5,2 -7,4 -1,2 -2,4 -3,8 0,4 -1,10 1,13 1,4 4,6 8,5 4,-1 9,-4 16,-10 6,-6 14,-15 19,-22 6,-8 10,-13 13,-21 3,-9 11,-25 13,-34 5,-14 7,-44 7,-42 1,5 -35,15 -37,-7z"/><path class="fil0" d="M79 187c2,0 4,2 5,4 0,2 0,4 0,7 0,2 1,3 3,5 1,1 3,2 5,3 3,1 6,1 7,2 2,0 3,1 3,2 0,2 0,5 0,9 0,3 0,7 0,10 1,2 0,4 -1,5 -2,1 -5,1 -8,-1 -2,-1 -4,-3 -6,-5 -1,-2 -3,-4 -5,-5 -2,-2 -3,-4 -4,-7 -2,-2 -3,-5 -3,-9 -1,-4 0,-8 0,-11 0,-4 0,-5 1,-7 0,-1 1,-3 3,-2z"/><path class="fil0" d="M165 200c-9,6 -21,26 -21,37 0,8 47,115 58,132 9,13 77,72 93,76 13,2 35,2 49,3 12,1 -7,-21 -12,-29 -12,-21 49,64 67,98 9,19 8,28 12,47 2,9 5,17 7,23 4,8 12,14 21,12 5,-1 12,-9 14,-13 2,-3 2,-6 3,-6 7,2 -7,23 -18,27 -4,1 34,79 38,88 7,15 14,28 15,45 0,13 -14,13 -18,26 -1,7 7,10 6,12 -1,0 -7,-1 -10,0 -7,1 -8,12 -1,17 6,4 17,8 25,8 16,0 11,-8 13,-14 1,-5 14,1 20,-17 6,-17 4,-26 -1,-43 -11,-42 -28,-83 -40,-124 -8,-28 -25,-106 -29,-132 -4,-29 -8,-56 -14,-84 -7,-37 -9,-31 -30,-57 -10,-14 10,2 12,4 29,28 25,59 33,94 1,4 1,4 8,3 37,-4 55,-12 77,-42 20,-26 28,-84 18,-116 -5,-16 -14,-30 -20,-46 -3,-9 23,18 30,47 12,51 -20,121 -19,126 4,14 23,35 32,68 5,21 18,60 21,78 4,29 -18,103 -25,133 -8,30 -28,33 -29,44 -1,18 -10,21 -7,30 2,11 45,14 51,12 14,-3 0,-22 3,-26 2,-1 6,-3 9,-9 6,-12 8,-40 12,-55 9,-34 41,-112 42,-137 0,-6 -1,-15 -4,-25 -38,-128 23,-166 33,-263 5,-52 -3,-65 -42,-96 -6,-4 -8,-6 -7,-7 7,-9 43,28 49,31 33,25 95,-50 114,-68 11,-11 37,-2 39,-5 1,-1 0,-5 -2,-9 -8,-19 -32,-24 -50,-20 -21,6 -34,23 -52,34 -32,18 -73,22 -107,5 -23,-11 -36,-24 -63,-32 -46,-13 -117,44 -184,48 -16,1 -130,1 -129,23 1,15 20,23 12,55 -6,25 -39,64 -66,60 -21,-3 -23,-79 -36,-71z"/><path class="fil0" d="M286 450c-23,-12 -56,-45 -75,-64 -10,-8 0,16 1,25 6,43 1,81 -3,124 -1,7 -5,36 -1,42 15,21 37,-34 39,-31 2,1 -10,22 -11,25 -7,11 -14,19 -29,15 -2,0 -2,0 -3,11 -1,11 -3,34 -7,52 -4,21 -12,50 -19,71 -3,9 -10,15 -11,19 -2,5 2,11 -4,13 -2,1 -6,1 -8,3 -5,5 -4,13 4,16 8,3 23,6 31,6 13,1 8,-3 9,-10 1,-4 10,0 14,-2 8,-4 7,-23 7,-31 1,-40 26,-136 39,-178 10,-30 13,-52 32,-80 3,-5 18,-19 18,-19 1,-2 -19,-5 -23,-7z"/><path class="fil0" d="M652 428c0,11 -1,33 4,42 8,19 17,27 23,49 8,27 6,46 3,73 -1,5 -1,15 -4,20 -5,8 -7,14 -5,23 3,10 16,5 23,3 7,-4 30,-20 30,-30 1,-4 -2,-13 -8,-10 -2,1 -6,3 -7,3 0,-1 13,-21 14,-25 3,-9 3,-21 -1,-30 -14,-32 -26,-43 -35,-84 -6,-25 -1,-51 -1,-76 0,-12 -1,-20 -11,-27 -3,-2 -5,-3 -8,-2 -12,4 -16,57 -17,71z"/></g><text x="0" y="818" fill="#000000" font-size="5px" font-weight="bold" font-family="'Helvetica Neue', Helvetica, Arial-Unicode, Arial, Sans-serif">Created by ANTON icon</text><text x="0" y="823" fill="#000000" font-size="5px" font-weight="bold" font-family="'Helvetica Neue', Helvetica, Arial-Unicode, Arial, Sans-serif">from the Noun Project</text></svg>