<svg xmlns="http://www.w3.org/2000/svg" xmlns:xlink="http://www.w3.org/1999/xlink" version="1.1" x="0px" y="0px" viewBox="0 0 100 86.53625" enable-background="new 0 0 100 69.229" xml:space="preserve"><path d="M99.808,61.906c-0.862-4.02-3.446-11.487-2.8-15.794c0.646-4.308-0.933-3.518-1.507-3.876  c-0.574-0.359-4.451-3.307-4.882-7.038c-0.431-3.731-0.503-5.455,0.933-8.254s0.574-4.954-0.646-9.046s-1.723-4.954,0.359-7.467  s3.302-3.302,2.441-5.097c-0.861-1.794-4.81,1.723-4.81,1.723s-2.8,0.846-7.753-2.233c-4.954-3.079-13.569-2.218-21.107-2.218  S43.379-1.99,37.42,1.025C31.461,4.041,23.75,14.646,11,18.83c-4.648,1.526-4.953,4.504-7.341,3.033  c-3.815-2.351-4.893-1.884-2.057,2.818c0.749,1.242,0.011,1.382,0.333,3.482c0.323,2.1,1.831,6.354,2.1,7.861  c0,0,0.592,2.854,0.539,4.416s1.4,3.554,2.261,3.285c0,0,0.575,0.628,1.221,0.179s0.359-0.162,0.521,0.162s1.328,0.916,2.477-0.359  c0.506-0.562,0.852-1.095,1.235-1.553l0,0c0,0,1.554-2.109,2.2-3.904c0.646-1.794,0.816-2.88,1.39-3.505c0,0,0,0,0.001,0  c0.118-0.152,0.261-0.31,0.433-0.479c0.987-0.969,2.082-3.249,5.079-3.141c2.998,0.108,2.315,1.901,4.541,3.49  c2.226,1.589,4.522,0.943,4.164,4.461c-0.359,3.518-1.508,7.539-2.656,9.477c-1.149,1.938-2.226,3.661-2.154,5.169  s-0.09,3.114-0.655,3.733s-1.481,2.989-1.858,3.635s-2.528,3.762-3.204,4.281c-1.857,1.427-2.908,2.935-2.342,3.069  c0,0-0.7,0.79-0.233,0.79c0.467,0,5.797,0,5.797,0s0.574-0.018,0.574-0.7c0,0,1.705-3.212,3.213-4.469  c1.507-1.256,1.651-2.226,1.975-3.948c0.323-1.723,0.61-4.559,3.41-7.79c2.8-3.231,6.498-12.708,7.359-15.902  c0,0,3.554,1.005,4.738,6.677s0.682,7.646,2.692,10.769s0.826,10.805,0,12.528s-0.484,1.651-0.484,1.867  c0,0-0.898,0.969-0.413,0.969c0.484,0,5.205,0,5.205,0s0.718,0.054,0.664-1.149c0,0,1.023-0.036,0.736-2.333  c-0.287-2.297-0.437-2.944,0.051-4.164c0.487-1.221,0.882-1.795,0.236-3.805c-0.646-2.01-1.364-4.918-1.185-7.826  c0.18-2.907,0.502-8.471-0.502-11.666s-0.179-3.558,1.041-3.089c1.22,0.468,11.147,0.764,18.558-2.942  c2.154-1.077,3.816-0.271,6.139,3.41c3.374,5.349,3.374,2.728,6.605,7.395c1.952,2.819,6.174,3.482,7.574,9.01  s1.792,10.409,0.862,13.784c-0.431,1.562,0.125,1.651,0.162,1.723c0,0-1.185,1.652-0.449,1.651c0.736,0,4.451,0,4.451,0  s0.736,0.054,0.664-0.79c0,0,0.539,0.233,0.467-0.431s0.036-1.526,0.646-1.454C98.39,66.626,100.669,65.926,99.808,61.906z"/><text x="0" y="84.229" fill="#000000" font-size="5px" font-weight="bold" font-family="'Helvetica Neue', Helvetica, Arial-Unicode, Arial, Sans-serif">Created by Rafael Eidelwein</text><text x="0" y="89.229" fill="#000000" font-size="5px" font-weight="bold" font-family="'Helvetica Neue', Helvetica, Arial-Unicode, Arial, Sans-serif">from the Noun Project</text></svg>