<svg xmlns:dc="http://purl.org/dc/elements/1.1/" xmlns:cc="http://creativecommons.org/ns#" xmlns:rdf="http://www.w3.org/1999/02/22-rdf-syntax-ns#" xmlns:svg="http://www.w3.org/2000/svg" xmlns="http://www.w3.org/2000/svg" xmlns:sodipodi="http://sodipodi.sourceforge.net/DTD/sodipodi-0.dtd" xmlns:inkscape="http://www.inkscape.org/namespaces/inkscape" version="1.1" x="0px" y="0px" viewBox="0 0 100 125"><g transform="translate(0,-952.36218)"><path style="color:#000000;enable-background:accumulate;" d="m 8.96875,976.3622 c -0.54116,0 -0.96875,0.446 -0.96875,1 l 0,2.9375 42,29.5937 42,-29.5937 0,-2.9375 c 0,-0.554 -0.42759,-1 -0.96875,-1 l -82.0625,0 z M 8,985.206 l 0,42.1562 c 0,0.554 0.42759,1 0.96875,1 l 82.0625,0 c 0.54116,0 0.96875,-0.446 0.96875,-1 l 0,-42.1562 -40.84375,28.7812 a 2.0001998,2.0001998 0 0 1 -2.3125,0 L 8,985.206 z" fill="#000000" stroke="none" marker="none" visibility="visible" display="inline" overflow="visible"/></g><text x="0" y="115" fill="#000000" font-size="5px" font-weight="bold" font-family="'Helvetica Neue', Helvetica, Arial-Unicode, Arial, Sans-serif">Created by Zaff Studio</text><text x="0" y="120" fill="#000000" font-size="5px" font-weight="bold" font-family="'Helvetica Neue', Helvetica, Arial-Unicode, Arial, Sans-serif">from the Noun Project</text></svg>