<?xml version="1.0" encoding="UTF-8" standalone="no"?>
<!-- Created with Inkscape (http://www.inkscape.org/) -->

<svg
   xmlns:dc="http://purl.org/dc/elements/1.1/"
   xmlns:cc="http://creativecommons.org/ns#"
   xmlns:rdf="http://www.w3.org/1999/02/22-rdf-syntax-ns#"
   xmlns:svg="http://www.w3.org/2000/svg"
   xmlns="http://www.w3.org/2000/svg"
   xmlns:sodipodi="http://sodipodi.sourceforge.net/DTD/sodipodi-0.dtd"
   xmlns:inkscape="http://www.inkscape.org/namespaces/inkscape"
   width="744.09448819"
   height="1052.3622047"
   id="svg2"
   version="1.1"
   inkscape:version="0.48.5 r10040"
   sodipodi:docname="puppy.svg">
  <defs
     id="defs4" />
  <sodipodi:namedview
     id="base"
     pagecolor="#ffffff"
     bordercolor="#666666"
     borderopacity="1.0"
     inkscape:pageopacity="0.0"
     inkscape:pageshadow="2"
     inkscape:zoom="0.49497475"
     inkscape:cx="-165.99303"
     inkscape:cy="523.19266"
     inkscape:document-units="px"
     inkscape:current-layer="layer1"
     showgrid="false"
     inkscape:window-width="1366"
     inkscape:window-height="648"
     inkscape:window-x="0"
     inkscape:window-y="27"
     inkscape:window-maximized="1" />
  <metadata
     id="metadata7">
    <rdf:RDF>
      <cc:Work
         rdf:about="">
        <dc:format>image/svg+xml</dc:format>
        <dc:type
           rdf:resource="http://purl.org/dc/dcmitype/StillImage" />
        <dc:title></dc:title>
      </cc:Work>
    </rdf:RDF>
  </metadata>
  <g
     inkscape:label="Layer 1"
     inkscape:groupmode="layer"
     id="layer1">
    <path
       style="fill:#cccccf;fill-opacity:1;stroke:#000000;stroke-width:3.4;stroke-linecap:butt;stroke-linejoin:miter;stroke-miterlimit:4;stroke-opacity:1;stroke-dasharray:none"
       d="m 493.29498,750.98484 c 31.89669,-15.17287 60.79301,-45.05439 87.36175,-86.34627 -2.28206,11.51495 -2.31931,23.63287 -9.11553,33.93525 23.36168,-10.75794 1.83175,31.49127 0.13955,36.42129 18.6713,28.98046 -51.0713,74.20687 -66.62319,87.94784 z"
       id="path5944"
       inkscape:connector-curvature="0"
       sodipodi:nodetypes="cccccc" />
    <path
       style="fill:#cccccf;fill-opacity:1;stroke:#000000;stroke-width:3.00034142;stroke-linecap:butt;stroke-linejoin:miter;stroke-miterlimit:4;stroke-opacity:1;stroke-dasharray:none"
       d="m 466.54716,735.67323 c 15.13559,-14.94146 61.69562,-26.34263 67.64189,52.65712 -1.16975,24.63376 -7.05117,40.58037 -12.02522,58.19999 20.91956,11.50769 56.2076,-7.89171 55.61668,49.88568 -12.96703,10.5759 -45.65192,6.60993 -78.16398,2.77144 l -70.64821,-47.11427 z"
       id="path5911"
       inkscape:connector-curvature="0"
       sodipodi:nodetypes="ccccccc" />
    <path
       sodipodi:nodetypes="ccccccc"
       inkscape:connector-curvature="0"
       id="path5913"
       d="m 253.10672,731.16377 c -15.13558,-14.94147 -69.21138,-26.34264 -75.15765,52.65712 1.16975,24.63375 7.05118,40.58037 12.02522,58.19999 -20.91955,11.50768 -56.20759,-7.89172 -55.61668,49.88568 12.96703,10.5759 45.65192,6.60993 78.16399,2.77144 l 70.64819,-47.11427 z"
       style="fill:#cccccf;fill-opacity:1;stroke:#000000;stroke-width:3.00034142;stroke-linecap:butt;stroke-linejoin:miter;stroke-miterlimit:4;stroke-opacity:1;stroke-dasharray:none" />
    <path
       style="fill:#cccccf;fill-opacity:1;stroke:#000000;stroke-width:3.12489605;stroke-linecap:butt;stroke-linejoin:miter;stroke-miterlimit:4;stroke-opacity:1;stroke-dasharray:none"
       d="M 442.49671,837.21672 433.4778,643.30995 304.20662,641.8068 256.10571,838.71987 c 13.04689,75.31079 201.64797,70.53093 186.391,-1.50315 z"
       id="path5917"
       inkscape:connector-curvature="0"
       sodipodi:nodetypes="ccccc" />
    <path
       style="fill:#eeeeee;stroke:none"
       d="m 295.93927,879.30501 c 39.35054,-138.4587 104.16601,-89.98866 113.48806,2.25473 -27.49675,11.8544 -79.51786,15.31714 -113.48806,-2.25473 z"
       id="path5921"
       inkscape:connector-curvature="0"
       sodipodi:nodetypes="ccc" />
    <path
       style="fill:#cccccf;fill-opacity:1;stroke:#000000;stroke-width:3.12489605;stroke-linecap:butt;stroke-linejoin:miter;stroke-miterlimit:4;stroke-opacity:1;stroke-dasharray:none"
       d="m 271.38536,618.34875 c -42.2034,27.77052 -26.59821,53.44324 -27.62186,65.93903 2.57523,24.35132 2.80278,50.99718 10.60233,70.12416 -21.49253,23.38577 -24.68875,74.21269 -36.13161,112.67297 -18.13196,-4.54953 -23.01546,37.5739 -4.55714,39.06121 24.14554,0.40404 39.69829,2.05295 59.47533,1.53454 16.65259,-0.4365 23.68594,-35.73077 3.3481,-40.87476 6.31924,-14.16338 14.44848,-26.24082 22.22769,-38.73569 18.24222,-36.16024 25.73193,-42.14722 25.80829,-82.16803 l -4.23163,-55.2437 c 28.79402,88.8076 100.57212,-11.31448 87.41302,-1.1723 -4.39326,12.08722 1.98128,49.35848 -1.62378,55.62421 -8.42629,13.38396 7.94153,52.58361 10.28796,69.03781 6.24716,43.80785 18.86986,53.12683 5.0805,55.75787 -19.48444,3.71769 -12.92225,37.5907 0.79027,40.27442 19.23601,3.76474 42.32505,3.67896 67.01404,-1.06828 5.73987,-1.10367 16.547,-36.0241 -12.78584,-41.56212 -8.30819,-42.42003 11.82218,-97.76056 -2.20952,-118.15648 7.55062,-16.37657 1.94611,-52.2357 2.15274,-61.67773 0.51897,-16.06126 14.29931,-42.67251 1.65272,-72.3623 -11.85301,-27.82674 -9.07816,-35.53794 -20.02164,-64.71755 C 351.45375,538.91451 232.81954,391.18104 271.38536,618.34875 z"
       id="path5902"
       inkscape:connector-curvature="0"
       sodipodi:nodetypes="cccccsccccccsssscccscc" />
    <path
       style="fill:#cccccf;stroke:#000000;stroke-width:3.12489605;stroke-linecap:butt;stroke-linejoin:miter;stroke-miterlimit:4;stroke-opacity:1;stroke-dasharray:none"
       d="m 432.87126,208.99289 c -50.81129,-3.32258 -129.02871,54.05003 -116.91788,170.06238 -59.41929,86.2352 -55.16772,147.1642 -24.4014,184.36708 54.6537,66.08773 192.97859,57.30412 206.687,-17.49337 34.56695,-31.12994 37.04996,-88.66129 31.88671,-96.19153 40.11407,-3.74015 83.1963,-30.24204 100.4431,-107.35189 -16.01313,-6.78035 -84.43632,-31.24076 -148.27315,44.64138 l -51.55016,-29.22946 c 11.06737,-47.52978 18.99464,-95.68757 2.12578,-148.80459 z"
       id="path5100"
       inkscape:connector-curvature="0"
       sodipodi:nodetypes="ccscccccc" />
    <path
       style="fill:#cccccf;fill-opacity:1;stroke:#000000;stroke-width:3.42250538;stroke-linecap:round;stroke-linejoin:miter;stroke-miterlimit:4;stroke-opacity:1;stroke-dasharray:none"
       d="m 448.87405,595.46695 c 3.78225,8.42495 -45.93893,34.7838 -107.49758,-27.41233"
       id="path5900"
       inkscape:connector-curvature="0"
       sodipodi:nodetypes="cc" />
    <path
       style="fill:#cccccf;fill-opacity:1;stroke:#000000;stroke-width:3.42250538;stroke-linecap:butt;stroke-linejoin:miter;stroke-miterlimit:4;stroke-opacity:1;stroke-dasharray:none"
       d="m 355.77778,498.81543 c -17.67065,56.43028 81.10467,129.43898 120.12869,86.12537"
       id="path5892"
       inkscape:connector-curvature="0"
       sodipodi:nodetypes="cc" />
    <path
       style="fill:#f0adbf;fill-opacity:1;stroke:#000000;stroke-width:2.23206878;stroke-linecap:butt;stroke-linejoin:miter;stroke-miterlimit:4;stroke-opacity:1;stroke-dasharray:none"
       d="m 428.10076,216.30759 c -53.95355,56.91475 -83.68304,108.42926 -69.50977,153.32164 l 45.0946,-9.01893 c 15.102,-31.52708 48.30066,-76.63928 24.41517,-144.30271 z"
       id="path5102"
       inkscape:connector-curvature="0"
       sodipodi:nodetypes="cccc" />
    <path
       style="fill:none;stroke:#000000;stroke-width:2.97609162;stroke-linecap:butt;stroke-linejoin:miter;stroke-miterlimit:4;stroke-opacity:1;stroke-dasharray:none"
       d="m 480.78666,386.47523 c 13.21769,12.97511 46.06676,26.33503 50.88374,64.35908"
       id="path5104"
       inkscape:connector-curvature="0"
       sodipodi:nodetypes="cc" />
    <path
       style="fill:#f0adbf;fill-opacity:1;stroke:#000000;stroke-width:2.23206878;stroke-linecap:butt;stroke-linejoin:miter;stroke-miterlimit:4;stroke-opacity:1;stroke-dasharray:none"
       d="m 517.85284,416.82184 c 33.52524,-67.72212 64.93499,-73.10485 100.97454,-68.02496 1.7937,47.74757 -34.18088,71.55737 -94.59719,79.71675 z"
       id="path5106"
       inkscape:connector-curvature="0"
       sodipodi:nodetypes="cccc" />
    <path
       style="fill:#000000;stroke:#000000;stroke-width:1.60488772px;stroke-linecap:butt;stroke-linejoin:miter;stroke-opacity:1"
       d="m 486.6246,536.9284 c 32.62456,24.81378 -18.74009,68.61892 -49.45438,42.5156 -12.85973,-7.91569 -42.59579,-45.12405 -23.49085,-58.45893 20.07996,-13.35208 51.83979,-7.51621 72.94523,15.94333 z"
       id="path5108"
       inkscape:connector-curvature="0"
       sodipodi:nodetypes="cccc" />
    <path
       style="fill:#ffffff;fill-opacity:1;stroke:#000000;stroke-width:1.97050416;stroke-linecap:butt;stroke-linejoin:miter;stroke-miterlimit:4;stroke-opacity:1;stroke-dasharray:none"
       d="m 377.96134,445.66395 c -0.41552,7.03642 7.2794,56.04418 45.74384,45.74385 33.76894,-60.93912 -28.88471,-75.62667 -45.74384,-45.74385 z"
       id="path5880"
       inkscape:connector-curvature="0"
       sodipodi:nodetypes="ccc" />
    <path
       sodipodi:type="arc"
       style="fill:#000000;fill-opacity:1;stroke:#3f2424;stroke-width:4.33947611;stroke-linecap:round;stroke-linejoin:round;stroke-miterlimit:4;stroke-opacity:1;stroke-dasharray:none;stroke-dashoffset:0"
       id="path5882"
       sodipodi:cx="40.406101"
       sodipodi:cy="257.1196"
       sodipodi:rx="7.5761442"
       sodipodi:ry="8.3337584"
       d="m 47.814122,255.37368 a 7.5761442,8.3337584 0 1 1 -0.01295,-0.0652"
       sodipodi:start="6.0721226"
       sodipodi:end="12.347297"
       sodipodi:open="true"
       transform="matrix(1.9684132,0,0,1.8513248,324.72379,-9.6088769)" />
    <path
       sodipodi:type="arc"
       style="fill:#ffffff;fill-opacity:1;stroke:#000000;stroke-width:1.20000005;stroke-linecap:round;stroke-linejoin:round;stroke-miterlimit:4;stroke-opacity:1;stroke-dasharray:none;stroke-dashoffset:0"
       id="path5886"
       sodipodi:cx="-300"
       sodipodi:cy="263.43362"
       sodipodi:rx="11.428572"
       sodipodi:ry="14.642858"
       d="m -288.82504,260.36596 a 11.428572,14.642858 0 1 1 -0.0195,-0.1146"
       sodipodi:start="6.0721226"
       sodipodi:end="12.347297"
       sodipodi:open="true"
       transform="matrix(1.7028938,0.69605263,-0.7180443,1.6507388,1195.3535,280.4536)" />
    <path
       transform="matrix(1.477272,0,0,1.8513248,428.65268,34.45305)"
       sodipodi:open="true"
       sodipodi:end="12.347297"
       sodipodi:start="6.0721226"
       d="m 47.814122,255.37368 a 7.5761442,8.3337584 0 1 1 -0.01295,-0.0652"
       sodipodi:ry="8.3337584"
       sodipodi:rx="7.5761442"
       sodipodi:cy="257.1196"
       sodipodi:cx="40.406101"
       id="path5888"
       style="fill:#000000;fill-opacity:1;stroke:#3f2424;stroke-width:4.33947611;stroke-linecap:round;stroke-linejoin:round;stroke-miterlimit:4;stroke-opacity:1;stroke-dasharray:none;stroke-dashoffset:0"
       sodipodi:type="arc" />
    <path
       style="fill:none;stroke:#000000;stroke-width:2.23206878;stroke-linecap:round;stroke-linejoin:miter;stroke-miterlimit:4;stroke-opacity:1;stroke-dasharray:none"
       d="m 485.00694,469.01971 c -18.15858,27.27719 -17.32718,52.26454 -2.35239,70.31476"
       id="path5890"
       inkscape:connector-curvature="0"
       sodipodi:nodetypes="cc" />
    <path
       style="fill:none;stroke:#000000;stroke-width:2.97609162;stroke-linecap:round;stroke-linejoin:miter;stroke-miterlimit:4;stroke-opacity:1;stroke-dasharray:none"
       d="m 378.61428,445.51988 c 6.27338,-18.69947 77.16873,-28.42482 44.64136,45.70425"
       id="path5894"
       inkscape:connector-curvature="0"
       sodipodi:nodetypes="cc" />
    <path
       style="fill:none;stroke:#000000;stroke-width:2.67848253;stroke-linecap:round;stroke-linejoin:miter;stroke-miterlimit:4;stroke-opacity:1;stroke-dasharray:none"
       d="m 489.15482,483.7839 c 24.26045,-9.74598 26.76511,8.90685 27.94647,17.62885"
       id="path5896"
       inkscape:connector-curvature="0"
       sodipodi:nodetypes="cc" />
    <path
       style="fill:none;stroke:#000000;stroke-width:2.55898738;stroke-linecap:round;stroke-linejoin:miter;stroke-miterlimit:4;stroke-opacity:1;stroke-dasharray:none"
       d="m 335.71422,512.60159 c -3.99343,-1.65403 25.46058,-13.94812 20.65333,-15.04435"
       id="path5898"
       inkscape:connector-curvature="0"
       sodipodi:nodetypes="cc" />
    <path
       sodipodi:type="arc"
       style="fill:#cccccf;fill-opacity:1;stroke:none"
       id="path5919"
       sodipodi:cx="-25.253813"
       sodipodi:cy="501.82904"
       sodipodi:rx="22.223356"
       sodipodi:ry="42.426407"
       d="m -3.5236188,492.94074 a 22.223356,42.426407 0 1 1 -0.037994,-0.33204"
       sodipodi:start="6.0721226"
       sodipodi:end="12.347297"
       sodipodi:open="true"
       transform="matrix(1.4880458,0,0,0.47850667,398.90527,471.57499)" />
    <path
       sodipodi:nodetypes="ccccc"
       inkscape:connector-curvature="0"
       id="path5946"
       d="m 543.29498,721.63452 c 12.41918,-10.59506 9.60358,-9.98876 30.6578,-42.71023 -1.8084,9.12495 -7.55221,34.442 -12.93783,42.60605 20.90551,-15.70318 18.73202,-25.45776 5.82487,13.14752 12.27824,52.59736 -49.60015,12.1521 -23.54484,-13.04334 z"
       style="fill:#eeeeee;fill-opacity:1;stroke:none" />
    <path
       sodipodi:type="arc"
       style="fill:#cccccf;fill-opacity:1;stroke:none"
       id="path5967"
       sodipodi:cx="310.11682"
       sodipodi:cy="578.60065"
       sodipodi:rx="21.213203"
       sodipodi:ry="41.416256"
       d="m 330.85928,569.92398 a 21.213203,41.416256 0 1 1 -0.0363,-0.32414"
       sodipodi:start="6.0721226"
       sodipodi:end="12.347297"
       sodipodi:open="true"
       transform="matrix(0.37424118,-0.9273314,0.9273314,0.37424118,-342.49633,649.64556)" />
    <path
       transform="matrix(0.37424118,-0.9273314,0.9273314,0.37424118,-342.49633,625.4019)"
       sodipodi:open="true"
       sodipodi:end="12.347297"
       sodipodi:start="6.0721226"
       d="m 330.85928,569.92398 a 21.213203,41.416256 0 1 1 -0.0363,-0.32414"
       sodipodi:ry="41.416256"
       sodipodi:rx="21.213203"
       sodipodi:cy="578.60065"
       sodipodi:cx="310.11682"
       id="path5988"
       style="fill:#cccccf;fill-opacity:1;stroke:none"
       sodipodi:type="arc" />
  </g>
</svg>
