<?xml version="1.0" encoding="UTF-8" standalone="no"?>
<!-- Created with Inkscape (http://www.inkscape.org/) -->

<svg
   xmlns:dc="http://purl.org/dc/elements/1.1/"
   xmlns:cc="http://creativecommons.org/ns#"
   xmlns:rdf="http://www.w3.org/1999/02/22-rdf-syntax-ns#"
   xmlns:svg="http://www.w3.org/2000/svg"
   xmlns="http://www.w3.org/2000/svg"
   xmlns:sodipodi="http://sodipodi.sourceforge.net/DTD/sodipodi-0.dtd"
   xmlns:inkscape="http://www.inkscape.org/namespaces/inkscape"
   width="744.09448819"
   height="1052.3622047"
   id="svg2"
   version="1.1"
   inkscape:version="0.48.5 r10040"
   sodipodi:docname="puppy.svg">
  <defs
     id="defs4" />
  <sodipodi:namedview
     id="base"
     pagecolor="#ffffff"
     bordercolor="#666666"
     borderopacity="1.0"
     inkscape:pageopacity="0.0"
     inkscape:pageshadow="2"
     inkscape:zoom="0.24748737"
     inkscape:cx="-148.31536"
     inkscape:cy="466.0498"
     inkscape:document-units="px"
     inkscape:current-layer="layer1"
     showgrid="false"
     inkscape:window-width="1366"
     inkscape:window-height="648"
     inkscape:window-x="0"
     inkscape:window-y="27"
     inkscape:window-maximized="1" />
  <metadata
     id="metadata7">
    <rdf:RDF>
      <cc:Work
         rdf:about="">
        <dc:format>image/svg+xml</dc:format>
        <dc:type
           rdf:resource="http://purl.org/dc/dcmitype/StillImage" />
        <dc:title></dc:title>
      </cc:Work>
    </rdf:RDF>
  </metadata>
  <g
     inkscape:label="Layer 1"
     inkscape:groupmode="layer"
     id="layer1">
    <path
       style="fill:#cccccf;stroke:#000000;stroke-width:3.99164891;stroke-linecap:butt;stroke-linejoin:miter;stroke-miterlimit:4;stroke-opacity:1;stroke-dasharray:none"
       d="m 361.44006,239.76869 c -64.90482,-4.24417 -164.81742,69.04189 -149.34741,217.2326 -75.90042,110.15427 -70.4696,187.98315 -31.16962,235.505 69.81301,84.41849 246.50509,73.19857 264.0158,-22.34551 44.15479,-39.76445 47.32651,-113.25328 40.73113,-122.87219 51.24052,-4.77755 106.27247,-38.63027 128.30302,-137.12809 -20.4547,-8.66102 -107.85643,-39.90602 -189.39969,57.02356 l -65.84864,-37.33684 c 14.13713,-60.71312 24.26319,-122.22844 2.71541,-190.07853 z"
       id="path5100"
       inkscape:connector-curvature="0"
       sodipodi:nodetypes="ccscccccc" />
    <path
       style="fill:#cccccf;fill-opacity:1;stroke:#000000;stroke-width:4.37180614;stroke-linecap:round;stroke-linejoin:miter;stroke-miterlimit:4;stroke-opacity:1;stroke-dasharray:none"
       d="m 381.88155,733.4391 c 4.83133,10.76178 -58.68102,44.43179 -137.3142,-35.01569"
       id="path5900"
       inkscape:connector-curvature="0"
       sodipodi:nodetypes="cc" />
    <path
       style="fill:#cccccf;fill-opacity:1;stroke:#000000;stroke-width:4.37180614;stroke-linecap:butt;stroke-linejoin:miter;stroke-miterlimit:4;stroke-opacity:1;stroke-dasharray:none"
       d="m 301.53457,701.40791 c 50.11538,11.47379 67.37506,-1.28735 82.02023,30.01397"
       id="path5892"
       inkscape:connector-curvature="0"
       sodipodi:nodetypes="cc" />
    <path
       style="fill:#f0adbf;fill-opacity:1;stroke:#000000;stroke-width:2.85117793;stroke-linecap:butt;stroke-linejoin:miter;stroke-miterlimit:4;stroke-opacity:1;stroke-dasharray:none"
       d="m 355.34637,249.11226 c -68.91866,72.70121 -106.89422,138.5043 -88.78971,195.84849 l 57.6025,-11.52051 C 343.45,393.16849 385.85698,335.54351 355.34637,249.11226 z"
       id="path5102"
       inkscape:connector-curvature="0"
       sodipodi:nodetypes="cccc" />
    <path
       style="fill:none;stroke:#000000;stroke-width:3.80157042;stroke-linecap:butt;stroke-linejoin:miter;stroke-miterlimit:4;stroke-opacity:1;stroke-dasharray:none"
       d="m 422.64576,466.47932 c 16.88388,16.57402 58.8443,33.63958 64.99737,82.21037"
       id="path5104"
       inkscape:connector-curvature="0"
       sodipodi:nodetypes="cc" />
    <path
       style="fill:#f0adbf;fill-opacity:1;stroke:#000000;stroke-width:2.85117793;stroke-linecap:butt;stroke-linejoin:miter;stroke-miterlimit:4;stroke-opacity:1;stroke-dasharray:none"
       d="m 469.99299,505.24318 c 42.82414,-86.50622 82.94602,-93.38195 128.98186,-86.89305 2.29122,60.99131 -43.66163,91.40524 -120.83562,101.82779 z"
       id="path5106"
       inkscape:connector-curvature="0"
       sodipodi:nodetypes="cccc" />
    <path
       style="fill:#000000;stroke:#000000;stroke-width:2.05003572px;stroke-linecap:butt;stroke-linejoin:miter;stroke-opacity:1"
       d="m 430.10297,658.66371 c 41.67364,31.69638 -23.93803,87.65176 -63.17155,54.30816 -16.42663,-10.11127 -54.41059,-57.64012 -30.00651,-74.67369 25.64954,-17.05555 66.2186,-9.60099 93.17806,20.36553 z"
       id="path5108"
       inkscape:connector-curvature="0"
       sodipodi:nodetypes="cccc" />
    <path
       style="fill:#ffffff;fill-opacity:1;stroke:#000000;stroke-width:2.51706314;stroke-linecap:butt;stroke-linejoin:miter;stroke-miterlimit:4;stroke-opacity:1;stroke-dasharray:none"
       d="m 291.29977,542.08523 c -0.53077,8.98811 9.29849,71.58916 58.43181,58.43182 43.13544,-77.84181 -36.89646,-96.60324 -58.43181,-58.43182 z"
       id="path5880"
       inkscape:connector-curvature="0"
       sodipodi:nodetypes="ccc" />
    <path
       sodipodi:type="arc"
       style="fill:#000000;fill-opacity:1;stroke:#3f2424;stroke-width:4.33947611;stroke-linecap:round;stroke-linejoin:round;stroke-miterlimit:4;stroke-opacity:1;stroke-dasharray:none;stroke-dashoffset:0"
       id="path5882"
       sodipodi:cx="40.406101"
       sodipodi:cy="257.1196"
       sodipodi:rx="7.5761442"
       sodipodi:ry="8.3337584"
       d="m 47.814122,255.37368 a 7.5761442,8.3337584 0 1 1 -0.01295,-0.0652"
       sodipodi:start="6.0721226"
       sodipodi:end="12.347297"
       sodipodi:open="true"
       transform="matrix(2.5143922,0,0,2.364827,223.29571,-39.466669)" />
    <path
       sodipodi:type="arc"
       style="fill:#ffffff;fill-opacity:1;stroke:#000000;stroke-width:1.20000005;stroke-linecap:round;stroke-linejoin:round;stroke-miterlimit:4;stroke-opacity:1;stroke-dasharray:none;stroke-dashoffset:0"
       id="path5886"
       sodipodi:cx="-300"
       sodipodi:cy="263.43362"
       sodipodi:rx="11.428572"
       sodipodi:ry="14.642858"
       d="m -288.82504,260.36596 a 11.428572,14.642858 0 1 1 -0.0195,-0.1146"
       sodipodi:start="6.0721226"
       sodipodi:end="12.347297"
       sodipodi:open="true"
       transform="matrix(2.1752257,0.88911684,-0.91720834,2.1086044,1335.4121,331.05046)" />
    <path
       transform="matrix(1.8870231,0,0,2.364827,356.05137,16.816712)"
       sodipodi:open="true"
       sodipodi:end="12.347297"
       sodipodi:start="6.0721226"
       d="m 47.814122,255.37368 a 7.5761442,8.3337584 0 1 1 -0.01295,-0.0652"
       sodipodi:ry="8.3337584"
       sodipodi:rx="7.5761442"
       sodipodi:cy="257.1196"
       sodipodi:cx="40.406101"
       id="path5888"
       style="fill:#000000;fill-opacity:1;stroke:#3f2424;stroke-width:4.33947611;stroke-linecap:round;stroke-linejoin:round;stroke-miterlimit:4;stroke-opacity:1;stroke-dasharray:none;stroke-dashoffset:0"
       sodipodi:type="arc" />
    <path
       style="fill:none;stroke:#000000;stroke-width:2.85117793;stroke-linecap:round;stroke-linejoin:miter;stroke-miterlimit:4;stroke-opacity:1;stroke-dasharray:none"
       d="m 428.03662,571.91918 c -23.19523,34.84306 -22.13322,66.76116 -3.00487,89.81797"
       id="path5890"
       inkscape:connector-curvature="0"
       sodipodi:nodetypes="cc" />
    <path
       style="fill:none;stroke:#000000;stroke-width:3.80157042;stroke-linecap:round;stroke-linejoin:miter;stroke-miterlimit:4;stroke-opacity:1;stroke-dasharray:none"
       d="m 292.13381,541.9012 c 8.01343,-23.88615 98.57303,-36.30902 57.02354,58.38124"
       id="path5894"
       inkscape:connector-curvature="0"
       sodipodi:nodetypes="cc" />
    <path
       style="fill:none;stroke:#000000;stroke-width:3.42141366;stroke-linecap:round;stroke-linejoin:miter;stroke-miterlimit:4;stroke-opacity:1;stroke-dasharray:none"
       d="m 433.335,590.77851 c 30.98957,-12.44922 34.18895,11.37735 35.69798,22.51857"
       id="path5896"
       inkscape:connector-curvature="0"
       sodipodi:nodetypes="cc" />
    <path
       style="fill:#cccccf;fill-opacity:1;stroke:#000000;stroke-width:3.29999995000000013;stroke-linecap:butt;stroke-linejoin:miter;stroke-miterlimit:4;stroke-opacity:1;stroke-dasharray:none"
       d="m 300.01531,531.12347 c 19.31393,15.79934 39.61604,28.63415 61.6193,36.36549 5.04885,-9.96202 -4.37789,-40.35021 -21.2132,-42.4264 -13.64602,-6.67418 -30.41207,0.52009 -40.4061,6.06091 z"
       id="path5990"
       inkscape:connector-curvature="0"
       sodipodi:nodetypes="cccc" />
    <path
       sodipodi:nodetypes="cccc"
       inkscape:connector-curvature="0"
       id="path5992"
       d="m 425.7296,596.83775 c 19.31393,15.54897 16.75889,16.37449 38.76215,30.65121 9.92825,-9.96202 2.35495,-44.63592 -19.78463,-40.99783 -9.77872,5.2446 -9.99364,2.78554 -18.97752,10.34662 z"
       style="fill:#cccccf;fill-opacity:1;stroke:#000000;stroke-width:3.29999995000000013;stroke-linecap:butt;stroke-linejoin:miter;stroke-miterlimit:4;stroke-opacity:1;stroke-dasharray:none" />
  </g>
</svg>
