<?xml version="1.0" encoding="UTF-8" standalone="no"?>
<!-- Created with Inkscape (http://www.inkscape.org/) -->

<svg
   xmlns:dc="http://purl.org/dc/elements/1.1/"
   xmlns:cc="http://creativecommons.org/ns#"
   xmlns:rdf="http://www.w3.org/1999/02/22-rdf-syntax-ns#"
   xmlns:svg="http://www.w3.org/2000/svg"
   xmlns="http://www.w3.org/2000/svg"
   xmlns:sodipodi="http://sodipodi.sourceforge.net/DTD/sodipodi-0.dtd"
   xmlns:inkscape="http://www.inkscape.org/namespaces/inkscape"
   width="500"
   height="500"
   id="svg2"
   version="1.1"
   inkscape:version="0.48.5 r10040"
   sodipodi:docname="open_logo.svg">
  <defs
     id="defs4">
    <style
       id="style3949"
       type="text/css">
   
    .fil0 {fill:black;fill-rule:nonzero}
   
  </style>
    <clipPath
       clipPathUnits="userSpaceOnUse"
       id="clipPath4856">
      <path
         style="fill:none;stroke:#000000;stroke-width:1px;stroke-linecap:butt;stroke-linejoin:miter;stroke-opacity:1"
         d="m 26.5625,446.11218 550,51.5625 -46.875,210.9375 -61.48993,46.98604 c -13.97393,0.43755 -24.30759,2.63138 -36.94757,7.94654 l -79.6875,16.94242 19.26317,67.96875 c -1.57385,17.14634 0.80379,33.91793 7.48889,44.0736 L 301.5625,978.92468 93.75,932.04968 15.625,697.67468 z"
         id="path4858"
         inkscape:connector-curvature="0"
         sodipodi:nodetypes="cccccccccccc" />
    </clipPath>
  </defs>
  <sodipodi:namedview
     id="base"
     pagecolor="#ffffff"
     bordercolor="#666666"
     borderopacity="1.0"
     inkscape:pageopacity="0.0"
     inkscape:pageshadow="2"
     inkscape:zoom="0.64"
     inkscape:cx="375"
     inkscape:cy="315.16011"
     inkscape:document-units="px"
     inkscape:current-layer="g4697"
     showgrid="false"
     inkscape:window-width="1366"
     inkscape:window-height="702"
     inkscape:window-x="0"
     inkscape:window-y="27"
     inkscape:window-maximized="1" />
  <metadata
     id="metadata7">
    <rdf:RDF>
      <cc:Work
         rdf:about="">
        <dc:format>image/svg+xml</dc:format>
        <dc:type
           rdf:resource="http://purl.org/dc/dcmitype/StillImage" />
        <dc:title></dc:title>
      </cc:Work>
    </rdf:RDF>
  </metadata>
  <g
     inkscape:label="Layer 1"
     inkscape:groupmode="layer"
     id="layer1"
     transform="translate(0,-552.36218)">
    <g
       id="g4821"
       clip-path="url(#clipPath4856)">
      <g
         style="fill:#150000;fill-opacity:1"
         transform="matrix(6.7858818,0,0,8.8943022,335.75471,-186.02406)"
         id="g4148">
        <g
           style="fill:#150000;fill-opacity:1"
           transform="matrix(1.7867215,0,0,1.363174,-114.19469,21.155685)"
           inkscape:label="Layer 1"
           id="layer1-7">
          <g
             style="fill:#150000;fill-opacity:1"
             id="g232"
             transform="matrix(0.91873649,0,0,0.79144577,61.177194,90.674402)">
            <g
               style="fill:#150000;fill-opacity:1"
               id="g307"
               transform="matrix(0.28798609,0,0,0.33430381,1.6954782,-87.497909)">
              <path
                 style="fill:#150000;fill-opacity:1;stroke:none"
                 id="path290"
                 d="m -50.130015,153.26599 h 9.886519 l -0.06105,-0.10853 a 3.6561465,3.6561465 0 0 1 -0.196712,-3.26272 h -9.303163 v -17.13437 h 24.714601 v 6.946 c 0.132272,0.0746 0.264545,0.14584 0.390034,0.22724 l 0.234021,-0.0848 a 3.6256221,3.6256221 0 0 1 2.743805,0.10175 v -12.20638 a 3.0524414,3.0524414 0 0 0 -3.052441,-3.05244 h -25.355614 a 3.0524414,3.0524414 0 0 0 -3.052441,3.05244 v 22.47615 a 3.0524414,3.0524414 0 0 0 3.052441,3.04565 z m 9.065751,-25.55232 a 1.2752422,1.2752422 0 1 1 -1.275242,1.27524 1.2752422,1.2752422 0 0 1 1.275242,-1.27524 z m -3.781635,0 a 1.2752422,1.2752422 0 1 1 -1.275243,1.27524 1.2752422,1.2752422 0 0 1 1.275243,-1.27524 z m -3.781636,0 a 1.2752422,1.2752422 0 1 1 -1.275242,1.27524 1.2752422,1.2752422 0 0 1 1.275242,-1.27524 z m 27.248127,16.16437 -0.712236,-1.23115 a 1.2888086,1.2888086 0 0 0 -1.560137,-0.5664 l -1.441431,0.5257 a 7.1223633,7.1223633 0 0 0 -2.472477,-1.42786 l -0.264545,-1.50927 a 1.2888086,1.2888086 0 0 0 -1.271851,-1.07174 h -1.424472 a 1.2888086,1.2888086 0 0 0 -1.271851,1.06835 l -0.264545,1.50927 a 7.1020137,7.1020137 0 0 0 -2.472478,1.42786 l -1.44143,-0.5257 a 1.2888086,1.2888086 0 0 0 -1.553354,0.5664 l -0.712236,1.23115 a 1.2888086,1.2888086 0 0 0 0.288286,1.63475 l 1.173494,0.98357 a 7.1766289,7.1766289 0 0 0 0,2.85912 l -1.173494,0.98356 a 1.2888086,1.2888086 0 0 0 -0.288286,1.63475 l 0.712236,1.23455 a 1.2888086,1.2888086 0 0 0 1.560137,0.56639 l 1.441431,-0.52569 a 7.1223633,7.1223633 0 0 0 2.472477,1.42786 l 0.264545,1.50926 a 1.2888086,1.2888086 0 0 0 1.268459,1.06836 h 1.424473 a 1.2888086,1.2888086 0 0 0 1.27185,-1.06836 l 0.264545,-1.50926 a 7.1223633,7.1223633 0 0 0 2.472478,-1.42786 l 1.441431,0.52569 a 1.2888086,1.2888086 0 0 0 1.560136,-0.56639 l 0.712237,-1.23116 a 1.2888086,1.2888086 0 0 0 -0.288287,-1.63475 l -1.173494,-0.98356 a 7.1868038,7.1868038 0 0 0 0,-2.85912 l 1.173494,-0.98357 a 1.2888086,1.2888086 0 0 0 0.284895,-1.63475 z m -8.434913,6.73911 a 2.6929317,2.6929317 0 1 1 2.692932,-2.69293 2.6929317,2.6929317 0 0 1 -2.692932,2.69293 z"
                 inkscape:connector-curvature="0" />
            </g>
          </g>
        </g>
      </g>
      <g
         style="fill:#800000;fill-opacity:1"
         transform="matrix(6.2153518,0,0,6.2153518,95.196493,556.07647)"
         id="g4773">
        <g
           style="fill:#800000;stroke:none;fill-opacity:1"
           id="g4693">
          <g
             style="fill:#800000;fill-opacity:1"
             transform="translate(-225,-652)"
             id="g4695">
            <g
               style="fill:#800000;fill-opacity:1"
               transform="translate(225,652)"
               id="g4697">
              <path
                 inkscape:connector-curvature="0"
                 style="fill:#800000;fill-opacity:1"
                 id="path4699"
                 transform="matrix(0.16089194,0,0,0.16089194,-18.871591,-3.0862694)"
                 d="m 148.375,19.25 c -3.43087,0 -6.21875,2.787876 -6.21875,6.21875 l 0,12.4375 -18.65625,0 c -3.43087,0 -6.21875,2.787876 -6.21875,6.21875 l 0,304.53125 c 0,3.43087 2.78788,6.21875 6.21875,6.21875 l 123.6875,0 c 18.77658,3.77893 35.24486,8.1857 46.65625,22.4375 l 5.0625,6.3125 c 0.26738,0.33333 0.57678,0.63431 0.90625,0.90625 0.11377,0.0941 0.22401,0.19577 0.34375,0.28125 0.0732,0.0522 0.14319,0.10718 0.21875,0.15625 0.0595,0.0387 0.12682,0.0572 0.1875,0.0937 0.078,0.0469 0.1386,0.11269 0.21875,0.15625 0.0925,0.0504 0.18631,0.0794 0.28125,0.125 0.0906,0.0437 0.18831,0.0857 0.28125,0.125 0.18466,0.0776 0.37076,0.15919 0.5625,0.21875 0.0912,0.0284 0.18826,0.0383 0.28125,0.0625 0.0619,0.0162 0.125,0.0482 0.1875,0.0625 0.01,0.002 0.0213,-0.002 0.0312,0 0.0316,0.007 0.062,0.0247 0.0937,0.0312 0.0905,0.0185 0.18938,0.0167 0.28125,0.0312 0.0946,0.0152 0.1857,0.0516 0.28125,0.0625 0.22862,0.0255 0.4521,0.0312 0.6875,0.0312 0.3974,0 0.77952,-0.0536 1.15625,-0.125 0.0301,-0.006 0.0638,0.006 0.0937,0 0.27475,-0.0563 0.55223,-0.12749 0.8125,-0.21875 0.65261,-0.22845 1.26827,-0.56866 1.8125,-1 0.0566,-0.0449 0.10123,-0.10947 0.15625,-0.15625 0.11962,-0.10203 0.23159,-0.20106 0.34375,-0.3125 0.14699,-0.14584 0.30558,-0.30893 0.4375,-0.46875 0.0142,-0.0174 0.0172,-0.0449 0.0312,-0.0625 0.11017,-0.1366 0.21401,-0.2605 0.3125,-0.40625 l 4.78125,-5.90625 c 11.40517,-14.2518 27.84842,-18.65857 46.625,-22.4375 l 123.6875,0 c 3.43087,0 6.21875,-2.78788 6.21875,-6.21875 l 0,-304.53125 c 0,-3.430874 -2.78788,-6.21875 -6.21875,-6.21875 l -18.65625,0 0,-12.4375 c 0,-3.430874 -2.78788,-6.21875 -6.21875,-6.21875 l -111.875,0 c -18.36007,0 -34.38774,10.031833 -43,24.875 C 292.87931,27.245548 266.87256,19.25 247.8125,19.25 l -99.4375,0 z m 6.21875,12.4375 93.21875,0 c 20.3242,0 49.71875,11.055283 49.71875,31.0625 l 0,6.21875 0,263 c -0.83722,-0.78014 -1.69718,-1.53147 -2.5625,-2.25 -0.074,-0.0614 -0.14459,-0.12651 -0.21875,-0.1875 -0.77088,-0.63384 -1.55187,-1.25564 -2.34375,-1.84375 -0.0299,-0.0222 -0.0638,-0.0403 -0.0937,-0.0625 -0.11466,-0.0849 -0.22866,-0.16605 -0.34375,-0.25 -0.78778,-0.57443 -1.56781,-1.12377 -2.375,-1.65625 -0.26004,-0.17168 -0.51926,-0.33252 -0.78125,-0.5 -0.53646,-0.34277 -1.08059,-0.67427 -1.625,-1 -0.45794,-0.27404 -0.91161,-0.55007 -1.375,-0.8125 -0.0933,-0.0528 -0.18774,-0.10388 -0.28125,-0.15625 -1.48707,-0.83335 -2.99234,-1.58837 -4.53125,-2.3125 -0.24812,-0.11672 -0.50061,-0.22966 -0.75,-0.34375 -0.68193,-0.31203 -1.37145,-0.61311 -2.0625,-0.90625 -0.0638,-0.0271 -0.12362,-0.0668 -0.1875,-0.0937 -0.91764,-0.38649 -1.84861,-0.76917 -2.78125,-1.125 -0.092,-0.0351 -0.18911,-0.0589 -0.28125,-0.0937 -0.30212,-0.11416 -0.60265,-0.23258 -0.90625,-0.34375 -0.72563,-0.26582 -1.45377,-0.53161 -2.1875,-0.78125 -0.0716,-0.0244 -0.14705,-0.0383 -0.21875,-0.0625 -0.97767,-0.33027 -1.94663,-0.63308 -2.9375,-0.9375 -0.22966,-0.0705 -0.45717,-0.1495 -0.6875,-0.21875 -0.8248,-0.24799 -1.66707,-0.48622 -2.5,-0.71875 -0.40311,-0.11247 -0.81385,-0.2346 -1.21875,-0.34375 -0.67431,-0.18185 -1.35228,-0.35791 -2.03125,-0.53125 -0.12531,-0.032 -0.24954,-0.062 -0.375,-0.0937 -0.9522,-0.24075 -1.91464,-0.46102 -2.875,-0.6875 -0.75472,-0.17783 -1.52204,-0.36087 -2.28125,-0.53125 -0.34348,-0.0771 -0.68692,-0.14297 -1.03125,-0.21875 -2.20658,-0.48565 -4.42169,-0.95934 -6.65625,-1.40625 -0.404,-0.087 -0.80854,-0.125 -1.21875,-0.125 l -93.21875,0 0,-267.25 0,-12.4375 z m 192.65625,0 105.6875,0 0,279.6875 -93.25,0 c -0.41021,0 -0.81475,0.038 -1.21875,0.125 -2.58326,0.51665 -5.14286,1.05356 -7.6875,1.625 -0.75921,0.17038 -1.52653,0.35342 -2.28125,0.53125 -0.96036,0.22648 -1.9228,0.44675 -2.875,0.6875 -0.32338,0.0817 -0.64639,0.16642 -0.96875,0.25 -0.75636,0.19615 -1.4996,0.41786 -2.25,0.625 -0.55434,0.15291 -1.1054,0.30926 -1.65625,0.46875 -0.52106,0.151 -1.04474,0.28018 -1.5625,0.4375 -0.12598,0.0383 -0.24922,0.0864 -0.375,0.125 -0.98308,0.30224 -1.96742,0.60979 -2.9375,0.9375 -1.11557,0.37661 -2.2158,0.77309 -3.3125,1.1875 -0.76371,0.28867 -1.52743,0.59743 -2.28125,0.90625 -0.32311,0.13234 -0.64753,0.27001 -0.96875,0.40625 -0.69105,0.29314 -1.38057,0.59422 -2.0625,0.90625 -0.40653,0.18598 -0.8156,0.36947 -1.21875,0.5625 -0.80894,0.3874 -1.61152,0.77024 -2.40625,1.1875 -0.0955,0.0501 -0.18596,0.10567 -0.28125,0.15625 -0.71571,0.37996 -1.42157,0.78146 -2.125,1.1875 -0.2838,0.16391 -0.56202,0.33168 -0.84375,0.5 -0.67294,0.40167 -1.33924,0.82223 -2,1.25 -0.35815,0.23204 -0.70805,0.47874 -1.0625,0.71875 -0.65395,0.44248 -1.29655,0.87314 -1.9375,1.34375 -0.15546,0.11419 -0.31407,0.22786 -0.46875,0.34375 -0.6654,0.49847 -1.31825,1.03158 -1.96875,1.5625 -0.13231,0.10798 -0.27458,0.20314 -0.40625,0.3125 -0.0223,0.0186 -0.0402,0.0439 -0.0625,0.0625 -0.10704,0.0892 -0.20588,0.19116 -0.3125,0.28125 -0.6488,0.54809 -1.30467,1.10438 -1.9375,1.6875 -0.0822,0.0758 -0.16811,0.14239 -0.25,0.21875 l 0,-263 c 0,-20.566599 16.71465,-37.28125 37.28125,-37.28125 z" />
              <path
                 style="fill:#100000;fill-opacity:1"
                 inkscape:connector-curvature="0"
                 d="m 41.888811,29.234378 -6,0 c -0.552,0 -1,-0.448 -1,-1 0,-0.552 0.448,-1 1,-1 l 6,0 c 0.552,0 1,0.448 1,1 0,0.552 -0.448,1 -1,1"
                 id="path4731" />
              <path
                 style="fill:#100000;fill-opacity:1"
                 inkscape:connector-curvature="0"
                 d="m 49.888811,29.234378 -4,0 c -0.552,0 -1,-0.448 -1,-1 0,-0.552 0.448,-1 1,-1 l 4,0 c 0.552,0 1,0.448 1,1 0,0.552 -0.448,1 -1,1"
                 id="path4733" />
              <path
                 style="fill:#100000;fill-opacity:1"
                 inkscape:connector-curvature="0"
                 d="m 49.888811,19.234378 -8,0 c -0.552,0 -1,-0.448 -1,-1 0,-0.552 0.448,-1 1,-1 l 8,0 c 0.552,0 1,0.448 1,1 0,0.552 -0.448,1 -1,1"
                 id="path4735" />
              <path
                 style="fill:#100000;fill-opacity:1"
                 inkscape:connector-curvature="0"
                 d="m 37.888811,19.234378 -2,0 c -0.552,0 -1,-0.448 -1,-1 0,-0.552 0.448,-1 1,-1 l 2,0 c 0.552,0 1,0.448 1,1 0,0.552 -0.448,1 -1,1"
                 id="path4741" />
              <path
                 style="fill:#100000;fill-opacity:1"
                 inkscape:connector-curvature="0"
                 d="m 49.888811,24.234378 -2,0 c -0.552,0 -1,-0.448 -1,-1 0,-0.552 0.448,-1 1,-1 l 2,0 c 0.552,0 1,0.448 1,1 0,0.552 -0.448,1 -1,1"
                 id="path4743" />
              <path
                 style="fill:#100000;fill-opacity:1"
                 inkscape:connector-curvature="0"
                 d="m 43.888811,24.234378 -8,0 c -0.552,0 -1,-0.448 -1,-1 0,-0.552 0.448,-1 1,-1 l 8,0 c 0.552,0 1,0.448 1,1 0,0.552 -0.448,1 -1,1"
                 id="path4745" />
              <g
                 id="g4862"
                 style="fill:#150000;fill-opacity:1"
                 transform="translate(1.6089194,0)">
                <path
                   id="path4737"
                   d="m 45.355524,5.0120003 c 0.304,0 0.591,0.138 0.781,0.375 l 2.219,2.774 0,-6.149 -6,0 0,6.149 2.219,-2.774 c 0.19,-0.237 0.477,-0.375 0.781,-0.375 m 4,6.9999997 c -0.298,0 -0.587,-0.133 -0.781,-0.375 l -3.219,-4.0239997 -3.219,4.0239997 c -0.266,0.332 -0.714,0.458 -1.112,0.319 -0.401,-0.141 -0.669,-0.519 -0.669,-0.944 l 0,-9.9999997 c 0,-0.55200003 0.448,-1.00000003 1,-1.00000003 l 8,0 c 0.552,0 1,0.448 1,1.00000003 l 0,9.9999997 c 0,0.425 -0.268,0.803 -0.669,0.944 -0.108,0.037 -0.22,0.056 -0.331,0.056"
                   inkscape:connector-curvature="0"
                   style="fill:#150000;fill-opacity:1" />
                <path
                   transform="matrix(0.16089194,0,0,0.16089194,-15.316348,-0.59759932)"
                   inkscape:connector-curvature="0"
                   id="path4860"
                   d="m 356.86796,11.654377 46.9563,0.552427 -2.2097,53.585436 c 0,0 -23.75437,-15.46796 -24.3068,-17.677669 -0.55243,-2.209709 -23.20194,17.677669 -23.20194,17.677669 z"
                   style="fill:#150000;fill-opacity:1;stroke:none" />
              </g>
            </g>
          </g>
        </g>
      </g>
    </g>
    <path
       style="fill:none;stroke:#150000;stroke-width:23.79854201999999930;stroke-miterlimit:4;stroke-opacity:1;stroke-dasharray:none;fill-opacity:1"
       d="m 461.95434,773.16359 c -46.81247,5.87965 -80.00843,48.59047 -74.1288,95.40301 5.87962,46.81245 48.60685,79.98737 95.41933,74.10767 46.81251,-5.87958 79.98972,-48.58806 74.1101,-95.40061 -5.87964,-46.81246 -48.58813,-79.9897 -95.40063,-74.11007 z m 82.49486,139.23462 c -0.94949,0.14394 -1.85892,0.59743 -2.55197,1.34819 l -9.42988,10.22384 c -1.5846,1.71562 -1.43837,4.31682 0.33366,5.83837 l 74.16422,63.66536 c 1.77202,1.5216 4.48131,1.3732 6.06547,-0.3429 l 9.4299,-10.2238 c 1.5837,-1.7167 1.43848,-4.3169 -0.33366,-5.8384 L 547.96041,913.3844 c -0.99712,-0.85533 -2.29044,-1.17132 -3.51121,-0.98619 z"
       id="path2985"
       inkscape:connector-curvature="0"
       inkscape:export-filename="/home/bibin/Pictures/illustarion/open_logo.png"
       inkscape:export-xdpi="72.230003"
       inkscape:export-ydpi="72.230003" />
  </g>
</svg>
