<?xml version="1.0" encoding="UTF-8" standalone="no"?>
<!-- Created with Inkscape (http://www.inkscape.org/) -->

<svg
   xmlns:dc="http://purl.org/dc/elements/1.1/"
   xmlns:cc="http://creativecommons.org/ns#"
   xmlns:rdf="http://www.w3.org/1999/02/22-rdf-syntax-ns#"
   xmlns:svg="http://www.w3.org/2000/svg"
   xmlns="http://www.w3.org/2000/svg"
   xmlns:sodipodi="http://sodipodi.sourceforge.net/DTD/sodipodi-0.dtd"
   xmlns:inkscape="http://www.inkscape.org/namespaces/inkscape"
   width="500"
   height="500"
   id="svg2"
   version="1.1"
   inkscape:version="0.48.5 r10040"
   sodipodi:docname="New document 1">
  <defs
     id="defs4">
    <style
       id="style3949"
       type="text/css">
   
    .fil0 {fill:black;fill-rule:nonzero}
   
  </style>
  </defs>
  <sodipodi:namedview
     id="base"
     pagecolor="#ffffff"
     bordercolor="#666666"
     borderopacity="1.0"
     inkscape:pageopacity="0.0"
     inkscape:pageshadow="2"
     inkscape:zoom="0.7"
     inkscape:cx="375"
     inkscape:cy="181.72227"
     inkscape:document-units="px"
     inkscape:current-layer="layer1"
     showgrid="false"
     inkscape:window-width="1366"
     inkscape:window-height="702"
     inkscape:window-x="0"
     inkscape:window-y="27"
     inkscape:window-maximized="1" />
  <metadata
     id="metadata7">
    <rdf:RDF>
      <cc:Work
         rdf:about="">
        <dc:format>image/svg+xml</dc:format>
        <dc:type
           rdf:resource="http://purl.org/dc/dcmitype/StillImage" />
        <dc:title></dc:title>
      </cc:Work>
    </rdf:RDF>
  </metadata>
  <g
     inkscape:label="Layer 1"
     inkscape:groupmode="layer"
     id="layer1"
     transform="translate(0,-552.36218)">
    <path
       style="fill:none;stroke:#000000;stroke-width:2.5999999;stroke-linecap:butt;stroke-linejoin:miter;stroke-miterlimit:4;stroke-opacity:1;stroke-dasharray:none"
       d="m 629.82741,1394.4292 c -32.23099,0 -63.95748,18.4392 -92.21875,16.4687 l 0,210.0001 c 53.12766,3.2598 110.75395,-37.7625 142,-2.375 l 0,0.9687 c 0.1396,-0.1669 0.26555,-0.3362 0.40625,-0.5 0.14522,0.1689 0.29345,0.3278 0.4375,0.5 l 0,-0.9687 c 31.24605,-35.3875 88.87234,5.6348 142,2.375 l 0,-210.0001 c -42.94384,2.9942 -93.88104,-41.1365 -142.4375,3.9063 -16.59599,-15.3877 -33.44833,-20.376 -50.1875,-20.375 z"
       id="path3839"
       inkscape:connector-curvature="0" />
    <path
       style="fill:none;stroke:#000000;stroke-width:3.5999999;stroke-linecap:butt;stroke-linejoin:miter;stroke-miterlimit:4;stroke-opacity:1;stroke-dasharray:none"
       d="m 680.46134,1413.764 -1.42857,154.2857"
       id="path3864"
       inkscape:connector-curvature="0" />
    <path
       sodipodi:nodetypes="cc"
       inkscape:connector-curvature="0"
       id="path3869"
       d="m 824.04009,1631.259 c -56.90784,5.2233 -105.51585,-37.0403 -146.01747,-1.4286"
       style="fill:none;stroke:#000000;stroke-width:7.18113375;stroke-linecap:butt;stroke-linejoin:miter;stroke-miterlimit:4;stroke-opacity:1;stroke-dasharray:none" />
    <path
       style="fill:none;stroke:#000000;stroke-width:7.21810818;stroke-linecap:butt;stroke-linejoin:miter;stroke-miterlimit:4;stroke-opacity:1;stroke-dasharray:none"
       d="m 536.97907,1630.611 c 57.49538,5.2233 105.16946,-35.7903 146.08923,-0.1786"
       id="path3885"
       inkscape:connector-curvature="0"
       sodipodi:nodetypes="cc" />
    <path
       style="fill:none;stroke:#000000;stroke-width:1px;stroke-linecap:butt;stroke-linejoin:miter;stroke-opacity:1"
       d="m 826.97103,1410.9997 0.71429,218.5714"
       id="path3887"
       inkscape:connector-curvature="0" />
    <g
       style="fill:#520707;fill-opacity:1;fill-rule:evenodd;stroke:none"
       id="g3964"
       transform="matrix(1.3516629,0,0,1.3516629,61.755887,887.96352)"
       inkscape:export-filename="/home/bibin/Pictures/illustarion/open_logo.png"
       inkscape:export-xdpi="72.230003"
       inkscape:export-ydpi="72.230003">
      <g
         id="g3951"
         transform="matrix(1.5316975,0,0,1.5316975,-124.28571,-105.50106)"
         style="fill:#520707;fill-opacity:1;stroke:none">
        <path
           style="fill:#520707;fill-opacity:1;fill-rule:nonzero;stroke:none"
           d="m -0.84375,192.1875 c -1.7622553,0.0135 -3.5423961,0.0665 -5.3125,0.125 2.4628752,3.11955 4.7182792,6.4053 6.75,9.84375 38.087597,-0.35822 72.5625,11.61542 72.5625,57.34375 l 0,187.46875 C 34.858058,414.71764 -27.623475,418.73403 -71.96875,428.8125 l 0,-93.1875 c -1.243714,0.0518 -2.49355,0.0937 -3.75,0.0937 -10.735187,0 -21.009447,-1.90777 -30.53125,-5.40625 l 0,142.84375 c 86.674855,-26.20403 131.045004,-18.12583 185.46875,6.0625 52.40805,-24.18833 96.73139,-32.26653 183.40625,-6.0625 l 0,-225.75 C 256.57792,233.29639 244.50014,213.12528 240.46875,205.0625 194.10778,192.96833 105.42278,174.82625 79.21875,229.25 65.297861,200.33738 33.165801,191.92711 -0.84375,192.1875 z m 153.0625,9.96875 c 26.73188,-0.31266 55.74735,5.86652 76.15625,10.96875 l 0,215.6875 C 184.02973,418.73403 121.54819,414.71764 83.25,446.96875 L 83.25,259.5 c 0,-44.28228 32.33618,-56.91529 68.96875,-57.34375 z"
           transform="matrix(0.49610697,0,0,0.49610697,52.704843,-95.737387)"
           id="path3953"
           inkscape:connector-curvature="0" />
      </g>
    </g>
    <path
       style="fill:none;stroke:#520707;stroke-width:21.12915421;stroke-miterlimit:4;stroke-opacity:1;stroke-dasharray:none"
       d="m -84.250316,725.65629 c -41.552814,5.29041 -70.961174,43.26032 -65.670764,84.81314 5.29041,41.55281 43.27485,70.94249 84.827677,65.65203 C -23.540557,870.83109 5.8511431,832.86325 0.56072708,791.31041 -4.7296787,749.75759 -42.69749,720.36587 -84.250316,725.65629 z m 73.450651,123.4932 c -0.842752,0.12919 -1.649506,0.53318 -2.263681,1.20076 l -8.356816,9.09122 c -1.40426,1.52557 -1.270531,3.83478 0.305004,5.18297 l 65.940987,56.4129 c 1.575566,1.34819 3.980739,1.21237 5.384683,-0.31361 l 8.356796,-9.09112 c 1.403649,-1.52629 1.270572,-3.83489 -0.305003,-5.18308 L -7.680802,850.01982 c -0.8865537,-0.75795 -2.0352974,-1.03651 -3.118863,-0.87033 z"
       id="path2985"
       inkscape:connector-curvature="0"
       inkscape:export-filename="/home/bibin/Pictures/illustarion/open_logo.png"
       inkscape:export-xdpi="72.230003"
       inkscape:export-ydpi="72.230003" />
  </g>
</svg>
