<?xml version="1.0" encoding="UTF-8" standalone="no"?>
<!-- Created with Inkscape (http://www.inkscape.org/) -->

<svg
   xmlns:dc="http://purl.org/dc/elements/1.1/"
   xmlns:cc="http://creativecommons.org/ns#"
   xmlns:rdf="http://www.w3.org/1999/02/22-rdf-syntax-ns#"
   xmlns:svg="http://www.w3.org/2000/svg"
   xmlns="http://www.w3.org/2000/svg"
   xmlns:xlink="http://www.w3.org/1999/xlink"
   xmlns:sodipodi="http://sodipodi.sourceforge.net/DTD/sodipodi-0.dtd"
   xmlns:inkscape="http://www.inkscape.org/namespaces/inkscape"
   width="744.09448819"
   height="1052.3622047"
   id="svg2"
   version="1.1"
   inkscape:version="0.48.5 r10040"
   sodipodi:docname="sawatantra8.svg">
  <defs
     id="defs4">
    <linearGradient
       inkscape:collect="always"
       id="linearGradient4124">
      <stop
         style="stop-color:#0b89b1;stop-opacity:1;"
         offset="0"
         id="stop4126" />
      <stop
         style="stop-color:#0b89b1;stop-opacity:0;"
         offset="1"
         id="stop4128" />
    </linearGradient>
    <linearGradient
       inkscape:collect="always"
       xlink:href="#linearGradient4124"
       id="linearGradient4130"
       x1="-137.14282"
       y1="388.07648"
       x2="447.14285"
       y2="385.21933"
       gradientUnits="userSpaceOnUse"
       gradientTransform="translate(5.5953308e-8,0.0609154)" />
    <linearGradient
       inkscape:collect="always"
       xlink:href="#linearGradient4124"
       id="linearGradient4162"
       gradientUnits="userSpaceOnUse"
       x1="-137.14282"
       y1="388.07648"
       x2="447.14285"
       y2="385.21933"
       gradientTransform="translate(5.5953308e-8,0.0609154)" />
    <linearGradient
       inkscape:collect="always"
       xlink:href="#linearGradient4124"
       id="linearGradient4164"
       gradientUnits="userSpaceOnUse"
       x1="-137.14282"
       y1="388.07648"
       x2="447.14285"
       y2="385.21933"
       gradientTransform="translate(0.0087775,0.06027805)" />
    <linearGradient
       inkscape:collect="always"
       xlink:href="#linearGradient4124"
       id="linearGradient4166"
       gradientUnits="userSpaceOnUse"
       x1="-137.14282"
       y1="388.07648"
       x2="447.14285"
       y2="385.21933"
       gradientTransform="translate(0.0087775,0.06027805)" />
    <linearGradient
       inkscape:collect="always"
       xlink:href="#linearGradient4124"
       id="linearGradient4168"
       gradientUnits="userSpaceOnUse"
       x1="-137.14282"
       y1="388.07648"
       x2="447.14285"
       y2="385.21933"
       gradientTransform="translate(0.01725636,0.11851594)" />
    <linearGradient
       inkscape:collect="always"
       xlink:href="#linearGradient4124"
       id="linearGradient4172"
       gradientUnits="userSpaceOnUse"
       x1="-137.14282"
       y1="388.07648"
       x2="447.14285"
       y2="385.21933"
       gradientTransform="translate(0.00194478,0.01335699)" />
    <linearGradient
       inkscape:collect="always"
       xlink:href="#linearGradient4124"
       id="linearGradient4174"
       gradientUnits="userSpaceOnUse"
       x1="-137.14282"
       y1="388.07648"
       x2="447.14285"
       y2="385.21933"
       gradientTransform="translate(0.0087775,0.06027805)" />
    <linearGradient
       inkscape:collect="always"
       xlink:href="#linearGradient4124"
       id="linearGradient4176"
       gradientUnits="userSpaceOnUse"
       x1="-137.14282"
       y1="388.07648"
       x2="447.14285"
       y2="385.21933"
       gradientTransform="translate(5.5953308e-8,0.0609154)" />
    <linearGradient
       inkscape:collect="always"
       xlink:href="#linearGradient4124"
       id="linearGradient4178"
       gradientUnits="userSpaceOnUse"
       x1="-137.14282"
       y1="388.07648"
       x2="447.14285"
       y2="385.21933"
       gradientTransform="translate(0.0087775,0.06027805)" />
    <linearGradient
       inkscape:collect="always"
       xlink:href="#linearGradient4124"
       id="linearGradient4180"
       gradientUnits="userSpaceOnUse"
       x1="-137.14282"
       y1="388.07648"
       x2="447.14285"
       y2="385.21933"
       gradientTransform="translate(0.0087775,0.06027805)" />
    <linearGradient
       inkscape:collect="always"
       xlink:href="#linearGradient4124"
       id="linearGradient4182"
       gradientUnits="userSpaceOnUse"
       x1="-137.14282"
       y1="388.07648"
       x2="447.14285"
       y2="385.21933"
       gradientTransform="translate(0.01725636,0.11851594)" />
    <linearGradient
       inkscape:collect="always"
       xlink:href="#linearGradient4124"
       id="linearGradient4186"
       gradientUnits="userSpaceOnUse"
       x1="-137.14282"
       y1="388.07648"
       x2="447.14285"
       y2="385.21933"
       gradientTransform="translate(0.00194478,0.01335699)" />
    <linearGradient
       inkscape:collect="always"
       xlink:href="#linearGradient4124"
       id="linearGradient4188"
       gradientUnits="userSpaceOnUse"
       x1="-137.14282"
       y1="388.07648"
       x2="447.14285"
       y2="385.21933"
       gradientTransform="translate(0.0087775,0.06027805)" />
    <linearGradient
       inkscape:collect="always"
       xlink:href="#linearGradient4124"
       id="linearGradient4190"
       gradientUnits="userSpaceOnUse"
       x1="-137.14282"
       y1="388.07648"
       x2="447.14285"
       y2="385.21933"
       gradientTransform="translate(5.5953308e-8,0.0609154)" />
    <filter
       inkscape:collect="always"
       id="filter4419">
      <feGaussianBlur
         inkscape:collect="always"
         stdDeviation="2.7466112"
         id="feGaussianBlur4421" />
    </filter>
  </defs>
  <sodipodi:namedview
     id="base"
     pagecolor="#ffffff"
     bordercolor="#666666"
     borderopacity="1.0"
     inkscape:pageopacity="0.0"
     inkscape:pageshadow="2"
     inkscape:zoom="0.12374369"
     inkscape:cx="412.29638"
     inkscape:cy="1565.791"
     inkscape:document-units="px"
     inkscape:current-layer="g4352"
     showgrid="false"
     showguides="true"
     inkscape:guide-bbox="true"
     inkscape:window-width="1366"
     inkscape:window-height="648"
     inkscape:window-x="0"
     inkscape:window-y="27"
     inkscape:window-maximized="1" />
  <metadata
     id="metadata7">
    <rdf:RDF>
      <cc:Work
         rdf:about="">
        <dc:format>image/svg+xml</dc:format>
        <dc:type
           rdf:resource="http://purl.org/dc/dcmitype/StillImage" />
        <dc:title></dc:title>
      </cc:Work>
    </rdf:RDF>
  </metadata>
  <g
     inkscape:label="Layer 1"
     inkscape:groupmode="layer"
     id="layer1">
    <g
       id="g4069"
       style="fill:#66d4f8;fill-opacity:1"
       transform="translate(466.69048,42.426407)">
      <g
         style="fill:#66d4f8;fill-opacity:1"
         id="g4051">
        <g
           id="g4210"
           inkscape:export-filename="/home/bibin/Pictures/illustarion/logos/sawantra5.png"
           inkscape:export-xdpi="90"
           inkscape:export-ydpi="90">
          <g
             id="g4306">
            <g
               id="g4196"
               transform="translate(6,0)">
              <g
                 style="fill:#66d4f8;fill-opacity:1"
                 id="g3969"
                 inkscape:label="Layer 1"
                 transform="matrix(0.98956498,0.14408732,-0.14408732,0.98956498,821.50085,318.06016)">
                <g
                   style="fill:#66d4f8;fill-opacity:1"
                   transform="translate(506.78643,443.90289)"
                   id="g3971">
                  <g
                     style="fill:#66d4f8;fill-opacity:1"
                     transform="translate(1012.7887,-473.47806)"
                     id="g3973" />
                </g>
                <g
                   style="fill:#66d4f8;fill-opacity:1"
                   transform="matrix(0.50862776,0,0,0.50862776,-424.28389,103.17621)"
                   id="g3975" />
                <g
                   style="fill:#66d4f8;fill-opacity:1"
                   transform="matrix(4.5130802,0,0,4.5130802,-867.8,-490.96778)"
                   id="g3977" />
              </g>
              <g
                 id="g4333">
                <g
                   id="g4296"
                   transform="translate(322.85714,208.57143)" />
                <g
                   id="g4370">
                  <g
                     id="g3032">
                    <g
                       id="g4352">
                      <rect
                         style="fill:#ffffff;fill-opacity:1;stroke:none"
                         id="rect4088"
                         width="3240.0002"
                         height="1720.7573"
                         x="-1211.3038"
                         y="-1231.08"
                         inkscape:export-filename="/home/bibin/Pictures/illustarion/logos/sawatantra7.png"
                         inkscape:export-xdpi="90"
                         inkscape:export-ydpi="90" />
                      <g
                         style="font-size:504.63436889999996993px;font-style:normal;font-variant:normal;font-weight:bold;font-stretch:normal;line-height:125%;letter-spacing:0px;word-spacing:0px;fill:#2d2d2d;fill-opacity:1;stroke:none;font-family:Rodi de Asis;-inkscape-font-specification:Rodi de Asis Bold"
                         id="text4084">
                        <path
                           d="m -218.69111,-410.94637 2.09848,0 c 13.98969,4.7e-4 20.98466,15.0379 20.98491,45.11235 2.09823,2.43295 3.14748,6.19231 3.14775,11.27809 l 0,1.65853 c -2.7e-4,5.97117 -3.49775,12.38418 -10.49246,19.2391 -0.87463,19.4606 -9.61833,43.01188 -26.23114,70.65389 -6.99519,3.3174 -11.89167,10.83612 -14.68944,22.55617 -2.1e-4,1.54828 -1.04946,3.20681 -3.14774,4.97563 l -4.19698,0 c -0.69971,2.9e-4 -2.44845,-2.76394 -5.24623,-8.29272 1.39879,-9.06637 2.09829,-14.92656 2.09849,-17.58054 -3.49769,-14.59483 -5.24643,-25.87291 -5.24623,-33.83426 l 0,-14.26346 c -2e-4,-6.41265 1.04905,-17.13788 3.14774,-32.17572 -42.14486,4e-4 -83.41514,25.6525 -123.81099,76.95635 -20.98496,32.06545 -32.17691,54.06876 -33.57586,66.00999 -4e-5,15.03769 21.68435,33.28163 65.05323,54.73189 67.85105,14.8165 101.77662,27.20027 101.77683,37.15135 9.09324,8.62457 13.63997,19.3498 13.6402,32.17571 l 0,12.60492 c -2.3e-4,29.85386 -22.73386,63.13524 -68.20097,99.84425 -22.90866,15.03745 -45.29256,22.55617 -67.15173,22.55617 -15.38901,0 -31.12767,-7.51872 -47.21605,-22.55617 -11.89148,-3.75934 -17.8372,-11.8309 -17.83717,-24.21472 1.74871,-8.40322 4.89644,-12.60486 9.4432,-12.60492 l 1.04926,0 c 3.84719,6e-5 9.44316,1.54803 16.78792,4.64392 47.21596,-6.63411 77.64405,-15.14795 91.28438,-25.54155 22.03399,-17.69102 34.97467,-31.18049 38.82209,-40.46843 -121.71256,-19.46009 -182.56875,-65.01467 -182.56875,-136.66388 l 0,-1.65854 c 0,-42.23724 25.53162,-88.89752 76.59493,-139.98097 41.27022,-37.59317 85.68824,-56.38996 133.2542,-56.39042 l 11.5417,0 c 6.99475,-10.61421 13.29022,-15.92154 18.88643,-15.92201"
                           style="fill:#2d2d2d;fill-opacity:1;font-family:Rodi de Asis;-inkscape-font-specification:Rodi de Asis Bold"
                           id="path3845"
                           inkscape:connector-curvature="0" />
                        <path
                           d="m -20.314632,-228.89078 4.435263,0 c 16.26244812,2.8e-4 24.3937555,13.63459 24.3939465,40.90298 l -0.985614,0 c -1.9e-4,0.82158 0.3283477,1.23225 0.985614,1.23202 l -0.985614,11.33456 c -1.9e-4,20.53383 3.3673215,58.56206 10.1025435,114.084823 l 1.232017,0 c 28.08977,-37.124651 58.561639,-69.814153 91.415696,-98.068593 36.05417,-30.29791 179.62871,-152.24994 279.24792,-178.49164 28.94451,10.29625 -148.3341,71.69065 -237.60573,189.8262 C 102.8047,-86.96223 65.84421,-31.110826 41.03984,19.483951 33.976056,38.539161 24.037792,48.066753 11.225016,48.066757 -5.8591367,48.066753 -18.179299,30.243585 -25.735509,-5.4028024 -30.335193,-16.901571 -35.591796,-42.938182 -41.505333,-83.512712 l -0.985614,0 c -19.055325,37.453422 -33.593117,74.6603138 -43.61342,111.620786 -6.899387,10.020415 -13.962943,15.030614 -21.190703,15.030613 l -5.91368,0 c -12.97731,1e-6 -22.58704,-12.812968 -28.82921,-38.4389459 -10.51325,-20.2050271 -21.35499,-64.1469411 -32.52526,-131.8258711 -0.82136,-1.47825 -2.29977,-12.64853 -4.43527,-33.51088 3.28538,-17.41229 10.75961,-26.11854 22.42272,-26.11877 17.90528,2.3e-4 30.14331,25.29763 36.71412,75.89228 5.91362,29.075739 8.87046,44.35274 8.87053,45.83105 l 2.46403,0 c 10.841674,-22.504721 33.921445,-73.42806 69.239388,-152.77017 6.406342,-7.39184 12.730692,-11.08788 18.97307,-11.08816"
                           style="fill:#2d2d2d;fill-opacity:1;font-family:Rodi de Asis;-inkscape-font-specification:Rodi de Asis Bold"
                           id="path3847"
                           inkscape:connector-curvature="0"
                           sodipodi:nodetypes="ccccccccccccsccccssccccccccc" />
                        <path
                           d="m 378.11984,-211.88894 3.44965,0 c 11.82714,2.6e-4 19.05497,9.28145 21.68351,27.8436 -1.47865,12.15612 -2.21786,18.80901 -2.21763,19.95868 1.47818,2.95705 2.21739,5.58535 2.21763,7.88492 l 0,9.36333 -2.21763,9.36333 c 2.29953,68.828825 3.44941,105.953582 3.44965,111.374384 -2.4e-4,4.928135 -0.41091,13.38798 -1.23202,25.37956007 4.43502,13.96289593 6.65265,22.83341293 6.65289,26.61157793 l 0,2.464035 c -1.31439,3.285393 -3.53202,5.503022 -6.65289,6.652895 -4.59976,9e-6 -9.6921,-10.595331 -15.27702,-31.7860519 C 374.66999,-14.683942 364.81386,-38.174385 358.40756,-67.250081 l -0.98561,0 c -26.44747,56.180053 -61.84741,92.072794 -106.19991,107.67833 -7.55645,2.628305 -15.19495,3.942456 -22.91553,3.942456 l -5.42087,0 c -21.35501,0 -34.49651,-13.305776 -39.42456,-39.9173674 l 0,-10.5953505 c -2e-5,-29.2398021 24.3939,-73.9209261 73.18184,-134.0435071 33.34648,-31.86797 66.20025,-47.80204 98.5614,-47.80228 5.42068,-15.93384 13.05918,-23.90088 22.91552,-23.90114 m -147.5957,209.1965761 0,1.2320175 0.98562,0 c 15.76974,4.58e-5 36.54975,-11.7451756 62.34008,-35.2357006 18.23372,-22.669018 33.18218,-46.323731 44.84544,-70.964213 0.82118,-0.98546 1.23185,-2.79241 1.23202,-5.42087 -17.90547,2.46419 -40.90311,17.412652 -68.99298,44.845435 -23.49055,27.597277 -36.96059,49.445032 -40.41018,65.5433311"
                           style="fill:#2d2d2d;font-family:Rodi de Asis;-inkscape-font-specification:Rodi de Asis Bold;fill-opacity:1"
                           id="path3849" />
                        <path
                           d="m 523.25151,-314.6392 3.94245,0 c 10.67738,3.6e-4 16.91959,10.51357 18.72667,31.53965 -4.59965,35.4824 -6.89941,77.78162 -6.8993,126.89781 56.8369,2.6285 85.25541,12.15609 85.25561,28.5828 l 0,4.43526 c -2e-4,14.94864 -24.14772,23.819153 -72.44263,26.611582 l -12.81298,0 0,0.985614 c 2.62819,53.551781 5.58503,80.327601 8.87053,80.327542 l 50.26631,-22.915526 c 10.34876,-9.363241 17.57659,-14.044903 21.68351,-14.045 6.57056,1.971323 9.85593,5.585237 9.85614,10.841754 l 0,2.217632 c -2.1e-4,4.271073 -7.88511,13.716531 -23.65474,28.336403 -14.29157,25.954531 -29.73284,42.874221 -46.32386,50.759121 -6.57088,2.956843 -12.15602,4.435263 -16.75543,4.435263 l -5.91369,0 c -16.42699,0 -28.58289,-15.523405 -36.46772,-46.5702619 -3.28545,-21.0263641 -6.57082,-52.4838461 -9.85614,-94.3725411 -14.45572,-2.956698 -26.61161,-6.242072 -36.46771,-9.856142 -8.21347,1.47857 -14.78423,2.21778 -19.71228,2.21763 -5.91369,-3.44949 -8.87053,-7.39195 -8.87053,-11.82736 l 0,-2.21764 c 0,-8.21327 8.54198,-13.63415 25.62596,-16.26263 7.88488,-8.87033 21.35493,-16.09816 40.41018,-21.6835 l 0,-2.21764 c -7e-5,-80.49152 6.24215,-130.75779 18.72666,-150.79894 4.92798,-3.61356 9.19897,-5.42052 12.81299,-5.42088"
                           style="fill:#2d2d2d;font-family:Rodi de Asis;-inkscape-font-specification:Rodi de Asis Bold;fill-opacity:1"
                           id="path3851" />
                        <path
                           d="m 843.32968,-211.88894 3.44965,0 c 11.82714,2.6e-4 19.05497,9.28145 21.68351,27.8436 -1.47866,12.15612 -2.21787,18.80901 -2.21763,19.95868 1.47818,2.95705 2.21739,5.58535 2.21763,7.88492 l 0,9.36333 -2.21763,9.36333 c 2.29953,68.828825 3.44941,105.953582 3.44964,111.374384 -2.3e-4,4.928135 -0.4109,13.38798 -1.23201,25.37956007 4.43502,13.96289593 6.65265,22.83341293 6.65289,26.61157793 l 0,2.464035 c -1.31439,3.285393 -3.53202,5.503022 -6.65289,6.652895 -4.59976,9e-6 -9.6921,-10.595331 -15.27702,-31.7860519 C 839.87983,-14.683942 830.0237,-38.174385 823.6174,-67.250081 l -0.98561,0 c -26.44747,56.180053 -61.84741,92.072794 -106.19991,107.67833 -7.55645,2.628305 -15.19495,3.942456 -22.91553,3.942456 l -5.42087,0 c -21.35501,0 -34.49651,-13.305776 -39.42456,-39.9173674 l 0,-10.5953505 c -2e-5,-29.2398021 24.3939,-73.9209261 73.18183,-134.0435071 33.34649,-31.86797 66.20026,-47.80204 98.5614,-47.80228 5.42069,-15.93384 13.05919,-23.90088 22.91553,-23.90114 m -147.5957,209.1965761 0,1.2320175 0.98562,0 c 15.76974,4.58e-5 36.54975,-11.7451756 62.34008,-35.2357006 18.23372,-22.669018 33.18218,-46.323731 44.84544,-70.964213 0.82118,-0.98546 1.23185,-2.79241 1.23202,-5.42087 -17.90548,2.46419 -40.90311,17.412652 -68.99298,44.845435 -23.49055,27.597277 -36.96059,49.445032 -40.41018,65.5433311"
                           style="fill:#2d2d2d;font-family:Rodi de Asis;-inkscape-font-specification:Rodi de Asis Bold;fill-opacity:1"
                           id="path3853" />
                        <path
                           d="m 1053.2655,-206.46806 c 20.3691,2.5e-4 34.0856,9.60998 41.1494,28.82921 0.8211,3.94267 1.2318,6.81738 1.232,8.62412 -11.1705,63.57226 -16.7557,100.532744 -16.7555,110.881578 -0.8215,5.092437 -1.2322,14.702164 -1.232,28.82921 -2e-4,6.899365 1.7246,14.702135 5.1745,23.4083326 l 1.232,0 c 38.603,-23.1618556 58.8081,-39.5066046 60.6153,-49.0342966 4.435,-3.613815 8.2953,-5.420772 11.5809,-5.420877 5.5849,1.05e-4 9.4452,3.203347 11.581,9.609736 l -16.7554,28.82921 c -13.7989,31.8682205 -33.5111,52.894632 -59.1369,63.079296 -5.9139,2.135498 -10.6777,3.203246 -14.2914,3.203246 l -6.4065,0 c -23.8191,0 -40.9852,-12.81297 -51.4983,-38.4389464 -4.2711,-10.3488982 -6.4066,-21.3549106 -6.4065,-33.0180686 l 0,-15.030614 c -1e-4,-12.977152 8.5419,-47.473607 25.626,-103.489466 0.8212,-3.94227 1.2318,-6.81697 1.232,-8.62413 -16.9199,13.63452 -33.1825,42.79223 -48.78791,87.473246 -19.38383,57.6584725 -34.41442,86.487653 -45.09184,86.487629 -6e-5,2.628326 -7.31002,4.76382 -21.92991,6.406491 -19.7123,1.8e-5 -30.88258,-11.334532 -33.51088,-34.0036834 l 0,-10.8417536 c 0,-31.046747 9.85613,-72.606763 29.56842,-124.680169 7.55634,-27.10417 17.41247,-40.65635 29.56842,-40.65658 l 6.65289,0 c 5.58508,2.3e-4 8.54192,7.803 8.87053,23.40833 -7e-5,3.44985 -0.82142,10.92408 -2.46404,22.42272 l 0,1.23202 1.23202,0 c 27.76136,-46.32363 57.4119,-69.48554 88.9517,-69.48579"
                           style="fill:#2d2d2d;font-family:Rodi de Asis;-inkscape-font-specification:Rodi de Asis Bold;fill-opacity:1"
                           id="path3855" />
                        <path
                           d="m 1261.4764,-314.6392 3.9424,0 c 10.6774,3.6e-4 16.9196,10.51357 18.7267,31.53965 -4.5997,35.4824 -6.8994,77.78162 -6.8993,126.89781 -14.895,53.97438 -0.4011,-74.65607 0,59.629642 l 0,0.985614 c 2.6282,53.551781 5.585,80.327601 8.8705,80.327542 l 50.2663,-22.915526 c 10.3488,-9.363241 17.5766,-14.044903 21.6835,-14.045 6.5706,1.971323 9.856,5.585237 9.8562,10.841754 l 0,2.217632 c -2e-4,4.271073 -7.8851,13.716531 -23.6548,28.336403 -14.2915,25.954531 -29.7328,42.874221 -46.3238,50.759121 -6.5709,2.956843 -12.156,4.435263 -16.7555,4.435263 l -5.9136,0 c -16.427,0 -28.5829,-15.523405 -36.4678,-46.5702619 -3.2854,-21.0263641 -6.5708,-52.4838461 -9.8561,-94.3725411 0.7073,-83.502462 1.6704,39.395457 0.9856,-59.629642 l 0,-2.21764 c -10e-5,-80.49152 6.2422,-130.75779 18.7267,-150.79894 4.928,-3.61356 9.1989,-5.42052 12.813,-5.42088"
                           style="fill:#2d2d2d;fill-opacity:1;font-family:Rodi de Asis;-inkscape-font-specification:Rodi de Asis Bold"
                           id="path3857"
                           inkscape:connector-curvature="0"
                           sodipodi:nodetypes="cccccccccccccsscccscc" />
                        <path
                           d="m 1511.0831,-222.23788 3.6961,0 c 22.8332,2.6e-4 37.2067,16.91995 43.1206,50.75912 3.2852,10.67769 4.9279,17.90552 4.9281,21.68351 -2.1357,7.55656 -5.339,11.33474 -9.6098,11.33456 l -1.9712,0 c -4.5997,1.8e-4 -9.3635,-7.22765 -14.2914,-21.68351 -4.2712,-2.79237 -10.6776,-5.74921 -19.2195,-8.87053 -16.2627,2.2e-4 -38.6854,21.1909 -67.2681,63.57211 -8.0493,12.320309 -15.3592,35.153677 -21.9299,68.50017 -3.9425,50.759151 -9.4456,76.138686 -16.5091,76.138681 -2.464,3.449651 -5.9137,5.174474 -10.3489,5.174474 l -4.9281,0 c -12.6487,0 -18.9731,-19.87653 -18.9731,-59.629647 -3.2853,-27.104299 -4.928,-49.937667 -4.928,-68.500174 0,-35.974744 5.7494,-71.949624 17.2482,-107.924734 4.9281,-13.63408 11.3345,-20.45123 19.2195,-20.45149 8.7062,2.6e-4 13.7985,7.22809 15.277,21.68351 -7.5564,33.51108 -11.3346,52.97693 -11.3346,58.39763 19.0552,-31.04664 37.289,-53.88 54.7016,-68.50017 17.2482,-14.45542 31.6217,-21.68325 43.1206,-21.68351"
                           style="fill:#2d2d2d;font-family:Rodi de Asis;-inkscape-font-specification:Rodi de Asis Bold;fill-opacity:1"
                           id="path3859" />
                        <path
                           d="m 1752.0658,-211.88894 3.4496,0 c 11.8272,2.6e-4 19.055,9.28145 21.6835,27.8436 -1.4786,12.15612 -2.2178,18.80901 -2.2176,19.95868 1.4782,2.95705 2.2174,5.58535 2.2176,7.88492 l 0,9.36333 -2.2176,9.36333 c 2.2995,68.828825 3.4494,105.953582 3.4496,111.374384 -2e-4,4.928135 -0.4109,13.38798 -1.232,25.37956007 4.435,13.96289593 6.6527,22.83341293 6.6529,26.61157793 l 0,2.464035 c -1.3144,3.285393 -3.532,5.503022 -6.6529,6.652895 -4.5997,9e-6 -9.6921,-10.595331 -15.277,-31.7860519 -13.306,-17.9052621 -23.1621,-41.3957051 -29.5684,-70.4714011 l -0.9856,0 c -26.4475,56.180053 -61.8474,92.072794 -106.1999,107.67833 -7.5565,2.628305 -15.195,3.942456 -22.9156,3.942456 l -5.4208,0 c -21.355,0 -34.4965,-13.305776 -39.4246,-39.9173674 l 0,-10.5953505 c 0,-29.2398021 24.3939,-73.9209261 73.1818,-134.0435071 33.3465,-31.86797 66.2003,-47.80204 98.5614,-47.80228 5.4207,-15.93384 13.0592,-23.90088 22.9156,-23.90114 m -147.5957,209.1965761 0,1.2320175 0.9856,0 c 15.7697,4.58e-5 36.5497,-11.7451756 62.3401,-35.2357006 18.2337,-22.669018 33.1821,-46.323731 44.8454,-70.964213 0.8212,-0.98546 1.2319,-2.79241 1.232,-5.42087 -17.9055,2.46419 -40.9031,17.412652 -68.993,44.845435 -23.4905,27.597277 -36.9605,49.445032 -40.4101,65.5433311"
                           style="fill:#2d2d2d;font-family:Rodi de Asis;-inkscape-font-specification:Rodi de Asis Bold;fill-opacity:1"
                           id="path3861" />
                      </g>
                      <g
                         style="fill:#46b4ff;fill-opacity:1"
                         transform="matrix(1.8378274,-0.48928149,0.49821018,1.8101992,-739.93954,-392.83846)"
                         id="g4365">
                        <path
                           style="fill:#46b4ff;fill-opacity:1;stroke:none"
                           d="m 48.34431,-386.40745 87.93205,132.70601 114.07728,-87.2605 c -53.62025,5.21588 -107.37434,-0.49938 -202.00933,-45.44551 z m 205.89111,49.61021 -114.40018,85.71303 136.88454,198.184772 C 239.7944,-160.86001 238.83626,-249.59889 254.23542,-336.79724 z"
                           id="path4367"
                           inkscape:connector-curvature="0"
                           sodipodi:nodetypes="cccccccc" />
                        <path
                           id="path4369"
                           d="m 44.62367,-383.58771 87.30268,132.16823 -114.19703,67.62217 c 36.26418,-83.557 48.78825,-95.87297 26.89435,-199.7904 z m -24.32608,202.40849 114.37639,-66.93334 138.52137,199.237142 C 215.73077,-91.187708 183.48026,-131.81906 20.29759,-181.17922 z"
                           style="fill:#0b7ce2;fill-opacity:1;stroke:none"
                           inkscape:connector-curvature="0"
                           sodipodi:nodetypes="cccccccc" />
                        <path
                           sodipodi:nodetypes="cccc"
                           inkscape:connector-curvature="0"
                           id="path3882"
                           d="m 256.28391,-336.24355 -114.40018,85.71303 136.88454,198.184767 C 241.84289,-160.30632 240.88475,-249.0452 256.28391,-336.24355 z"
                           style="fill:#0197fd;fill-opacity:1;stroke:none" />
                        <path
                           sodipodi:nodetypes="cccc"
                           inkscape:connector-curvature="0"
                           style="fill:#479ae9;fill-opacity:1;stroke:none"
                           d="M 19.171825,-181.96348 133.54819,-248.89682 272.06956,-49.659702 C 214.60498,-91.971992 182.35447,-132.60332 19.171825,-181.96348 z"
                           id="path3884" />
                        <g
                           id="g3898"
                           style="fill:#3a3a3a;fill-opacity:1"
                           transform="matrix(1.1371354,0,0,1.1371354,-2.0564017,28.338051)">
                          <path
                             inkscape:transform-center-y="34.948859"
                             inkscape:transform-center-x="84.025872"
                             sodipodi:nodetypes="cc"
                             inkscape:connector-curvature="0"
                             id="path3890"
                             d="M 0.79025553,-180.8895 C -21.654734,-152.32855 -18.051458,-117.87561 -52.568017,-100.79978"
                             style="fill:#3a3a3a;fill-opacity:1;stroke:#1972af;stroke-width:12.59523964;stroke-linecap:round;stroke-linejoin:miter;stroke-miterlimit:4;stroke-opacity:1;stroke-dasharray:none" />
                          <path
                             inkscape:transform-center-x="33.074699"
                             inkscape:transform-center-y="42.091458"
                             style="fill:#3a3a3a;fill-opacity:1;stroke:#1972af;stroke-width:12.59523964;stroke-linecap:round;stroke-linejoin:miter;stroke-miterlimit:4;stroke-opacity:1;stroke-dasharray:none"
                             d="m 0.55925053,-178.64119 c -5.19515903,36.01733 15.13271247,63.74567 -6.26226403,96.089377"
                             id="path3892"
                             inkscape:connector-curvature="0"
                             sodipodi:nodetypes="cc" />
                        </g>
                        <g
                           id="g3902"
                           style="fill:#3a3a3a;fill-opacity:1"
                           transform="matrix(1.1460356,0.04550447,0.0456383,0.99001791,-29.840406,-17.665007)">
                          <path
                             inkscape:transform-center-x="-76.892759"
                             sodipodi:nodetypes="cc"
                             inkscape:connector-curvature="0"
                             id="path3894"
                             d="m 373.42238,-321.90395 c -35.35269,-5.97945 -60.95431,-32.4541 -97.81234,-21.64395"
                             style="fill:#3a3a3a;fill-opacity:1;stroke:#1972af;stroke-width:12.59523964;stroke-linecap:round;stroke-linejoin:miter;stroke-miterlimit:4;stroke-opacity:1;stroke-dasharray:none"
                             inkscape:transform-center-y="19.912249" />
                          <path
                             inkscape:transform-center-y="67.344328"
                             style="fill:#1972af;fill-opacity:1;stroke:#1972af;stroke-width:12.59523964;stroke-linecap:round;stroke-linejoin:miter;stroke-miterlimit:4;stroke-opacity:1;stroke-dasharray:none"
                             d="m 278.12921,-340.33984 c 31.49881,17.16171 41.28143,50.30884 79.51633,52.01105"
                             id="path3896"
                             inkscape:connector-curvature="0"
                             sodipodi:nodetypes="cc"
                             inkscape:transform-center-x="-68.939955" />
                        </g>
                        <g
                           transform="matrix(1.0603318,-0.90411839,0.93591443,1.0265572,454.94618,149.86981)"
                           style="fill:none;fill-opacity:1"
                           id="g3908">
                          <path
                             style="fill:none;fill-opacity:1;stroke:#1972af;stroke-width:12.59523964000000085;stroke-linecap:round;stroke-linejoin:miter;stroke-miterlimit:4;stroke-opacity:1;stroke-dasharray:none"
                             d="M 0.79025553,-180.8895 C -21.654734,-152.32855 -18.051458,-117.87561 -52.568017,-100.79978"
                             id="path3910"
                             inkscape:connector-curvature="0"
                             sodipodi:nodetypes="cc"
                             inkscape:transform-center-x="84.025872"
                             inkscape:transform-center-y="34.948859" />
                          <path
                             sodipodi:nodetypes="cc"
                             inkscape:connector-curvature="0"
                             id="path3912"
                             d="m 0.55925053,-178.64119 c -5.19515903,36.01733 15.13271247,63.74567 -6.26226403,96.089377"
                             style="fill:none;fill-opacity:1;stroke:#1972af;stroke-width:12.59523964000000085;stroke-linecap:round;stroke-linejoin:miter;stroke-miterlimit:4;stroke-opacity:1;stroke-dasharray:none"
                             inkscape:transform-center-y="42.091458"
                             inkscape:transform-center-x="33.074699" />
                        </g>
                      </g>
                      <path
                         style="fill:#46b4ff;fill-opacity:1;stroke:none"
                         d="M -596.07527,-564.78015 C -1690.1316,583.40338 -33.548487,473.2221 454.37715,242.19918 -176.23275,522.89745 -1489.3117,372.03228 -596.07527,-564.78015 z"
                         id="path3836"
                         inkscape:connector-curvature="0"
                         sodipodi:nodetypes="ccc" />
                      <path
                         style="fill:#0197fd;fill-opacity:1;stroke:none"
                         d=""
                         id="path3838"
                         inkscape:connector-curvature="0"
                         transform="translate(-472.69048,-42.426407)" />
                      <path
                         style="fill:#0197fd;fill-opacity:1;stroke:none"
                         d=""
                         id="path3840"
                         inkscape:connector-curvature="0"
                         transform="translate(-472.69048,-42.426407)" />
                      <path
                         style="fill:#46b4ff;fill-opacity:1;stroke:none"
                         d="M 769.42384,146.13601 C 1155.7642,39.767701 1166.3191,-222.74358 1570.6875,-230.2029 1253.8392,-215.30218 1310.1544,-0.209971 769.42384,146.13601 z"
                         id="path3842"
                         inkscape:connector-curvature="0"
                         sodipodi:nodetypes="ccc" />
                    </g>
                  </g>
                </g>
              </g>
            </g>
          </g>
        </g>
      </g>
    </g>
  </g>
</svg>
