<?xml version="1.0" encoding="UTF-8" standalone="no"?>
<!-- Created with Inkscape (http://www.inkscape.org/) -->

<svg
   xmlns:dc="http://purl.org/dc/elements/1.1/"
   xmlns:cc="http://creativecommons.org/ns#"
   xmlns:rdf="http://www.w3.org/1999/02/22-rdf-syntax-ns#"
   xmlns:svg="http://www.w3.org/2000/svg"
   xmlns="http://www.w3.org/2000/svg"
   xmlns:xlink="http://www.w3.org/1999/xlink"
   xmlns:sodipodi="http://sodipodi.sourceforge.net/DTD/sodipodi-0.dtd"
   xmlns:inkscape="http://www.inkscape.org/namespaces/inkscape"
   width="744.09448819"
   height="1052.3622047"
   id="svg2"
   version="1.1"
   inkscape:version="0.48.5 r10040"
   sodipodi:docname="sawatantra5.svg">
  <defs
     id="defs4">
    <linearGradient
       inkscape:collect="always"
       id="linearGradient4124">
      <stop
         style="stop-color:#0b89b1;stop-opacity:1;"
         offset="0"
         id="stop4126" />
      <stop
         style="stop-color:#0b89b1;stop-opacity:0;"
         offset="1"
         id="stop4128" />
    </linearGradient>
    <filter
       inkscape:collect="always"
       id="filter3800">
      <feGaussianBlur
         inkscape:collect="always"
         stdDeviation="2.3523919"
         id="feGaussianBlur3802" />
    </filter>
    <filter
       inkscape:collect="always"
       id="filter3818">
      <feGaussianBlur
         inkscape:collect="always"
         stdDeviation="4.7047838"
         id="feGaussianBlur3820" />
    </filter>
    <linearGradient
       inkscape:collect="always"
       xlink:href="#linearGradient4124"
       id="linearGradient4130"
       x1="-137.14282"
       y1="388.07648"
       x2="447.14285"
       y2="385.21933"
       gradientUnits="userSpaceOnUse"
       gradientTransform="translate(5.5953308e-8,0.0609154)" />
    <linearGradient
       inkscape:collect="always"
       xlink:href="#linearGradient4124"
       id="linearGradient4162"
       gradientUnits="userSpaceOnUse"
       x1="-137.14282"
       y1="388.07648"
       x2="447.14285"
       y2="385.21933"
       gradientTransform="translate(5.5953308e-8,0.0609154)" />
    <linearGradient
       inkscape:collect="always"
       xlink:href="#linearGradient4124"
       id="linearGradient4164"
       gradientUnits="userSpaceOnUse"
       x1="-137.14282"
       y1="388.07648"
       x2="447.14285"
       y2="385.21933"
       gradientTransform="translate(0.0087775,0.06027805)" />
    <linearGradient
       inkscape:collect="always"
       xlink:href="#linearGradient4124"
       id="linearGradient4166"
       gradientUnits="userSpaceOnUse"
       x1="-137.14282"
       y1="388.07648"
       x2="447.14285"
       y2="385.21933"
       gradientTransform="translate(0.0087775,0.06027805)" />
    <linearGradient
       inkscape:collect="always"
       xlink:href="#linearGradient4124"
       id="linearGradient4168"
       gradientUnits="userSpaceOnUse"
       x1="-137.14282"
       y1="388.07648"
       x2="447.14285"
       y2="385.21933"
       gradientTransform="translate(0.01725636,0.11851594)" />
    <linearGradient
       inkscape:collect="always"
       xlink:href="#linearGradient4124"
       id="linearGradient4172"
       gradientUnits="userSpaceOnUse"
       x1="-137.14282"
       y1="388.07648"
       x2="447.14285"
       y2="385.21933"
       gradientTransform="translate(0.00194478,0.01335699)" />
    <linearGradient
       inkscape:collect="always"
       xlink:href="#linearGradient4124"
       id="linearGradient4174"
       gradientUnits="userSpaceOnUse"
       x1="-137.14282"
       y1="388.07648"
       x2="447.14285"
       y2="385.21933"
       gradientTransform="translate(0.0087775,0.06027805)" />
    <linearGradient
       inkscape:collect="always"
       xlink:href="#linearGradient4124"
       id="linearGradient4176"
       gradientUnits="userSpaceOnUse"
       x1="-137.14282"
       y1="388.07648"
       x2="447.14285"
       y2="385.21933"
       gradientTransform="translate(5.5953308e-8,0.0609154)" />
    <linearGradient
       inkscape:collect="always"
       xlink:href="#linearGradient4124"
       id="linearGradient4178"
       gradientUnits="userSpaceOnUse"
       x1="-137.14282"
       y1="388.07648"
       x2="447.14285"
       y2="385.21933"
       gradientTransform="translate(0.0087775,0.06027805)" />
    <linearGradient
       inkscape:collect="always"
       xlink:href="#linearGradient4124"
       id="linearGradient4180"
       gradientUnits="userSpaceOnUse"
       x1="-137.14282"
       y1="388.07648"
       x2="447.14285"
       y2="385.21933"
       gradientTransform="translate(0.0087775,0.06027805)" />
    <linearGradient
       inkscape:collect="always"
       xlink:href="#linearGradient4124"
       id="linearGradient4182"
       gradientUnits="userSpaceOnUse"
       x1="-137.14282"
       y1="388.07648"
       x2="447.14285"
       y2="385.21933"
       gradientTransform="translate(0.01725636,0.11851594)" />
    <linearGradient
       inkscape:collect="always"
       xlink:href="#linearGradient4124"
       id="linearGradient4186"
       gradientUnits="userSpaceOnUse"
       x1="-137.14282"
       y1="388.07648"
       x2="447.14285"
       y2="385.21933"
       gradientTransform="translate(0.00194478,0.01335699)" />
    <linearGradient
       inkscape:collect="always"
       xlink:href="#linearGradient4124"
       id="linearGradient4188"
       gradientUnits="userSpaceOnUse"
       x1="-137.14282"
       y1="388.07648"
       x2="447.14285"
       y2="385.21933"
       gradientTransform="translate(0.0087775,0.06027805)" />
    <linearGradient
       inkscape:collect="always"
       xlink:href="#linearGradient4124"
       id="linearGradient4190"
       gradientUnits="userSpaceOnUse"
       x1="-137.14282"
       y1="388.07648"
       x2="447.14285"
       y2="385.21933"
       gradientTransform="translate(5.5953308e-8,0.0609154)" />
  </defs>
  <sodipodi:namedview
     id="base"
     pagecolor="#ffffff"
     bordercolor="#666666"
     borderopacity="1.0"
     inkscape:pageopacity="0.0"
     inkscape:pageshadow="2"
     inkscape:zoom="0.35"
     inkscape:cx="636.39179"
     inkscape:cy="759.03467"
     inkscape:document-units="px"
     inkscape:current-layer="g4333"
     showgrid="false"
     showguides="true"
     inkscape:guide-bbox="true"
     inkscape:window-width="1366"
     inkscape:window-height="648"
     inkscape:window-x="0"
     inkscape:window-y="27"
     inkscape:window-maximized="1" />
  <metadata
     id="metadata7">
    <rdf:RDF>
      <cc:Work
         rdf:about="">
        <dc:format>image/svg+xml</dc:format>
        <dc:type
           rdf:resource="http://purl.org/dc/dcmitype/StillImage" />
        <dc:title></dc:title>
      </cc:Work>
    </rdf:RDF>
  </metadata>
  <g
     inkscape:label="Layer 1"
     inkscape:groupmode="layer"
     id="layer1">
    <g
       id="g4069"
       style="fill:#66d4f8;fill-opacity:1"
       transform="translate(466.69048,42.426407)">
      <g
         style="fill:#66d4f8;fill-opacity:1"
         id="g4051">
        <g
           id="g4210"
           inkscape:export-filename="/home/bibin/Pictures/illustarion/logos/sawantra5.png"
           inkscape:export-xdpi="90"
           inkscape:export-ydpi="90">
          <g
             id="g4306">
            <g
               id="g4196"
               transform="translate(6,0)">
              <g
                 style="fill:#66d4f8;fill-opacity:1"
                 id="g3969"
                 inkscape:label="Layer 1"
                 transform="matrix(0.98956498,0.14408732,-0.14408732,0.98956498,821.50085,318.06016)">
                <g
                   style="fill:#66d4f8;fill-opacity:1"
                   transform="translate(506.78643,443.90289)"
                   id="g3971">
                  <g
                     style="fill:#66d4f8;fill-opacity:1"
                     transform="translate(1012.7887,-473.47806)"
                     id="g3973" />
                </g>
                <g
                   style="fill:#66d4f8;fill-opacity:1"
                   transform="matrix(0.50862776,0,0,0.50862776,-424.28389,103.17621)"
                   id="g3975" />
                <g
                   style="fill:#66d4f8;fill-opacity:1"
                   transform="matrix(4.5130802,0,0,4.5130802,-867.8,-490.96778)"
                   id="g3977" />
              </g>
              <g
                 id="g4333">
                <g
                   id="g4296"
                   transform="translate(322.85714,208.57143)" />
                <g
                   id="g4370">
                  <rect
                     transform="translate(-472.69048,-42.426407)"
                     y="-4.7806745"
                     x="-14.285714"
                     height="602.85712"
                     width="1465.7142"
                     id="rect4368"
                     style="fill:#ffffff;fill-opacity:1;stroke:none;stroke-width:12.39999961999999911;stroke-linecap:round;stroke-linejoin:round;stroke-miterlimit:4;stroke-opacity:1;stroke-dasharray:none;stroke-dashoffset:0" />
                  <g
                     id="g4352">
                    <text
                       sodipodi:linespacing="125%"
                       id="text2985"
                       y="453.39148"
                       x="-27.85244"
                       style="fill:#66d4f8;fill-opacity:1;font-size:186.27275084999999422px;font-style:normal;font-variant:normal;font-weight:bold;font-stretch:normal;line-height:125%;letter-spacing:0px;word-spacing:0px;stroke:none;font-family:Rodi de Asis;-inkscape-font-specification:Rodi de Asis Bold"
                       xml:space="preserve"
                       transform="translate(-6,0)"><tspan
                         style="font-style:normal;font-variant:normal;font-weight:bold;font-stretch:normal;fill:#66d4f8;fill-opacity:1;font-family:Rodi de Asis;-inkscape-font-specification:Rodi de Asis Bold"
                         y="453.39148"
                         x="-27.85244"
                         id="tspan2987"
                         sodipodi:role="line">Swatantra </tspan></text>
                    <text
                       xml:space="preserve"
                       style="fill:#26d0ff;fill-opacity:1;font-size:186.27275084999999422px;font-style:normal;font-variant:normal;font-weight:bold;font-stretch:normal;line-height:125%;letter-spacing:0px;word-spacing:0px;stroke:none;font-family:Rodi de Asis;-inkscape-font-specification:Rodi de Asis Bold"
                       x="-27.85244"
                       y="453.39148"
                       id="text3965"
                       sodipodi:linespacing="125%"
                       transform="translate(-6,0)"><tspan
                         sodipodi:role="line"
                         id="tspan3967"
                         x="-27.85244"
                         y="453.39148"
                         style="font-style:normal;font-variant:normal;font-weight:bold;font-stretch:normal;fill:#26d0ff;fill-opacity:1;font-family:Rodi de Asis;-inkscape-font-specification:Rodi de Asis Bold">Swatantra </tspan></text>
                    <g
                       style="fill:#26d0ff;fill-opacity:1"
                       id="layer1-4"
                       inkscape:label="Layer 1"
                       transform="matrix(0.98956498,0.14408732,-0.14408732,0.98956498,750.72648,508.92674)">
                      <g
                         style="fill:#26d0ff;fill-opacity:1"
                         transform="translate(506.78643,443.90289)"
                         id="g3160">
                        <g
                           style="fill:#26d0ff;fill-opacity:1"
                           transform="translate(1012.7887,-473.47806)"
                           id="g3327" />
                      </g>
                      <g
                         style="fill:#26d0ff;fill-opacity:1"
                         transform="matrix(0.50862776,0,0,0.50862776,-424.28389,103.17621)"
                         id="g3236" />
                      <g
                         style="fill:#26d0ff;fill-opacity:1"
                         transform="matrix(4.5130802,0,0,4.5130802,-867.8,-490.96778)"
                         id="g4375">
                        <path
                           style="fill:#26d0ff;fill-opacity:1"
                           inkscape:connector-curvature="0"
                           d="m -6.2325048,82.37835 c -2.2962578,0 -4.1582082,1.861948 -4.1582082,4.158205 0,2.296257 1.8619504,4.155589 4.1582082,4.155589 2.2953847,0 4.1573345,-1.859332 4.1573345,-4.155589 0,-2.296257 -1.8619498,-4.158205 -4.1573345,-4.158205 z m 32.1728908,34.54588 c 0.853791,-0.18402 1.77299,0.15785 1.952643,1.07618 0.68897,3.52244 -5.191645,2.95906 -7.088479,2.6669 -2.114858,-0.32704 -4.346581,-0.56686 -6.204171,-1.71892 -1.763397,-1.09275 -3.140456,-2.65731 -4.402391,-4.2803 -0.164828,-0.21279 -1.8192194,-2.69219 -1.7346251,-2.72097 -2.8064345,0.9253 -5.9355578,1.65875 -8.28762516,3.53204 -0.72559349,0.5782 -1.44682734,1.21396 -1.72764644,2.12618 -0.3854714,1.25322 -0.085467,2.74714 -0.00256,4.03088 0.095933,1.48172 0.2023317,2.96342 0.4255886,4.43292 0.14302285,0.94449 0.38721815,2.1698 -0.4194823,2.89889 -0.738673,0.66803 -2.1340432,0.31395 -2.7366722,-0.4003 -0.4447744,-0.5285 -0.4308218,-1.22967 -0.4482606,-1.88288 -0.061063,-2.49597 -0.5049497,-4.96142 -0.7674568,-7.43908 -0.1491297,-1.40932 -0.3444821,-2.88231 0.1552352,-4.24628 0.4787845,-1.30118 1.3665926,-2.38347 2.1628278,-3.5015 0.4456467,-0.62793 1.1686209,-1.16863 1.7119407,-1.71195 1.07705419,-1.07706 2.15846812,-2.15847 3.2372622,-3.23727 l 1.6997352,-1.79915 -5.8989264,-6.048923 c 0.2241299,0.2311 -2.4366681,3.454403 -2.7532449,3.800633 -2.6180608,2.85964 -7.2323818,4.60472 -10.8690678,2.6076 -0.479659,-0.26512 -0.981115,-0.56948 -1.425022,-0.93141 -0.1875,0.96193 -0.375006,1.92474 -0.586924,2.88056 l -0.165701,0.75351 c -0.490124,2.27096 -1.164261,5.38177 -2.602369,7.23412 -1.152049,1.48346 -2.915452,2.33725 -4.736412,2.33725 -0.265994,0 -0.533728,-0.0183 -0.800595,-0.0541 -1.943083,-0.2712 -3.488456,-1.48604 -4.238467,-3.33752 -3.106446,-7.66408 0.301751,-16.649393 4.529727,-22.503848 1.793048,-2.48376 4.013431,-4.896007 6.606208,-7.17395 3.212837,-2.827369 6.780628,-5.175953 10.2298089,-7.446919 1.1128112,-0.73257 2.224743,-1.464268 3.3270885,-2.215152 3.3061572,-2.244802 5.10357185,-5.741951 7.0065055,-9.444916 C 18.438253,37.999133 103.96832,68.552937 132.69473,40.55305 l -0.60897,1.481807 C 100.07439,69.53789 16.733874,38.472018 1.1354037,66.767841 c -1.47211845,2.863126 -2.6347928,5.81399 -4.9118658,8.194842 1.3447882,0.962806 5.1801469,2.19002 5.4679457,2.436827 2.4227088,2.062532 4.2218635,4.407628 4.4172158,7.691982 0.1177379,1.975321 -0.5398338,3.854711 -1.0133858,5.741078 -0.061903,0.250295 -0.6802433,1.974447 -0.5311142,2.134045 0,0 7.1320906,7.631805 7.1338366,7.631805 0.810187,0.866 1.609035,1.77998 2.268347,2.77156 1.758171,2.63637 0.535474,5.59282 1.070075,8.48298 0.262507,1.42764 1.097986,2.13579 1.898581,3.25732 0.478784,0.67239 0.957569,1.09449 1.741592,1.46514 1.507002,0.716 3.234648,0.83723 4.876821,0.70554 0.818907,-0.0636 1.624735,-0.19449 2.386958,-0.3567 z M 3.0345011,85.04178 c 0.1936058,-3.719535 -4.5332139,-5.820441 -7.0344104,-7.71204 -0.074999,-0.05843 -0.3889639,-0.321807 -0.732572,-0.581695 -1.058736,0.716872 -1.8444671,0.2487 -2.9101818,0.949873 -1.8635972,0.56607 -7.1244759,3.643741 -10.2099889,6.362099 -2.457599,2.158464 -6.260648,6.390315 -7.947298,8.728433 -14.624327,24.19514 7.704744,32.98281 6.138745,10.07396 l 0.354074,-1.79829 c 0.157855,-0.24855 0.295645,-0.58692 0.564252,-0.73169 0.294772,-0.16047 0.68635,-0.0968 0.971529,0.0567 0.811933,0.42908 1.230542,1.30119 2.014565,1.76079 1.508749,0.88431 4.139022,0.55815 5.6373,-0.18315 1.3700787,-0.67675 2.4384134,-1.88985 3.2119695,-3.186683 0.4569863,-0.77006 0.753498,-1.51485 0.9601898,-2.382587 0.2755866,-1.160774 0.7107677,-1.841891 1.5767707,-2.642486 0.5930295,-0.550298 1.1599015,-1.130251 1.7372329,-1.697993 1.2689195,-1.24624 2.53870632,-2.493353 3.8050002,-3.740465 0.9235652,-0.907903 1.7913083,-1.922163 1.862823,-3.2748 z"
                           id="path4363"
                           sodipodi:nodetypes="sssssccccccccccccccccscccccccccscccccccccccccccccccccccccccccccccccccccccc" />
                      </g>
                    </g>
                    <path
                       transform="translate(322.85714,208.57143)"
                       sodipodi:nodetypes="cccccccc"
                       inkscape:connector-curvature="0"
                       id="path4254"
                       d="m 181.86081,-180.32746 46.16958,69.67858 59.89738,-45.81697 z m 108.10512,26.04832 -60.06692,45.00446 71.87256,104.0588354 z"
                       style="fill:#26d0ff;fill-opacity:1;stroke:none" />
                    <path
                       transform="translate(322.85714,208.57143)"
                       sodipodi:nodetypes="cccccccc"
                       inkscape:connector-curvature="0"
                       style="fill:#26d0ff;fill-opacity:1;stroke:none"
                       d="m 179.90725,-178.84693 45.83912,69.39621 -59.96026,35.505676 z m -12.77265,106.276539 60.05444,-35.143999 72.73199,104.611401 z"
                       id="path4270" />
                    <path
                       style="fill:none;stroke:#26d0ff;stroke-width:11.46583747999999936;stroke-linecap:round;stroke-linejoin:miter;stroke-miterlimit:4;stroke-opacity:1;stroke-dasharray:none"
                       d="m 623.78887,216.66021 c 3.5718,32.34526 -3.00515,64.46881 34.04064,77.15818"
                       id="path4300"
                       inkscape:connector-curvature="0"
                       sodipodi:nodetypes="cc" />
                    <path
                       sodipodi:nodetypes="cc"
                       inkscape:connector-curvature="0"
                       id="path4302"
                       d="m 627.25251,216.60323 c 26.19019,42.58184 42.07722,8.66709 83.38959,42.66584"
                       style="fill:none;stroke:#26d0ff;stroke-width:11.46583747999999936;stroke-linecap:round;stroke-linejoin:miter;stroke-miterlimit:4;stroke-opacity:1;stroke-dasharray:none"
                       inkscape:transform-center-x="-27.176046"
                       inkscape:transform-center-y="-8.635835" />
                  </g>
                </g>
              </g>
            </g>
          </g>
        </g>
      </g>
    </g>
  </g>
</svg>
