<?xml version="1.0" encoding="UTF-8" standalone="no"?>
<!-- Created with Inkscape (http://www.inkscape.org/) -->

<svg
   xmlns:dc="http://purl.org/dc/elements/1.1/"
   xmlns:cc="http://creativecommons.org/ns#"
   xmlns:rdf="http://www.w3.org/1999/02/22-rdf-syntax-ns#"
   xmlns:svg="http://www.w3.org/2000/svg"
   xmlns="http://www.w3.org/2000/svg"
   xmlns:sodipodi="http://sodipodi.sourceforge.net/DTD/sodipodi-0.dtd"
   xmlns:inkscape="http://www.inkscape.org/namespaces/inkscape"
   width="744.09448819"
   height="1052.3622047"
   id="svg2"
   version="1.1"
   inkscape:version="0.48.5 r10040"
   sodipodi:docname="SWATANTRA1.svg">
  <defs
     id="defs4" />
  <sodipodi:namedview
     id="base"
     pagecolor="#ffffff"
     bordercolor="#666666"
     borderopacity="1.0"
     inkscape:pageopacity="0.0"
     inkscape:pageshadow="2"
     inkscape:zoom="0.24748738"
     inkscape:cx="794.9399"
     inkscape:cy="568.71613"
     inkscape:document-units="px"
     inkscape:current-layer="layer1"
     showgrid="false"
     inkscape:window-width="1366"
     inkscape:window-height="648"
     inkscape:window-x="0"
     inkscape:window-y="27"
     inkscape:window-maximized="1"
     showguides="true"
     inkscape:guide-bbox="true" />
  <metadata
     id="metadata7">
    <rdf:RDF>
      <cc:Work
         rdf:about="">
        <dc:format>image/svg+xml</dc:format>
        <dc:type
           rdf:resource="http://purl.org/dc/dcmitype/StillImage" />
        <dc:title />
      </cc:Work>
    </rdf:RDF>
  </metadata>
  <g
     inkscape:label="Layer 1"
     inkscape:groupmode="layer"
     id="layer1">
    <g
       id="g3160"
       transform="translate(506.78643,443.90289)">
      <g
         id="g3327"
         transform="translate(1012.7887,-473.47806)" />
    </g>
    <g
       id="g3236"
       transform="matrix(0.50862776,0,0,0.50862776,-424.28389,103.17621)" />
    <rect
       style="fill:#cccccf;fill-opacity:1;stroke:none"
       id="rect3000"
       width="1715.239"
       height="738.34784"
       x="-68.036186"
       y="-51.027061" />
    <path
       style="fill:#5eb1d5;fill-opacity:1;stroke:none"
       d="M 282.84271,480.61585 404.06102,603.85446 408.10163,496.77829 654.57884,28.067507 513.15749,161.40764 z"
       id="path3780"
       inkscape:connector-curvature="0"
       sodipodi:nodetypes="cccccc" />
    <g
       id="g3533"
       transform="matrix(6.1518214,-0.06159368,0.06159368,6.1518214,47.501377,49.742253)"
       style="fill:#00557e;fill-opacity:1">
      <g
         id="g3519"
         style="fill:#00557e;fill-opacity:1">
        <path
           id="path3521"
           d="m 61.2,74.1 0,-0.6 c -0.330123,-0.06694 65.02762,0.913901 65.02762,0.913901 C 122.74198,65.086882 102.24793,3.2542777 99.601611,-5.6212933 L -11.288984,75.615885 c -0.4,0.3 13.0810176,-3.465735 0.738238,0.01816 L 40.4,76.9 c 0.1,0 0.2,0.1 0.3,0.1 L 57,94.9 c 0.2,0.2 0.5,0.1 0.6,-0.1 l 8.3,-20.2 c 0.1,-0.1 0.1,-0.4 0,-0.4 M 54.5,71.6 c 0,0.1 -0.1,0.3 -0.1,0.4 l 7.092738,20.870191 c 0,0.4 -0.43781,4.37631 -0.73781,4.07631 L 44,72.8 C 43.9,72.7 43.9,72.5 44,72.3 61.277827,51.034107 80.291395,21.131588 97.064103,-0.40505458 z"
           inkscape:connector-curvature="0"
           sodipodi:nodetypes="cccccccccccccccccccc"
           style="fill:#138fcd;fill-opacity:1" />
      </g>
    </g>
    <text
       xml:space="preserve"
       style="font-size:185.91627502000000050px;font-style:normal;font-variant:normal;font-weight:normal;font-stretch:normal;line-height:125%;letter-spacing:0px;word-spacing:0px;fill:#1d1d1d;fill-opacity:1;stroke:none;font-family:Cogs And Bolts;-inkscape-font-specification:Cogs And Bolts"
       x="461.28558"
       y="629.98621"
       id="text3539"
       sodipodi:linespacing="125%"><tspan
         sodipodi:role="line"
         id="tspan3541"
         x="461.28558"
         y="629.98621"
         style="font-style:normal;font-variant:normal;font-weight:normal;font-stretch:normal;font-family:Cogs And Bolts;-inkscape-font-specification:Cogs And Bolts;fill:#1d1d1d;fill-opacity:1">SWATANTRA</tspan></text>
    <path
       style="fill:#087aac;fill-opacity:1;stroke:none"
       d="M -17.591012,514.3693 500.03782,244.60419 321.22851,492.73768 396.98994,598.8037 387.89857,486.67676 522.6078,250.42001 828.32508,498.79859 430,498.07647 l -1.69532,4.00512 29.7995,0 -3.283,240.92138 -153.79572,-223.49625 z"
       id="path3782"
       inkscape:connector-curvature="0"
       sodipodi:nodetypes="ccccccccccccc" />
    <path
       style="opacity:0.30530976;fill:#cccccf;fill-opacity:1;stroke:none"
       d="M 589.92908,672.54483 C 1018.7479,556.7389 1318.0129,518.80312 1616.2441,506.87981 l 8.0812,181.82746 z"
       id="path3786"
       inkscape:connector-curvature="0"
       sodipodi:nodetypes="cccc" />
  </g>
</svg>
