<?xml version="1.0" encoding="UTF-8" standalone="no"?>
<!-- Created with Inkscape (http://www.inkscape.org/) -->

<svg
   xmlns:dc="http://purl.org/dc/elements/1.1/"
   xmlns:cc="http://creativecommons.org/ns#"
   xmlns:rdf="http://www.w3.org/1999/02/22-rdf-syntax-ns#"
   xmlns:svg="http://www.w3.org/2000/svg"
   xmlns="http://www.w3.org/2000/svg"
   xmlns:sodipodi="http://sodipodi.sourceforge.net/DTD/sodipodi-0.dtd"
   xmlns:inkscape="http://www.inkscape.org/namespaces/inkscape"
   width="744.09448819"
   height="1052.3622047"
   id="svg2"
   version="1.1"
   inkscape:version="0.48.5 r10040"
   sodipodi:docname="SWATANTRA1.svg">
  <defs
     id="defs4" />
  <sodipodi:namedview
     id="base"
     pagecolor="#ffffff"
     bordercolor="#666666"
     borderopacity="1.0"
     inkscape:pageopacity="0.0"
     inkscape:pageshadow="2"
     inkscape:zoom="0.24748738"
     inkscape:cx="794.9399"
     inkscape:cy="911.57326"
     inkscape:document-units="px"
     inkscape:current-layer="layer1"
     showgrid="false"
     inkscape:window-width="1366"
     inkscape:window-height="648"
     inkscape:window-x="0"
     inkscape:window-y="27"
     inkscape:window-maximized="1"
     showguides="true"
     inkscape:guide-bbox="true" />
  <metadata
     id="metadata7">
    <rdf:RDF>
      <cc:Work
         rdf:about="">
        <dc:format>image/svg+xml</dc:format>
        <dc:type
           rdf:resource="http://purl.org/dc/dcmitype/StillImage" />
        <dc:title></dc:title>
      </cc:Work>
    </rdf:RDF>
  </metadata>
  <g
     inkscape:label="Layer 1"
     inkscape:groupmode="layer"
     id="layer1">
    <g
       id="g3160"
       transform="translate(506.78643,443.90289)">
      <g
         id="g3327"
         transform="translate(1012.7887,-473.47806)" />
    </g>
    <g
       id="g3236"
       transform="matrix(0.50862776,0,0,0.50862776,-424.28389,103.17621)" />
    <path
       style="fill:#eeeeee;fill-opacity:1;stroke:none"
       d="M 309.09375 -440.34375 L -345.1875 213.9375 L -344 215.125 C -356.63192 288.15149 -356.61102 362.78355 -343.9375 435.8125 C -282.10337 792.12099 60.643568 1031.4712 421.625 970.4375 C 782.60643 909.40382 1025.1154 571.08974 963.28125 214.78125 L 962.40625 214.9375 L 963.40625 213.9375 L 309.09375 -440.34375 z "
       id="rect4380" />
    <text
       xml:space="preserve"
       style="font-size:185.91627502px;font-style:normal;font-variant:normal;font-weight:normal;font-stretch:normal;line-height:125%;letter-spacing:0px;word-spacing:0px;fill:#1d1d1d;fill-opacity:1;stroke:none;font-family:Cogs And Bolts;-inkscape-font-specification:Cogs And Bolts"
       x="-266.0242"
       y="593.62073"
       id="text3539"
       sodipodi:linespacing="125%"><tspan
         sodipodi:role="line"
         id="tspan3541"
         x="-266.0242"
         y="593.62073"
         style="font-style:normal;font-variant:normal;font-weight:normal;font-stretch:normal;fill:#1d1d1d;fill-opacity:1;font-family:Cogs And Bolts;-inkscape-font-specification:Cogs And Bolts">SWATANTRA</tspan></text>
    <path
       style="opacity:0.30530976;fill:#cccccf;fill-opacity:1;stroke:none"
       d="M -137.38074,636.17935 C 291.43805,520.37342 590.70305,482.43764 888.93425,470.51433 l 8.0812,181.82742 z"
       id="path3786"
       inkscape:connector-curvature="0"
       sodipodi:nodetypes="cccc" />
    <g
       id="g4375"
       transform="matrix(4.99116,0,0,4.99116,309.42996,-375.65177)"
       style="fill:#0197fd">
      <path
         id="path4363"
         d="M 0.41007279,29.56932 -10.448787,33.591168 -4.9330672,18.632267 0.41007279,29.56932 z M 12.276073,53.872987 1.4981128,31.802032 -9.8933072,36.022074 12.276073,53.872987 z M -2.6693472,17.909601 2.4769428,28.80351 12.466173,25.102548 -2.6693472,17.909601 z M 14.026113,53.254137 V 27.162683 L 3.5393728,31.047009 14.026113,53.254137 z m 13.9167,21.235036 -0.60133,-0.614805 c -0.75098,-0.761765 -1.53027,-1.550495 -1.87677,-2.343269 -0.72401,-1.657007 -0.99636,-3.638944 -0.80895,-5.894576 0.0297,-0.346502 0.0849,-0.715924 0.14022,-1.097481 0.25212,-1.713634 0.59458,-4.062296 -0.92356,-5.895925 -1.99003,-2.398547 -4.56924,-3.369292 -7.05947,-4.309026 l -1.20534,-0.461104 c 0,0 -1.74869,3.216939 -1.74869,3.215591 0.14966,0.155049 0.50425,0.72671 0.67413,1.003103 0.17662,0.287178 0.33706,0.54065 0.45436,0.707834 1.5478,2.13429 -0.0472,5.217752 -2.00081,8.231105 l 3.11043,2.019687 c 1.32803,-2.046653 3.79534,-5.848735 3.12391,-9.578012 0.67143,0.416611 1.2741,0.908725 1.79318,1.537012 0.46919,0.562223 0.27639,1.852504 0.11055,2.989084 -0.0674,0.462452 -0.13347,0.91277 -0.16988,1.333426 -0.23459,2.873134 0.13483,5.457741 1.10692,7.682364 0.6229,1.426455 1.69341,2.510453 2.63989,3.469063 l 0.55143,0.563571 2.68978,-2.557642 z m -45.39579,0.004 c -3.54996,0 -6.42849,2.878527 -6.42849,6.428485 0,3.549959 2.87853,6.424441 6.42849,6.424441 3.54861,0 6.42714,-2.874482 6.42714,-6.424441 0,-3.549958 -2.87853,-6.428485 -6.42714,-6.428485 z m 49.73852,53.407127 c 1.31994,-0.28449 2.741,0.24403 3.01874,1.66374 1.06513,5.44561 -8.02616,4.57464 -10.95862,4.12297 -3.26952,-0.50559 -6.71971,-0.87636 -9.5915,-2.65741 -2.72617,-1.68937 -4.8550702,-4.10814 -6.8059902,-6.61724 -0.25482,-0.32898 -2.81247,-4.16207 -2.68169,-4.20656 -4.33868001,1.4305 -9.17623,2.56438 -12.81247,5.46044 -1.12175,0.89389 -2.23676,1.87677 -2.6708998,3.28704 -0.59593,1.93745 -0.13213,4.24701 -0.004,6.23165 0.14831,2.29069 0.3127998,4.58137 0.6579498,6.85318 0.22111,1.46017 0.59863,3.35447 -0.6485098,4.48161 -1.14197,1.03276 -3.29918,0.48537 -4.23083,-0.61885 -0.68761,-0.81704 -0.66604,-1.90104 -0.693,-2.91089 -0.0944,-3.85871 -0.78064,-7.67023 -1.18647,-11.50063 -0.23055,-2.17878 -0.53256,-4.45598 0.23999,-6.56465 0.74019,-2.0116 2.11272,-3.68479 3.34368,-5.41325 0.68896,-0.97075 1.80666,-1.80667 2.64662,-2.64663 1.6650998,-1.6651 3.3369398,-3.33693 5.0047298,-5.00473 l 2.62775,-2.78145 -9.1195998,-9.351497 c 0.3465,0.357277 -3.76703,5.340437 -4.25645,5.875697 -4.04746,4.42093 -11.18109,7.11879 -16.80332,4.03128 -0.74154,-0.40987 -1.51678,-0.88041 -2.20305,-1.43994 -0.28987,1.48713 -0.57975,2.97561 -0.90737,4.45329 l -0.25617,1.1649 c -0.75772,3.51086 -1.79992,8.32009 -4.0232,11.18378 -1.78104,2.29339 -4.50722,3.61333 -7.32238,3.61333 -0.41122,0 -0.82513,-0.0283 -1.2377,-0.0836 -3.00396,-0.41926 -5.39307,-2.29739 -6.55257,-5.15973 -4.80249,-11.84848 0.4665,-25.73956 7.00285,-34.790406 2.77201,-3.839834 6.20467,-7.569111 10.21304,-11.090756 4.96697,-4.371046 10.48269,-8.0019 15.81504,-11.51276 1.72038,-1.132535 3.4394,-2.263722 5.1436,-3.42457 5.11124,-3.470412 7.8899998,-8.87692 10.8318898,-14.601615 0.60402,-1.178376 1.20804,-2.354056 1.83633,-3.51086 l 3.26278,1.763519 c -0.61481,1.133884 -1.204,2.287991 -1.79723,3.443447 -2.27586,4.426325 -4.61373,8.964555 -8.1340298,12.645295 2.0790098,1.488475 5.3188698,4.127012 5.7637998,4.508569 3.74545,3.188626 6.5269,6.814087 6.82891,11.89162 0.18202,3.0538 -0.83457001,5.959292 -1.56667001,8.87557 -0.0957,0.38695 -1.05164,3.052452 -0.82109,3.299183 0,0 11.02604021,11.798594 11.02874021,11.798594 1.25253,1.33881 2.48753,2.75179 3.50681,4.28475 2.71809,4.07578 0.82783,8.64637 1.65431,13.11449 0.40583,2.2071 1.69746,3.30188 2.93516,5.03574 0.74019,1.0395 1.48038,1.69206 2.69246,2.26507 2.32979,1.10692 5.00069,1.29433 7.53945,1.09074 1.26601,-0.0984 2.5118,-0.30066 3.69018,-0.55144 z M -3.1264072,78.610792 c 0.29931,-5.750313 -7.0082398,-8.998262 -10.8750298,-11.92263 -0.11595,-0.09033 -0.60133,-0.497506 -1.13254,-0.899286 -1.63678,1.108266 -3.28705,2.196309 -4.93462,3.280307 -5.22719,3.442098 -10.63504,7.001494 -15.40517,11.204009 -3.79939,3.336934 -7.04869,6.861276 -9.65621,10.475951 -5.95525,8.245937 -10.80763,20.776627 -6.5741,31.222917 0.88985,2.19092 2.65337,2.741 3.62816,2.87987 1.89295,0.25752 3.90724,-0.57705 5.12067,-2.13159 1.70555,-2.19361 2.64124,-6.5296 3.3248,-9.69126 l 0.25752,-1.18782 c 0.422,-1.88486 0.79277,-3.78455 1.1595,-5.6802 l 0.54739,-2.78011 c 0.24404,-0.38425 0.45706,-0.90737 0.87232,-1.13118 0.45571,-0.24808 1.06108,-0.14966 1.50196,0.0876 1.25523,0.66334 1.90239,2.0116 3.11447,2.72213 2.33249,1.36713 6.39883,0.86288 8.71513,-0.28314 2.11811,-1.04624 3.76973,-2.92167 4.96563,-4.926527 0.70649,-1.190513 1.16489,-2.341923 1.48443,-3.683433 0.42605,-1.79453 1.09883,-2.84752 2.43765,-4.08522 0.91681,-0.850747 1.79318,-1.747337 2.68572,-2.625052 1.9617198,-1.926658 3.9247798,-3.854665 5.8824398,-5.782671 1.42781,-1.403535 2.76932,-2.971557 2.87988,-5.062702 z"
         inkscape:connector-curvature="0"
         style="fill:#0197fd" />
    </g>
  </g>
</svg>
