<?xml version="1.0" encoding="UTF-8" standalone="no"?>
<!-- Created with Inkscape (http://www.inkscape.org/) -->

<svg
   xmlns:dc="http://purl.org/dc/elements/1.1/"
   xmlns:cc="http://creativecommons.org/ns#"
   xmlns:rdf="http://www.w3.org/1999/02/22-rdf-syntax-ns#"
   xmlns:svg="http://www.w3.org/2000/svg"
   xmlns="http://www.w3.org/2000/svg"
   xmlns:sodipodi="http://sodipodi.sourceforge.net/DTD/sodipodi-0.dtd"
   xmlns:inkscape="http://www.inkscape.org/namespaces/inkscape"
   width="744.09448819"
   height="1052.3622047"
   id="svg2"
   version="1.1"
   inkscape:version="0.48.5 r10040"
   sodipodi:docname="tom_sad.svg"
   inkscape:export-filename="/var/www/html/puzzle_testing_copy/main/images/ben10_sad.png"
   inkscape:export-xdpi="90"
   inkscape:export-ydpi="90">
  <defs
     id="defs4">
    <clipPath
       id="clipPath3076"
       clipPathUnits="userSpaceOnUse">
      <path
         sodipodi:nodetypes="ccccccccccccccccccccccc"
         inkscape:connector-curvature="0"
         id="path3078"
         d="m 174.75639,650.82654 c 84.92056,-50.51059 119.72661,-44.07809 154.04826,-45.45687 -7.15785,-4.96571 -20.56662,-7.84779 -31.31473,-11.61675 50.24033,-11.46893 72.2077,3.64641 90.91373,18.68782 L 368.2006,583.14632 c 57.68215,39.62332 58.99549,52.82377 76.7716,73.74114 1.002,23.94773 1.84171,48.70686 1.51523,79.29697 24.21075,-12.90556 25.36823,0.12382 28.78934,10.6066 -3.90952,61.36657 -7.54876,58.95048 -16.16244,63.13454 -2.95438,4.39703 -6.74053,7.54641 -17.65512,0.003 0.0992,14.95627 -16.43763,32.47192 -33.4759,50.06473 L 390.114,874.38054 365.67522,889.2224 c -55.06995,2.1865 -71.46137,-6.90824 -95.96449,-13.63706 -8.96401,-4.89265 -10.62361,-7.9592 -14.64721,-11.61675 -8.16698,12.15363 -19.79592,14.9105 -37.37565,1.51523 -22.73674,-21.9485 -20.49992,-36.55184 -21.2132,-52.02286 4.10222,-3.16049 8.67508,-6.24254 20.70813,-8.08122 -36.56621,-51.25975 -33.82767,-54.14441 -36.87057,-64.14469 1.64794,-19.65192 8.7762,-26.9731 15.65736,-34.85026 l -44.95178,22.22336 c 13.73422,-25.08532 27.27185,-50.17077 64.64976,-75.25623 -14.47951,0.84311 -27.75721,-0.71741 -40.91118,-2.52538 z"
         style="fill:none;stroke:#000000;stroke-width:1px;stroke-linecap:butt;stroke-linejoin:miter;stroke-opacity:1" />
    </clipPath>
    <clipPath
       id="clipPath34038"
       clipPathUnits="userSpaceOnUse">
      <path
         inkscape:connector-curvature="0"
         id="path34040"
         d="m -208.32061,755.38392 147.14286,-17.85714 103.57143,-55 c 0,0 77.14286,105 80,107.14286 2.85714,2.14286 37.85714,152.85714 37.85714,152.85714 l -299.28571,20 z"
         style="fill:none;stroke:#000000;stroke-width:1px;stroke-linecap:butt;stroke-linejoin:miter;stroke-opacity:1" />
    </clipPath>
    <clipPath
       id="clipPath3076-5"
       clipPathUnits="userSpaceOnUse">
      <path
         sodipodi:nodetypes="ccccccccccccccccccccccc"
         inkscape:connector-curvature="0"
         id="path3078-3"
         d="m 174.75639,650.82654 c 84.92056,-50.51059 119.72661,-44.07809 154.04826,-45.45687 -7.15785,-4.96571 -20.56662,-7.84779 -31.31473,-11.61675 50.24033,-11.46893 72.2077,3.64641 90.91373,18.68782 L 368.2006,583.14632 c 57.68215,39.62332 58.99549,52.82377 76.7716,73.74114 1.002,23.94773 1.84171,48.70686 1.51523,79.29697 24.21075,-12.90556 25.36823,0.12382 28.78934,10.6066 -3.90952,61.36657 -7.54876,58.95048 -16.16244,63.13454 -2.95438,4.39703 -6.74053,7.54641 -17.65512,0.003 0.0992,14.95627 -16.43763,32.47192 -33.4759,50.06473 L 390.114,874.38054 365.67522,889.2224 c -55.06995,2.1865 -71.46137,-6.90824 -95.96449,-13.63706 -8.96401,-4.89265 -10.62361,-7.9592 -14.64721,-11.61675 -8.16698,12.15363 -19.79592,14.9105 -37.37565,1.51523 -22.73674,-21.9485 -20.49992,-36.55184 -21.2132,-52.02286 4.10222,-3.16049 8.67508,-6.24254 20.70813,-8.08122 -36.56621,-51.25975 -33.82767,-54.14441 -36.87057,-64.14469 1.64794,-19.65192 8.7762,-26.9731 15.65736,-34.85026 l -44.95178,22.22336 c 13.73422,-25.08532 27.27185,-50.17077 64.64976,-75.25623 -14.47951,0.84311 -27.75721,-0.71741 -40.91118,-2.52538 z"
         style="fill:none;stroke:#000000;stroke-width:1px;stroke-linecap:butt;stroke-linejoin:miter;stroke-opacity:1" />
    </clipPath>
    <clipPath
       id="clipPath3060"
       clipPathUnits="userSpaceOnUse">
      <path
         sodipodi:nodetypes="cccccccccc"
         inkscape:connector-curvature="0"
         id="path3062-7"
         d="m 278.8021,642.24025 c 31.63839,-1.492 64.23955,-2.2138 82.83252,-14.14214 42.9858,1.60219 90.25702,-11.72377 106.06601,-23.2335 10.5121,6.84949 31.62705,3.44035 39.39594,-3.03046 L 870.75149,522.0321 673.77175,76.554824 153.54319,46.250247 39.395949,285.6564 -52.527932,668.50422 z"
         style="fill:none;stroke:#000000;stroke-width:1px;stroke-linecap:butt;stroke-linejoin:miter;stroke-opacity:1" />
    </clipPath>
    <clipPath
       id="clipPath3076-2"
       clipPathUnits="userSpaceOnUse">
      <path
         sodipodi:nodetypes="ccccccccccccccccccccccc"
         inkscape:connector-curvature="0"
         id="path3078-7"
         d="m 174.75639,650.82654 c 84.92056,-50.51059 119.72661,-44.07809 154.04826,-45.45687 -7.15785,-4.96571 -20.56662,-7.84779 -31.31473,-11.61675 50.24033,-11.46893 72.2077,3.64641 90.91373,18.68782 L 368.2006,583.14632 c 57.68215,39.62332 58.99549,52.82377 76.7716,73.74114 1.002,23.94773 1.84171,48.70686 1.51523,79.29697 24.21075,-12.90556 25.36823,0.12382 28.78934,10.6066 -3.90952,61.36657 -7.54876,58.95048 -16.16244,63.13454 -2.95438,4.39703 -6.74053,7.54641 -17.65512,0.003 0.0992,14.95627 -16.43763,32.47192 -33.4759,50.06473 L 390.114,874.38054 365.67522,889.2224 c -55.06995,2.1865 -71.46137,-6.90824 -95.96449,-13.63706 -8.96401,-4.89265 -10.62361,-7.9592 -14.64721,-11.61675 -8.16698,12.15363 -19.79592,14.9105 -37.37565,1.51523 -22.73674,-21.9485 -20.49992,-36.55184 -21.2132,-52.02286 4.10222,-3.16049 8.67508,-6.24254 20.70813,-8.08122 -36.56621,-51.25975 -33.82767,-54.14441 -36.87057,-64.14469 1.64794,-19.65192 8.7762,-26.9731 15.65736,-34.85026 l -44.95178,22.22336 c 13.73422,-25.08532 27.27185,-50.17077 64.64976,-75.25623 -14.47951,0.84311 -27.75721,-0.71741 -40.91118,-2.52538 z"
         style="fill:none;stroke:#000000;stroke-width:1px;stroke-linecap:butt;stroke-linejoin:miter;stroke-opacity:1" />
    </clipPath>
  </defs>
  <sodipodi:namedview
     id="base"
     pagecolor="#ffffff"
     bordercolor="#666666"
     borderopacity="1.0"
     inkscape:pageopacity="0.0"
     inkscape:pageshadow="2"
     inkscape:zoom="0.49497475"
     inkscape:cx="-9.037444"
     inkscape:cy="802.84271"
     inkscape:document-units="px"
     inkscape:current-layer="g4830"
     showgrid="false"
     inkscape:window-width="1920"
     inkscape:window-height="1014"
     inkscape:window-x="0"
     inkscape:window-y="27"
     inkscape:window-maximized="1" />
  <metadata
     id="metadata7">
    <rdf:RDF>
      <cc:Work
         rdf:about="">
        <dc:format>image/svg+xml</dc:format>
        <dc:type
           rdf:resource="http://purl.org/dc/dcmitype/StillImage" />
        <dc:title></dc:title>
      </cc:Work>
    </rdf:RDF>
  </metadata>
  <g
     inkscape:label="Layer 1"
     inkscape:groupmode="layer"
     id="layer1">
    <g
       transform="translate(-41,-402.42857)"
       id="layer1-3"
       inkscape:label="Layer 1">
      <g
         id="g4682"
         inkscape:export-filename="/var/www/html/puzzle_testing_copy/main/images/micki_happy.png"
         inkscape:export-xdpi="90"
         inkscape:export-ydpi="90"
         transform="translate(251.52798,-2.0203055)">
        <rect
           style="opacity:0.6;fill:#1c3e63;fill-opacity:1;stroke:none"
           id="rect4614"
           width="800"
           height="500"
           x="-340.54929"
           y="312.1727"
           inkscape:export-filename="/var/www/html/puzzle_testing_copy/main/images/tom_happy.png"
           inkscape:export-xdpi="90"
           inkscape:export-ydpi="90" />
      </g>
      <g
         transform="translate(367.30983,116.04772)"
         id="layer1-36"
         inkscape:label="Layer 1">
        <g
           inkscape:export-ydpi="90"
           inkscape:export-xdpi="90"
           inkscape:export-filename="/var/www/html/puzzle_testing/main/images/micki_happy.png"
           transform="matrix(0.81282004,0,0,0.81282004,-22.8189,3.3623137)"
           id="g4830">
          <path
             transform="translate(642,820.36218)"
             d="m -468,448 c 0,37.55536 -31.78778,68 -71,68 -39.21222,0 -71,-30.44464 -71,-68 0,-37.55536 31.78778,-68 71,-68 39.21222,0 71,30.44464 71,68 z"
             sodipodi:ry="68"
             sodipodi:rx="71"
             sodipodi:cy="448"
             sodipodi:cx="-539"
             id="path4815"
             style="fill:#ffffff;fill-opacity:1;stroke:none"
             sodipodi:type="arc" />
          <g
             transform="translate(669.88758,-670.77976)"
             id="g4759"
             inkscape:export-filename="/var/www/html/puzzle_testing_copy/main/images/micki_happy.png"
             inkscape:export-xdpi="90"
             inkscape:export-ydpi="90">
            <g
               id="g4752">
              <path
                 inkscape:connector-curvature="0"
                 id="path4744"
                 d="m -725.41614,1432.1755 c -11.75615,-3.4307 -21.35162,-9.6315 -32.33584,-20.8963 -5.50663,-5.6472 -6.09658,-5.991 -10.8896,-6.3452 -32.88095,-2.4297 -71.59822,-24.6149 -88.71386,-50.8334 -10.17431,-15.5855 -12.88449,-30.4876 -8.03026,-44.155 1.5523,-4.3706 1.53324,-4.8013 -0.59266,-13.3962 -4.50117,-18.198 -4.17286,-43.8411 0.79868,-62.3815 3.87393,-14.447 13.2354,-36.366 18.97331,-44.4242 2.35634,-3.3092 2.88161,-6.3631 1.00467,-5.8411 -0.78121,0.2173 -5.97962,0.5833 -11.55203,0.8133 -8.89101,0.3671 -11.19986,0.1119 -18.85512,-2.084 -52.14197,-14.9567 -75.82684,-75.0406 -49.96961,-126.763 8.07531,-16.1531 23.06313,-33.1449 38.15999,-43.2622 43.29211,-29.01265 95.86144,-22.05536 121.78418,16.1176 5.27549,7.7685 7.94006,13.8226 10.819,24.5816 4.9917,18.6548 2.0093,42.5859 -7.71185,61.8808 -1.27247,2.5256 -2.05652,4.8491 -1.74236,5.1632 0.31416,0.3142 3.21909,-0.1687 6.45538,-1.073 15.93787,-4.4537 20.98863,-5.5325 31.91872,-6.8177 14.69847,-1.7283 24.15705,-1.734 36.93574,-0.022 14.41088,1.9303 22.51918,3.7905 30.42239,6.9794 3.83956,1.5492 7.28077,2.5403 7.64717,2.2023 0.36638,-0.3379 -0.8386,-4.6205 -2.67774,-9.5168 -4.34198,-11.5597 -6.03744,-20.7166 -6.03648,-32.6021 0.003,-39.1701 25.22666,-73.4463 62.21519,-84.54405 11.43819,-3.43178 30.67,-3.65865 42.89231,-0.50594 28.36053,7.31549 50.22886,28.29039 61.8571,59.32969 4.61014,12.3059 5.54122,18.5408 5.51488,36.93 -0.0221,15.4038 -0.25518,17.8342 -2.42161,25.2472 -4.52262,15.4753 -10.92671,26.4342 -21.80376,37.3113 -12.22491,12.2249 -23.83179,18.5397 -41.54825,22.6047 -7.50751,1.7226 -20.24385,1.9291 -27.18396,0.4407 -2.66562,-0.5717 -5.11282,-0.7732 -5.43824,-0.4477 -0.32542,0.3254 1.80295,5.1608 4.7297,10.7453 14.36078,27.4017 20.44669,52.2687 19.41841,79.3436 -0.53372,14.0532 -2.63812,24.3994 -6.94244,34.1322 -2.71053,6.129 -2.76522,7.3801 -0.69555,15.9096 3.85346,15.8808 -3.25052,33.7233 -20.01383,50.2672 -15.56541,15.3617 -36.1114,26.8672 -61.69423,34.5481 -8.28663,2.4879 -9.14318,2.9971 -15.22527,9.0511 -12.38397,12.3266 -22.92494,18.8039 -36.05828,22.1571 -9.15734,2.3381 -15.7844,2.3821 -23.41399,0.1557 z m -20.35881,-154.8462 c 0,-0.2183 -0.68617,-3.0754 -1.52484,-6.349 -2.07821,-8.112 -1.46655,-21.433 1.26329,-27.5127 2.59865,-5.7874 6.10382,-7.7741 10.47406,-5.9366 1.69039,0.7108 3.32554,1.9493 3.63368,2.7523 1.09226,2.8464 2.25148,1.4009 2.25148,-2.8074 0,-5.7387 -2.52814,-22.4421 -4.36424,-28.8344 -2.4145,-8.406 -5.71795,-14.1244 -8.57357,-14.8411 -1.37833,-0.3459 -3.1858,-0.2049 -4.01661,0.3133 -3.01535,1.8811 -6.76805,9.5075 -9.23165,18.761 -2.24373,8.4277 -2.52735,11.2599 -2.60637,26.0278 -0.0856,16.001 0.007,16.8389 2.66906,24.354 2.57216,7.259 7.13075,14.4698 9.14773,14.4698 0.48289,0 0.87798,-0.1786 0.87798,-0.397 z m 61.1225,-12.3671 c 5.10593,-10.4477 6.45985,-17.1237 6.43733,-31.7412 -0.0204,-13.2205 -1.15535,-20.1134 -5.00676,-30.4072 -2.17959,-5.8255 -6.87513,-11.2573 -9.73137,-11.2573 -5.09703,0 -10.18907,11.1843 -12.69806,27.8905 -1.29768,8.6406 -1.73504,19.4555 -0.78681,19.4555 0.28219,0 1.42782,-0.8522 2.54586,-1.8938 4.1629,-3.8784 9.05146,-1.6188 11.77618,5.4432 2.22835,5.7754 2.29759,22.3818 0.1183,28.3742 -0.79797,2.1942 -1.21815,4.2221 -0.93373,4.5066 1.0954,1.0953 5.16974,-4.0082 8.27906,-10.3705 z"
                 style="fill:#fdc6ab" />
              <path
                 inkscape:connector-curvature="0"
                 id="path4742"
                 d="m -724.41614,1431.1829 c -11.75615,-3.4152 -21.35162,-9.5879 -32.33584,-20.8017 -5.50663,-5.6216 -6.09658,-5.9638 -10.8896,-6.3164 -32.88095,-2.4187 -71.59822,-24.5034 -88.71386,-50.6032 -10.17431,-15.5149 -12.88449,-30.3495 -8.03026,-43.955 1.5523,-4.3508 1.53324,-4.7796 -0.59266,-13.3355 -4.50117,-18.1156 -4.17286,-43.6425 0.79868,-62.0989 3.87393,-14.3817 13.2354,-36.2014 18.97331,-44.223 2.35634,-3.2943 2.88161,-6.3343 1.00467,-5.8148 -0.78121,0.2164 -5.97962,0.5807 -11.55203,0.8097 -8.89101,0.3654 -11.19986,0.1114 -18.85512,-2.0746 -52.14197,-14.889 -75.82684,-74.7007 -49.96961,-126.1888 8.07531,-16.0799 23.06313,-32.9948 38.15999,-43.0663 43.29211,-28.88124 95.86144,-21.95546 121.78418,16.0446 5.27549,7.7333 7.94006,13.7599 10.819,24.4703 4.9917,18.5703 2.0093,42.393 -7.71185,61.6005 -1.27247,2.5142 -2.05652,4.8272 -1.74236,5.1398 0.31416,0.3128 3.21909,-0.1679 6.45538,-1.0682 15.93787,-4.4335 20.98863,-5.5074 31.91872,-6.7868 14.69847,-1.7204 24.15705,-1.7261 36.93574,-0.022 14.41088,1.9216 22.51918,3.7734 30.42239,6.9479 3.83956,1.5421 7.28077,2.5288 7.64717,2.1923 0.36638,-0.3364 -0.8386,-4.5997 -2.67774,-9.4738 -4.34198,-11.5073 -6.03744,-20.6227 -6.03648,-32.4544 0.003,-38.9926 25.22666,-73.1136 62.21519,-84.16115 11.43819,-3.41617 30.67,-3.64208 42.89231,-0.50366 28.36053,7.28241 50.22886,28.16231 61.8571,59.06101 4.61014,12.2502 5.54122,18.4568 5.51488,36.7628 -0.0221,15.3339 -0.25518,17.7534 -2.42161,25.1328 -4.52262,15.4052 -10.92671,26.3145 -21.80376,37.1423 -12.22491,12.1695 -23.83179,18.4557 -41.54825,22.5024 -7.50751,1.7148 -20.24385,1.9203 -27.18396,0.4386 -2.66562,-0.569 -5.11282,-0.7697 -5.43824,-0.4457 -0.32542,0.324 1.80295,5.1375 4.7297,10.6967 14.36078,27.2776 20.44669,52.0319 19.41841,78.9842 -0.53372,13.9896 -2.63812,24.289 -6.94244,33.9777 -2.71053,6.1012 -2.76522,7.3466 -0.69555,15.8375 3.85346,15.8088 -3.25052,33.5706 -20.01383,50.0395 -15.56541,15.2922 -36.1114,26.7455 -61.69423,34.3917 -8.28663,2.4766 -9.14318,2.9835 -15.22527,9.0101 -12.38397,12.2708 -22.92494,18.7187 -36.05828,22.0567 -9.15734,2.3275 -15.7844,2.3713 -23.41399,0.155 z m 30.50819,-9.2329 c 11.08173,-4.7239 20.18191,-11.9535 34.59141,-27.4812 6.80588,-7.3338 9.95677,-8.5556 9.43591,-3.6586 l -0.2713,2.5506 7.37321,-3.3391 c 34.01495,-15.4043 57.65001,-33.7803 66.00427,-51.3173 2.71555,-5.7004 2.91882,-6.8558 2.91882,-16.5912 0,-10.1008 -0.11501,-10.6879 -3.31422,-16.9192 -7.76853,-15.1312 -25.784,-22.3579 -46.83637,-18.7879 -4.95063,0.8395 -9.4342,1.2599 -9.96349,0.9343 -1.54587,-0.9511 -1.1265,-3.8282 1.38059,-9.4715 14.44878,-32.5232 15.46894,-70.5012 2.69316,-100.2596 -5.81979,-13.5559 -10.53133,-20.5775 -20.6603,-30.7899 -8.05211,-8.1184 -10.72645,-10.1647 -17.87012,-13.6743 -7.67124,-3.7687 -9.02831,-4.1293 -15.62421,-4.1519 -6.20018,-0.021 -7.8505,0.3425 -11.65146,2.5667 -7.89215,4.6184 -13.90019,14.024 -17.62272,27.5882 -1.42303,5.1853 -2.21919,6.6444 -3.74946,6.872 -1.6545,0.2459 -2.30871,-0.8051 -4.40879,-7.0825 -8.38383,-25.0604 -24.13186,-32.0963 -46.84953,-20.9314 -20.42304,10.0371 -37.23866,34.0476 -45.16373,64.4877 -3.02634,11.6242 -4.20172,35.9009 -2.35574,48.6562 1.24068,8.5726 5.15717,23.2687 7.33511,27.524 0.74734,1.4602 1.2267,3.7932 1.06525,5.1845 -0.29245,2.52 -0.33153,2.532 -10.23624,3.1462 -14.66368,0.9093 -23.34336,4.4389 -31.8994,12.9717 -11.55012,11.5187 -12.31495,28.6378 -2.05744,46.0517 4.70214,7.9825 19.61384,22.5226 30.16916,29.4173 13.61223,8.8914 39.78992,20.7519 51.02384,23.1178 l 3.20432,0.6748 -2.57222,-3.3571 c -2.63782,-3.4427 -2.91377,-6.2676 -0.68442,-7.0066 0.7017,-0.2326 7.25696,5.5695 14.82171,13.1188 20.07202,20.0309 27.07237,23.674 44.52311,23.1706 9.15046,-0.2638 11.24669,-0.6544 17.25129,-3.2138 z m -33.68289,-3.1197 c -12.97285,-4.6457 -22.50399,-14.1849 -39.15458,-39.1877 l -11.88303,-17.8437 -8.91386,-5.7918 c -9.71177,-6.3104 -20.26405,-16.1187 -26.48536,-24.6182 -2.178,-2.9755 -4.08321,-5.5645 -4.23378,-5.7533 -0.51174,-0.6414 -6.54454,3.5099 -8.72004,6.0006 -2.68535,3.0744 -4.34649,2.6461 -4.73106,-1.22 -0.24134,-2.4262 0.44013,-3.6891 3.78768,-7.0196 6.54897,-6.5156 11.9216,-8.6006 22.34144,-8.6704 6.58857,-0.044 8.99765,0.2738 9.61834,1.2695 1.59053,2.5515 -0.11765,3.6526 -7.32184,4.7192 -3.99137,0.591 -7.5736,1.3896 -7.96053,1.7749 -0.95797,0.9535 9.77397,13.1664 16.75914,19.0717 15.95636,13.4895 35.10207,21.5804 59.10653,24.9782 29.58989,4.1885 63.74073,-3.7667 89.62191,-20.8768 9.0581,-5.9884 24.6438,-20.3775 23.70676,-21.8868 -0.31631,-0.5095 -3.59901,-1.4644 -7.29487,-2.1218 -7.12431,-1.2674 -9.11265,-2.9945 -6.0304,-5.2382 2.48959,-1.812 13.67794,-1.6392 18.6554,0.2884 6.12871,2.3734 12.79203,7.5759 15.41954,12.0391 4.78145,8.1219 1.72049,10.5929 -5.05717,4.0823 -7.5602,-7.2623 -6.73201,-7.4397 -18.07447,3.8741 -5.5232,5.5093 -11.5722,11.0419 -13.44223,12.2949 -3.91573,2.6239 -5.86676,5.5322 -14.59676,21.7589 -16.18896,30.0911 -28.85997,43.2149 -46.78377,48.4558 -7.36496,2.1535 -21.80001,1.9603 -28.33299,-0.3793 z m -1.95482,-86.879 c -8.33876,-1.1864 -19.08845,-5.8186 -23.586,-10.1637 -2.03672,-1.9675 -4.45501,-5.5373 -5.374,-7.9327 -1.45093,-3.7821 -1.51317,-4.9161 -0.47281,-8.615 2.6164,-9.3025 14.01746,-17.4755 29.00989,-20.7958 9.10849,-2.0173 26.6319,-1.4647 34.29665,1.0815 7.0089,2.3282 14.12175,6.7941 17.49865,10.9866 3.83429,4.7605 4.53709,11.907 1.71289,17.4179 -4.52971,8.8388 -17.41935,15.9113 -33.11797,18.1717 -7.39433,1.0648 -11.65161,1.0327 -19.9673,-0.1505 z m -27.53927,-46.8983 c 0,-0.9937 1.13403,-2.6291 2.52007,-3.6341 l 2.52005,-1.8275 -2.48236,-3.2398 c -7.22564,-9.4303 -10.61251,-23.5687 -9.88573,-41.2676 0.95861,-23.3449 8.31023,-43.0633 17.47668,-46.876 9.67365,-4.0236 18.62061,7.8613 22.71697,30.1763 2.04324,11.1306 2.03401,38.7685 -0.0159,47.7373 -0.77025,3.37 -1.33912,6.1561 -1.26416,6.1913 0.0749,0.035 3.59722,-0.113 7.82728,-0.3299 l 7.69101,-0.3943 -0.88842,-3.4404 c -1.43514,-5.5579 -2.0426,-36.4764 -0.89797,-45.7054 2.38704,-19.2463 7.72544,-31.5447 15.28548,-35.214 2.64032,-1.2816 5.21112,-1.875 6.75864,-1.5599 6.76053,1.3756 13.14373,10.8538 17.04451,25.3086 2.72665,10.1041 3.01248,32.6768 0.53116,41.9472 -2.08208,7.7788 -6.62812,17.0943 -10.46531,21.4448 -1.85312,2.101 -2.54986,3.5204 -1.84322,3.7549 2.54211,0.8434 5.96572,4.2727 5.96572,5.9756 0,2.2034 -1.75589,2.2968 -6.42213,0.3418 -16.63171,-6.9678 -42.19089,-6.9255 -62.99772,0.1046 -8.22297,2.7782 -9.17463,2.8308 -9.17463,0.5065 z m 12.30998,-8.015 c 0,-0.2172 -0.68617,-3.0614 -1.52484,-6.3202 -2.07821,-8.0753 -1.46655,-21.3359 1.26329,-27.3881 2.59865,-5.7612 6.10382,-7.7389 10.47406,-5.9097 1.69039,0.7076 3.32554,1.9404 3.63368,2.7399 1.09226,2.8334 2.25148,1.3944 2.25148,-2.7948 0,-5.7127 -2.52814,-22.3404 -4.36424,-28.7038 -2.4145,-8.3679 -5.71795,-14.0604 -8.57357,-14.7739 -1.37833,-0.3443 -3.1858,-0.204 -4.01661,0.3119 -3.01535,1.8726 -6.76805,9.4645 -9.23165,18.6761 -2.24373,8.3895 -2.52735,11.2089 -2.60637,25.9098 -0.0856,15.9286 0.007,16.7627 2.66906,24.2438 2.57216,7.2261 7.13075,14.4042 9.14773,14.4042 0.48289,0 0.87798,-0.1777 0.87798,-0.3952 z m 61.1225,-12.311 c 5.10593,-10.4004 6.45985,-17.0462 6.43733,-31.5975 -0.0204,-13.1606 -1.15535,-20.0223 -5.00676,-30.2695 -2.17959,-5.7991 -6.87513,-11.2063 -9.73137,-11.2063 -5.09703,0 -10.18907,11.1336 -12.69806,27.7642 -1.29768,8.6014 -1.73504,19.3673 -0.78681,19.3673 0.28219,0 1.42782,-0.8483 2.54586,-1.8852 4.1629,-3.8608 9.05146,-1.6114 11.77618,5.4186 2.22835,5.7493 2.29759,22.2804 0.1183,28.2457 -0.79797,2.1842 -1.21815,4.203 -0.93373,4.4861 1.0954,1.0904 5.16974,-3.99 8.27906,-10.3234 z"
                 style="fill:#f6afa5" />
              <path
                 inkscape:connector-curvature="0"
                 id="path4712"
                 d="m -723.94268,1430.7235 c -6.11685,-1.6963 -12.51189,-4.6747 -17.7232,-8.2542 -6.93364,-4.7627 -20.75198,-18.4997 -23.04848,-22.913 -1.72835,-3.3214 -0.0638,-1.9998 10.62636,8.4366 10.04619,9.8078 14.09242,13.0837 19.50478,15.7913 8.78317,4.3941 15.77165,5.8198 25.31783,5.1649 15.25446,-1.0463 27.58453,-7.7609 44.14434,-24.0396 7.77527,-7.6432 10.18963,-9.534 10.6482,-8.339 0.74883,1.9514 1.86326,1.6062 15.35662,-4.7573 36.38937,-17.1611 59.80239,-36.7957 66.38802,-55.6743 1.22793,-3.52 1.71335,-7.6978 1.71335,-14.7461 0,-8.9837 0.0961,-9.5162 1.11088,-6.155 1.56429,5.1814 1.50014,13.2356 -0.15607,19.5942 -6.93538,26.6267 -37.50316,51.4083 -79.07583,64.1075 -9.74039,2.9753 -10.0968,3.186 -17.51805,10.3549 -9.44129,9.1203 -13.58422,12.2787 -20.99454,16.0055 -12.22597,6.1487 -26.16705,8.232 -36.29421,5.4236 z m 0,-12.477 c -13.31144,-3.5615 -22.74868,-12.4412 -38.90739,-36.6088 -6.35009,-9.4974 -12.44449,-18.2738 -13.5431,-19.503 -1.09862,-1.2292 -5.53577,-4.5735 -9.86035,-7.4318 -8.86874,-5.8618 -20.6512,-17.0037 -26.57765,-25.1326 -4.47477,-6.1378 -6.33205,-6.69 -10.92234,-3.2472 -4.94899,3.7119 -5.63217,3.9848 -4.4514,1.7785 3.14187,-5.8706 13.62432,-10.9323 21.57841,-10.4195 l 4.56281,0.2941 -5.456,1.334 c -9.89781,2.42 -9.55114,3.7095 4.88991,18.189 12.78682,12.8208 25.74247,20.9431 42.8972,26.8933 12.74795,4.4218 35.73764,7.6867 46.6795,6.6294 33.60451,-3.2473 58.09949,-12.9128 80.59899,-31.8035 8.17622,-6.8648 13.6197,-13.0168 13.6197,-15.3925 0,-1.4306 -3.03651,-2.7252 -9.39142,-4.0041 -2.74277,-0.5519 -2.98253,-0.7933 -1.5719,-1.5828 4.34319,-2.4305 18.09681,2.5027 23.20852,8.3247 4.21399,4.7994 3.56353,5.6269 -1.42814,1.8166 -2.38352,-1.8193 -5.19427,-3.3079 -6.24611,-3.3079 -1.16282,0 -5.49558,3.6188 -11.0538,9.2325 -5.02774,5.0778 -11.69805,11.5761 -14.82289,14.4405 -4.70664,4.3144 -7.04779,7.7265 -13.644,19.8854 -10.91559,20.1208 -15.38673,26.745 -23.71426,35.1338 -13.25372,13.3513 -30.53255,18.7391 -46.44429,14.4819 z m 26.82083,-4.1817 c 7.25696,-2.7163 15.84728,-9.3271 22.62118,-17.4084 6.05646,-7.2255 6.71754,-9.6103 3.05049,-11.0045 -6.8928,-2.6206 -20.94582,-0.091 -28.96003,5.2121 l -3.57914,2.3686 -2.47892,-2.4789 c -2.41784,-2.4179 -2.71719,-2.4683 -12.14927,-2.0488 -8.4158,0.3742 -10.5479,0.8345 -16.43464,3.5479 -8.45047,3.8951 -11.27329,6.623 -9.76658,9.4384 1.19141,2.2261 9.34433,8.9255 13.43885,11.0428 8.93155,4.6187 23.91836,5.2009 34.25806,1.3308 z m -84.58303,-12.8161 c -13.15424,-2.8225 -30.6766,-10.4491 -43.51088,-18.938 -30.00447,-19.8458 -45.16485,-47.9773 -37.94911,-70.4183 l 2.1425,-6.6632 -2.06665,-8.1024 c -8.38823,-32.8866 -2.32069,-68.592 17.66027,-103.9247 4.12339,-7.2915 4.99603,-9.523 4.13143,-10.5647 -0.85453,-1.0297 -1.857,-1.1107 -4.54825,-0.3676 -1.89867,0.5242 -8.37766,0.7775 -14.39776,0.5629 -12.71682,-0.4535 -21.8676,-3.0917 -32.49387,-9.3682 -13.06611,-7.7175 -21.43305,-16.3191 -29.83779,-30.6745 -11.61868,-19.8449 -14.12322,-48.5564 -6.2818,-72.0133 9.73733,-29.1284 30.40261,-52.1864 58.53319,-65.3103 14.48373,-6.75719 22.30545,-8.44024 39.3788,-8.47338 10.87141,-0.0211 16.15052,0.38096 20.35881,1.55056 23.48804,6.52792 39.50373,19.42692 50.07666,40.33152 9.90656,19.5872 9.61486,48.3476 -0.72422,71.403 -4.19796,9.3611 -4.60548,12.1531 -1.77393,12.1531 0.79761,0 5.75886,-1.2353 11.02501,-2.7452 5.26615,-1.5098 11.91846,-3.1959 14.78289,-3.7468 26.54102,-5.1043 57.13902,-3.1624 78.75321,4.998 7.91451,2.9882 8.95482,3.1799 9.96535,1.8365 0.89691,-1.1924 0.72106,-2.4981 -0.85736,-6.3661 -5.95239,-14.5866 -6.8083,-19.0958 -6.85512,-36.1144 -0.0485,-17.6263 0.70967,-21.9158 6.2079,-35.1232 8.18801,-19.6684 22.81849,-35.063 41.70064,-43.8785 10.44705,-4.87738 17.27909,-6.61327 28.81822,-7.32212 35.3228,-2.16989 64.96127,15.81812 81.38545,49.39382 2.80238,5.7289 6.2878,14.4643 7.74537,19.4119 2.49488,8.4688 2.64982,10.0499 2.64467,26.9873 -0.005,16.0327 -0.24403,18.7969 -2.19653,25.3889 -6.20143,20.937 -17.66529,36.8099 -34.53167,47.8126 -8.13894,5.3094 -14.35564,7.9105 -25.76314,10.7796 -7.24328,1.8218 -16.78792,1.9781 -33.11625,0.5424 -4.28242,-0.3765 -4.03106,1.8725 1.2599,11.2727 7.00969,12.4538 13.82224,30.5224 17.078,45.2951 2.39293,10.8576 4.0519,28.5101 3.42618,36.4565 -0.86734,11.0148 -3.60812,23.2118 -7.06449,31.4382 -1.58899,3.7819 -2.88907,8.1242 -2.88907,9.6494 0,2.4251 -0.35327,2.0663 -2.81426,-2.8586 -5.31159,-10.6294 -15.85687,-18.5018 -28.24403,-21.0849 -6.41679,-1.3382 -17.6597,-1.3415 -23.88189,-0.01 -2.66561,0.5716 -5.09665,0.7893 -5.40232,0.4836 -0.30566,-0.3057 0.18383,-2.3713 1.08776,-4.5904 8.65776,-21.2535 12.0901,-37.2548 12.13852,-56.5887 0.0513,-20.478 -3.72024,-37.335 -12.08109,-53.9968 -12.99649,-25.9 -35.46591,-43.977 -54.52996,-43.8703 -13.05634,0.073 -23.95915,11.0173 -29.81214,29.9255 -0.92699,2.9946 -1.99948,5.4448 -2.38333,5.4448 -0.38383,0 -1.43491,-2.2371 -2.33574,-4.9713 -3.81267,-11.5726 -13.47929,-23.1906 -21.04329,-25.2913 -8.80861,-2.4465 -19.29434,-0.6406 -30.60518,5.2709 -9.29484,4.8578 -23.15947,18.6506 -29.53451,29.3815 -13.59514,22.8841 -19.45066,46.4068 -18.35396,73.7312 0.55504,13.8289 3.95588,30.3418 8.24666,40.0418 1.02931,2.3269 1.87147,4.3897 1.87147,4.5839 0,0.1942 -2.66321,0.3605 -5.91825,0.3695 -25.15598,0.07 -44.97333,15.8954 -46.02671,36.7553 -0.46261,9.161 1.63843,16.8403 7.21357,26.3659 11.28435,19.2802 39.33174,39.1502 71.41894,50.5964 5.87702,2.0964 10.86988,3.9961 11.09523,4.2214 0.76807,0.7681 -4.15462,0.2619 -10.32205,-1.0615 z m 50.66029,-71.4626 c -11.1928,-2.2466 -20.98356,-7.9831 -24.12077,-14.1325 -3.32739,-6.5222 -2.0294,-12.1443 4.19623,-18.1753 7.81734,-7.573 19.6047,-11.3298 35.54875,-11.3298 16.5217,0 27.74087,3.7501 34.36242,11.4859 6.24294,7.2935 5.16679,14.6049 -3.26556,22.1863 -9.49665,8.5383 -30.99049,13.1229 -46.72107,9.9654 z m -18.46496,-49.1095 c 0,-1.0929 -1.45531,-3.8935 -3.23402,-6.2238 -6.25947,-8.2003 -9.44031,-20.4297 -9.36968,-36.0237 0.11118,-24.5475 9.54402,-48.7665 18.99365,-48.7665 1.66716,0 3.73899,1.338 6.4451,4.1623 4.66405,4.8676 8.26876,14.465 10.42711,27.7616 1.83496,11.3043 1.75593,32.2434 -0.15706,41.616 -2.50226,12.2597 -3.25497,11.1692 7.9235,11.4796 11.55871,0.3211 11.41114,0.4741 9.673,-10.0285 -1.94319,-11.7414 -1.46102,-38.4766 0.90844,-50.371 6.56185,-32.9396 23.48245,-35.1479 32.43234,-4.2327 1.89158,6.5341 2.18328,9.6437 2.17352,23.1711 -0.0146,20.2196 -2.14065,27.7949 -11.09223,39.522 -2.2238,2.9133 -3.55883,5.5503 -3.23595,6.3917 0.6982,1.8195 -0.17105,1.7975 -7.30306,-0.1846 -9.07398,-2.5218 -32.64876,-2.3158 -43.22161,0.3777 -4.42685,1.1278 -8.79453,2.3397 -9.70594,2.6931 -1.25588,0.487 -1.65711,0.1615 -1.65711,-1.3443 z m 5.48751,-2.2431 c 0.69028,-0.8317 0.55397,-2.7432 -0.45575,-6.3917 -1.76424,-6.3747 -1.99495,-18.9562 -0.44628,-24.3372 1.31199,-4.5586 5.29533,-9.749 7.48183,-9.749 0.81555,0 3.15411,1.7569 5.19678,3.9042 5.50396,5.7858 6.10361,4.4557 4.64051,-10.2939 -2.5765,-25.9738 -8.08426,-40.0094 -15.70016,-40.0094 -9.82413,0 -19.06267,35.1497 -15.81628,60.176 1.2687,9.7804 5.25701,20.523 9.15303,24.654 3.29779,3.4967 4.42203,3.8837 5.94632,2.047 z m 56.15118,-3.643 c 3.95612,-4.2351 9.18362,-15.4218 10.79663,-23.1045 1.8588,-8.8534 1.82732,-27.9579 -0.0611,-37.1005 -2.77542,-13.4366 -7.11882,-21.6566 -12.65492,-23.9498 -2.46636,-1.0216 -3.2493,-0.9647 -5.31092,0.3862 -3.25651,2.1337 -5.75693,6.3986 -8.0858,13.7915 -3.36386,10.6784 -5.98065,36.0007 -3.856,37.3138 0.44111,0.2726 2.01223,-0.7675 3.49139,-2.3114 1.47911,-1.5439 3.64396,-2.8071 4.81074,-2.8071 2.67223,0 5.72504,3.8202 7.09824,8.8826 1.36453,5.0305 0.55102,20.6641 -1.34293,25.8078 -1.06032,2.8796 -1.1624,4.1948 -0.38585,4.9713 1.61623,1.6163 2.52456,1.3058 5.5005,-1.8799 z"
                 style="fill:#000000;fill-opacity:1;stroke:#000000;stroke-width:2.0999999;stroke-miterlimit:4;stroke-opacity:1;stroke-dasharray:none" />
            </g>
            <path
               style="opacity:0.96017701;fill:#ffa8a8;fill-opacity:1;stroke:none"
               d="m -197.44025,810.97461 c -7.28167,-0.92806 -10.00382,-2.04387 -16.25796,-6.66406 -7.59293,-5.60923 -8.40107,-6.77066 -6.315,-9.07574 0.92998,-1.02762 4.47959,-3.14765 7.88801,-4.71117 5.06817,-2.32488 7.89679,-2.91004 15.52702,-3.21208 8.63691,-0.3419 9.51248,-0.19781 11.78795,1.93988 l 2.45805,2.30922 5.71205,-3.10816 c 3.14163,-1.70948 8.18706,-3.6416 11.21206,-4.2936 7.20374,-1.55267 15.38358,-1.03764 15.7683,0.99283 0.72818,3.84324 -15.4377,19.11216 -24.5604,23.19766 -5.2842,2.36648 -15.86469,3.56269 -23.22008,2.62522 z"
               id="path4757"
               inkscape:connector-curvature="0"
               transform="translate(-522,603.36218)" />
          </g>
        </g>
        <g
           inkscape:export-ydpi="90"
           inkscape:export-xdpi="90"
           inkscape:export-filename="/var/www/html/puzzle_testing/main/images/micki_sad.png"
           transform="matrix(0.80977585,0,0,0.80977585,118.56366,207.28322)"
           id="g4817">
          <path
             sodipodi:type="arc"
             style="fill:#ffffff;fill-opacity:1;stroke:none"
             id="path4813"
             sodipodi:cx="-539"
             sodipodi:cy="448"
             sodipodi:rx="71"
             sodipodi:ry="68"
             d="m -468,448 c 0,37.55536 -31.78778,68 -71,68 -39.21222,0 -71,-30.44464 -71,-68 0,-37.55536 31.78778,-68 71,-68 39.21222,0 71,30.44464 71,68 z"
             transform="translate(0,552.36218)" />
          <g
             id="g4784"
             transform="translate(328,-229)">
            <g
               transform="translate(-154,-11)"
               id="g4766">
              <g
                 id="g4768">
                <path
                   inkscape:connector-curvature="0"
                   id="path4770"
                   d="m -725.41614,1432.1755 c -11.75615,-3.4307 -21.35162,-9.6315 -32.33584,-20.8963 -5.50663,-5.6472 -6.09658,-5.991 -10.8896,-6.3452 -32.88095,-2.4297 -71.59822,-24.6149 -88.71386,-50.8334 -10.17431,-15.5855 -12.88449,-30.4876 -8.03026,-44.155 1.5523,-4.3706 1.53324,-4.8013 -0.59266,-13.3962 -4.50117,-18.198 -4.17286,-43.8411 0.79868,-62.3815 3.87393,-14.447 13.2354,-36.366 18.97331,-44.4242 2.35634,-3.3092 2.88161,-6.3631 1.00467,-5.8411 -0.78121,0.2173 -5.97962,0.5833 -11.55203,0.8133 -8.89101,0.3671 -11.19986,0.1119 -18.85512,-2.084 -52.14197,-14.9567 -75.82684,-75.0406 -49.96961,-126.763 8.07531,-16.1531 23.06313,-33.1449 38.15999,-43.2622 43.29211,-29.01265 95.86144,-22.05536 121.78418,16.1176 5.27549,7.7685 7.94006,13.8226 10.819,24.5816 4.9917,18.6548 2.0093,42.5859 -7.71185,61.8808 -1.27247,2.5256 -2.05652,4.8491 -1.74236,5.1632 0.31416,0.3142 3.21909,-0.1687 6.45538,-1.073 15.93787,-4.4537 20.98863,-5.5325 31.91872,-6.8177 14.69847,-1.7283 24.15705,-1.734 36.93574,-0.022 14.41088,1.9303 22.51918,3.7905 30.42239,6.9794 3.83956,1.5492 7.28077,2.5403 7.64717,2.2023 0.36638,-0.3379 -0.8386,-4.6205 -2.67774,-9.5168 -4.34198,-11.5597 -6.03744,-20.7166 -6.03648,-32.6021 0.003,-39.1701 25.22666,-73.4463 62.21519,-84.54405 11.43819,-3.43178 30.67,-3.65865 42.89231,-0.50594 28.36053,7.31549 50.22886,28.29039 61.8571,59.32969 4.61014,12.3059 5.54122,18.5408 5.51488,36.93 -0.0221,15.4038 -0.25518,17.8342 -2.42161,25.2472 -4.52262,15.4753 -10.92671,26.4342 -21.80376,37.3113 -12.22491,12.2249 -23.83179,18.5397 -41.54825,22.6047 -7.50751,1.7226 -20.24385,1.9291 -27.18396,0.4407 -2.66562,-0.5717 -5.11282,-0.7732 -5.43824,-0.4477 -0.32542,0.3254 1.80295,5.1608 4.7297,10.7453 14.36078,27.4017 20.44669,52.2687 19.41841,79.3436 -0.53372,14.0532 -2.63812,24.3994 -6.94244,34.1322 -2.71053,6.129 -2.76522,7.3801 -0.69555,15.9096 3.85346,15.8808 -3.25052,33.7233 -20.01383,50.2672 -15.56541,15.3617 -36.1114,26.8672 -61.69423,34.5481 -8.28663,2.4879 -9.14318,2.9971 -15.22527,9.0511 -12.38397,12.3266 -22.92494,18.8039 -36.05828,22.1571 -9.15734,2.3381 -15.7844,2.3821 -23.41399,0.1557 z m -20.35881,-154.8462 c 0,-0.2183 -0.68617,-3.0754 -1.52484,-6.349 -2.07821,-8.112 -1.46655,-21.433 1.26329,-27.5127 2.59865,-5.7874 6.10382,-7.7741 10.47406,-5.9366 1.69039,0.7108 3.32554,1.9493 3.63368,2.7523 1.09226,2.8464 2.25148,1.4009 2.25148,-2.8074 0,-5.7387 -2.52814,-22.4421 -4.36424,-28.8344 -2.4145,-8.406 -5.71795,-14.1244 -8.57357,-14.8411 -1.37833,-0.3459 -3.1858,-0.2049 -4.01661,0.3133 -3.01535,1.8811 -6.76805,9.5075 -9.23165,18.761 -2.24373,8.4277 -2.52735,11.2599 -2.60637,26.0278 -0.0856,16.001 0.007,16.8389 2.66906,24.354 2.57216,7.259 7.13075,14.4698 9.14773,14.4698 0.48289,0 0.87798,-0.1786 0.87798,-0.397 z m 61.1225,-12.3671 c 5.10593,-10.4477 6.45985,-17.1237 6.43733,-31.7412 -0.0204,-13.2205 -1.15535,-20.1134 -5.00676,-30.4072 -2.17959,-5.8255 -6.87513,-11.2573 -9.73137,-11.2573 -5.09703,0 -10.18907,11.1843 -12.69806,27.8905 -1.29768,8.6406 -1.73504,19.4555 -0.78681,19.4555 0.28219,0 1.42782,-0.8522 2.54586,-1.8938 4.1629,-3.8784 9.05146,-1.6188 11.77618,5.4432 2.22835,5.7754 2.29759,22.3818 0.1183,28.3742 -0.79797,2.1942 -1.21815,4.2221 -0.93373,4.5066 1.0954,1.0953 5.16974,-4.0082 8.27906,-10.3705 z"
                   style="fill:#fdc6ab" />
                <path
                   inkscape:connector-curvature="0"
                   id="path4772"
                   d="m -724.41614,1431.1829 c -11.75615,-3.4152 -21.35162,-9.5879 -32.33584,-20.8017 -5.50663,-5.6216 -6.09658,-5.9638 -10.8896,-6.3164 -32.88095,-2.4187 -71.59822,-24.5034 -88.71386,-50.6032 -10.17431,-15.5149 -12.88449,-30.3495 -8.03026,-43.955 1.5523,-4.3508 1.53324,-4.7796 -0.59266,-13.3355 -4.50117,-18.1156 -4.17286,-43.6425 0.79868,-62.0989 3.87393,-14.3817 13.2354,-36.2014 18.97331,-44.223 2.35634,-3.2943 2.88161,-6.3343 1.00467,-5.8148 -0.78121,0.2164 -5.97962,0.5807 -11.55203,0.8097 -8.89101,0.3654 -11.19986,0.1114 -18.85512,-2.0746 -52.14197,-14.889 -75.82684,-74.7007 -49.96961,-126.1888 8.07531,-16.0799 23.06313,-32.9948 38.15999,-43.0663 43.29211,-28.88124 95.86144,-21.95546 121.78418,16.0446 5.27549,7.7333 7.94006,13.7599 10.819,24.4703 4.9917,18.5703 2.0093,42.393 -7.71185,61.6005 -1.27247,2.5142 -2.05652,4.8272 -1.74236,5.1398 0.31416,0.3128 3.21909,-0.1679 6.45538,-1.0682 15.93787,-4.4335 20.98863,-5.5074 31.91872,-6.7868 14.69847,-1.7204 24.15705,-1.7261 36.93574,-0.022 14.41088,1.9216 22.51918,3.7734 30.42239,6.9479 3.83956,1.5421 7.28077,2.5288 7.64717,2.1923 0.36638,-0.3364 -0.8386,-4.5997 -2.67774,-9.4738 -4.34198,-11.5073 -6.03744,-20.6227 -6.03648,-32.4544 0.003,-38.9926 25.22666,-73.1136 62.21519,-84.16115 11.43819,-3.41617 30.67,-3.64208 42.89231,-0.50366 28.36053,7.28241 50.22886,28.16231 61.8571,59.06101 4.61014,12.2502 5.54122,18.4568 5.51488,36.7628 -0.0221,15.3339 -0.25518,17.7534 -2.42161,25.1328 -4.52262,15.4052 -10.92671,26.3145 -21.80376,37.1423 -12.22491,12.1695 -23.83179,18.4557 -41.54825,22.5024 -7.50751,1.7148 -20.24385,1.9203 -27.18396,0.4386 -2.66562,-0.569 -5.11282,-0.7697 -5.43824,-0.4457 -0.32542,0.324 1.80295,5.1375 4.7297,10.6967 14.36078,27.2776 20.44669,52.0319 19.41841,78.9842 -0.53372,13.9896 -2.63812,24.289 -6.94244,33.9777 -2.71053,6.1012 -2.76522,7.3466 -0.69555,15.8375 3.85346,15.8088 -3.25052,33.5706 -20.01383,50.0395 -15.56541,15.2922 -36.1114,26.7455 -61.69423,34.3917 -8.28663,2.4766 -9.14318,2.9835 -15.22527,9.0101 -12.38397,12.2708 -22.92494,18.7187 -36.05828,22.0567 -9.15734,2.3275 -15.7844,2.3713 -23.41399,0.155 z m 30.50819,-9.2329 c 11.08173,-4.7239 20.18191,-11.9535 34.59141,-27.4812 6.80588,-7.3338 9.95677,-8.5556 9.43591,-3.6586 l -0.2713,2.5506 7.37321,-3.3391 c 34.01495,-15.4043 57.65001,-33.7803 66.00427,-51.3173 2.71555,-5.7004 2.91882,-6.8558 2.91882,-16.5912 0,-10.1008 -0.11501,-10.6879 -3.31422,-16.9192 -7.76853,-15.1312 -25.784,-22.3579 -46.83637,-18.7879 -4.95063,0.8395 -9.4342,1.2599 -9.96349,0.9343 -1.54587,-0.9511 -1.1265,-3.8282 1.38059,-9.4715 14.44878,-32.5232 15.46894,-70.5012 2.69316,-100.2596 -5.81979,-13.5559 -10.53133,-20.5775 -20.6603,-30.7899 -8.05211,-8.1184 -10.72645,-10.1647 -17.87012,-13.6743 -7.67124,-3.7687 -9.02831,-4.1293 -15.62421,-4.1519 -6.20018,-0.021 -7.8505,0.3425 -11.65146,2.5667 -7.89215,4.6184 -13.90019,14.024 -17.62272,27.5882 -1.42303,5.1853 -2.21919,6.6444 -3.74946,6.872 -1.6545,0.2459 -2.30871,-0.8051 -4.40879,-7.0825 -8.38383,-25.0604 -24.13186,-32.0963 -46.84953,-20.9314 -20.42304,10.0371 -37.23866,34.0476 -45.16373,64.4877 -3.02634,11.6242 -4.20172,35.9009 -2.35574,48.6562 1.24068,8.5726 5.15717,23.2687 7.33511,27.524 0.74734,1.4602 1.2267,3.7932 1.06525,5.1845 -0.29245,2.52 -0.33153,2.532 -10.23624,3.1462 -14.66368,0.9093 -23.34336,4.4389 -31.8994,12.9717 -11.55012,11.5187 -12.31495,28.6378 -2.05744,46.0517 4.70214,7.9825 19.61384,22.5226 30.16916,29.4173 13.61223,8.8914 39.78992,20.7519 51.02384,23.1178 l 3.20432,0.6748 -2.57222,-3.3571 c -2.63782,-3.4427 -2.91377,-6.2676 -0.68442,-7.0066 0.7017,-0.2326 7.25696,5.5695 14.82171,13.1188 20.07202,20.0309 27.07237,23.674 44.52311,23.1706 9.15046,-0.2638 11.24669,-0.6544 17.25129,-3.2138 z m -33.68289,-3.1197 c -12.97285,-4.6457 -22.50399,-14.1849 -39.15458,-39.1877 l -11.88303,-17.8437 -8.91386,-5.7918 c -9.71177,-6.3104 -20.26405,-16.1187 -26.48536,-24.6182 -2.178,-2.9755 -4.08321,-5.5645 -4.23378,-5.7533 -0.51174,-0.6414 -6.54454,3.5099 -8.72004,6.0006 -2.68535,3.0744 -4.34649,2.6461 -4.73106,-1.22 -0.24134,-2.4262 0.44013,-3.6891 3.78768,-7.0196 6.54897,-6.5156 11.9216,-8.6006 22.34144,-8.6704 6.58857,-0.044 8.99765,0.2738 9.61834,1.2695 1.59053,2.5515 -0.11765,3.6526 -7.32184,4.7192 -3.99137,0.591 -7.5736,1.3896 -7.96053,1.7749 -0.95797,0.9535 9.77397,13.1664 16.75914,19.0717 15.95636,13.4895 35.10207,21.5804 59.10653,24.9782 29.58989,4.1885 63.74073,-3.7667 89.62191,-20.8768 9.0581,-5.9884 24.6438,-20.3775 23.70676,-21.8868 -0.31631,-0.5095 -3.59901,-1.4644 -7.29487,-2.1218 -7.12431,-1.2674 -9.11265,-2.9945 -6.0304,-5.2382 2.48959,-1.812 13.67794,-1.6392 18.6554,0.2884 6.12871,2.3734 12.79203,7.5759 15.41954,12.0391 4.78145,8.1219 1.72049,10.5929 -5.05717,4.0823 -7.5602,-7.2623 -6.73201,-7.4397 -18.07447,3.8741 -5.5232,5.5093 -11.5722,11.0419 -13.44223,12.2949 -3.91573,2.6239 -5.86676,5.5322 -14.59676,21.7589 -16.18896,30.0911 -28.85997,43.2149 -46.78377,48.4558 -7.36496,2.1535 -21.80001,1.9603 -28.33299,-0.3793 z m -1.95482,-86.879 c -8.33876,-1.1864 -19.08845,-5.8186 -23.586,-10.1637 -2.03672,-1.9675 -4.45501,-5.5373 -5.374,-7.9327 -1.45093,-3.7821 -1.51317,-4.9161 -0.47281,-8.615 2.6164,-9.3025 14.01746,-17.4755 29.00989,-20.7958 9.10849,-2.0173 26.6319,-1.4647 34.29665,1.0815 7.0089,2.3282 14.12175,6.7941 17.49865,10.9866 3.83429,4.7605 4.53709,11.907 1.71289,17.4179 -4.52971,8.8388 -17.41935,15.9113 -33.11797,18.1717 -7.39433,1.0648 -11.65161,1.0327 -19.9673,-0.1505 z m -27.53927,-46.8983 c 0,-0.9937 1.13403,-2.6291 2.52007,-3.6341 l 2.52005,-1.8275 -2.48236,-3.2398 c -7.22564,-9.4303 -10.61251,-23.5687 -9.88573,-41.2676 0.95861,-23.3449 8.31023,-43.0633 17.47668,-46.876 9.67365,-4.0236 18.62061,7.8613 22.71697,30.1763 2.04324,11.1306 2.03401,38.7685 -0.0159,47.7373 -0.77025,3.37 -1.33912,6.1561 -1.26416,6.1913 0.0749,0.035 3.59722,-0.113 7.82728,-0.3299 l 7.69101,-0.3943 -0.88842,-3.4404 c -1.43514,-5.5579 -2.0426,-36.4764 -0.89797,-45.7054 2.38704,-19.2463 7.72544,-31.5447 15.28548,-35.214 2.64032,-1.2816 5.21112,-1.875 6.75864,-1.5599 6.76053,1.3756 13.14373,10.8538 17.04451,25.3086 2.72665,10.1041 3.01248,32.6768 0.53116,41.9472 -2.08208,7.7788 -6.62812,17.0943 -10.46531,21.4448 -1.85312,2.101 -2.54986,3.5204 -1.84322,3.7549 2.54211,0.8434 5.96572,4.2727 5.96572,5.9756 0,2.2034 -1.75589,2.2968 -6.42213,0.3418 -16.63171,-6.9678 -42.19089,-6.9255 -62.99772,0.1046 -8.22297,2.7782 -9.17463,2.8308 -9.17463,0.5065 z m 12.30998,-8.015 c 0,-0.2172 -0.68617,-3.0614 -1.52484,-6.3202 -2.07821,-8.0753 -1.46655,-21.3359 1.26329,-27.3881 2.59865,-5.7612 6.10382,-7.7389 10.47406,-5.9097 1.69039,0.7076 3.32554,1.9404 3.63368,2.7399 1.09226,2.8334 2.25148,1.3944 2.25148,-2.7948 0,-5.7127 -2.52814,-22.3404 -4.36424,-28.7038 -2.4145,-8.3679 -5.71795,-14.0604 -8.57357,-14.7739 -1.37833,-0.3443 -3.1858,-0.204 -4.01661,0.3119 -3.01535,1.8726 -6.76805,9.4645 -9.23165,18.6761 -2.24373,8.3895 -2.52735,11.2089 -2.60637,25.9098 -0.0856,15.9286 0.007,16.7627 2.66906,24.2438 2.57216,7.2261 7.13075,14.4042 9.14773,14.4042 0.48289,0 0.87798,-0.1777 0.87798,-0.3952 z m 61.1225,-12.311 c 5.10593,-10.4004 6.45985,-17.0462 6.43733,-31.5975 -0.0204,-13.1606 -1.15535,-20.0223 -5.00676,-30.2695 -2.17959,-5.7991 -6.87513,-11.2063 -9.73137,-11.2063 -5.09703,0 -10.18907,11.1336 -12.69806,27.7642 -1.29768,8.6014 -1.73504,19.3673 -0.78681,19.3673 0.28219,0 1.42782,-0.8483 2.54586,-1.8852 4.1629,-3.8608 9.05146,-1.6114 11.77618,5.4186 2.22835,5.7493 2.29759,22.2804 0.1183,28.2457 -0.79797,2.1842 -1.21815,4.203 -0.93373,4.4861 1.0954,1.0904 5.16974,-3.99 8.27906,-10.3234 z"
                   style="fill:#f6afa5" />
                <path
                   inkscape:connector-curvature="0"
                   id="path4774"
                   d="m -723.94268,1430.7235 c -6.11685,-1.6963 -12.51189,-4.6747 -17.7232,-8.2542 -6.93364,-4.7627 -20.75198,-18.4997 -23.04848,-22.913 -1.72835,-3.3214 -0.0638,-1.9998 10.62636,8.4366 10.04619,9.8078 14.09242,13.0837 19.50478,15.7913 8.78317,4.3941 15.77165,5.8198 25.31783,5.1649 15.25446,-1.0463 27.58453,-7.7609 44.14434,-24.0396 7.77527,-7.6432 10.18963,-9.534 10.6482,-8.339 0.74883,1.9514 1.86326,1.6062 15.35662,-4.7573 36.38937,-17.1611 59.80239,-36.7957 66.38802,-55.6743 1.22793,-3.52 1.71335,-7.6978 1.71335,-14.7461 0,-8.9837 0.0961,-9.5162 1.11088,-6.155 1.56429,5.1814 1.50014,13.2356 -0.15607,19.5942 -6.93538,26.6267 -37.50316,51.4083 -79.07583,64.1075 -9.74039,2.9753 -10.0968,3.186 -17.51805,10.3549 -9.44129,9.1203 -13.58422,12.2787 -20.99454,16.0055 -12.22597,6.1487 -26.16705,8.232 -36.29421,5.4236 z m 0,-12.477 c -13.31144,-3.5615 -22.74868,-12.4412 -38.90739,-36.6088 -6.35009,-9.4974 -12.44449,-18.2738 -13.5431,-19.503 -1.09862,-1.2292 -5.53577,-4.5735 -9.86035,-7.4318 -8.86874,-5.8618 -20.6512,-17.0037 -26.57765,-25.1326 -4.47477,-6.1378 -6.33205,-6.69 -10.92234,-3.2472 -4.94899,3.7119 -5.63217,3.9848 -4.4514,1.7785 3.14187,-5.8706 13.62432,-10.9323 21.57841,-10.4195 l 4.56281,0.2941 -5.456,1.334 c -9.89781,2.42 -9.55114,3.7095 4.88991,18.189 12.78682,12.8208 25.74247,20.9431 42.8972,26.8933 12.74795,4.4218 35.73764,7.6867 46.6795,6.6294 33.60451,-3.2473 58.09949,-12.9128 80.59899,-31.8035 8.17622,-6.8648 13.6197,-13.0168 13.6197,-15.3925 0,-1.4306 -3.03651,-2.7252 -9.39142,-4.0041 -2.74277,-0.5519 -2.98253,-0.7933 -1.5719,-1.5828 4.34319,-2.4305 18.09681,2.5027 23.20852,8.3247 4.21399,4.7994 3.56353,5.6269 -1.42814,1.8166 -2.38352,-1.8193 -5.19427,-3.3079 -6.24611,-3.3079 -1.16282,0 -5.49558,3.6188 -11.0538,9.2325 -5.02774,5.0778 -11.69805,11.5761 -14.82289,14.4405 -4.70664,4.3144 -7.04779,7.7265 -13.644,19.8854 -10.91559,20.1208 -15.38673,26.745 -23.71426,35.1338 -13.25372,13.3513 -30.53255,18.7391 -46.44429,14.4819 z m 26.82083,-4.1817 c 7.25696,-2.7163 15.84728,-9.3271 22.62118,-17.4084 6.05646,-7.2255 6.71754,-9.6103 3.05049,-11.0045 -6.8928,-2.6206 -20.94582,-0.091 -28.96003,5.2121 l -3.57914,2.3686 -2.47892,-2.4789 c -2.41784,-2.4179 -2.71719,-2.4683 -12.14927,-2.0488 -8.4158,0.3742 -10.5479,0.8345 -16.43464,3.5479 -8.45047,3.8951 -11.27329,6.623 -9.76658,9.4384 1.19141,2.2261 9.34433,8.9255 13.43885,11.0428 8.93155,4.6187 23.91836,5.2009 34.25806,1.3308 z m -84.58303,-12.8161 c -13.15424,-2.8225 -30.6766,-10.4491 -43.51088,-18.938 -30.00447,-19.8458 -45.16485,-47.9773 -37.94911,-70.4183 l 2.1425,-6.6632 -2.06665,-8.1024 c -8.38823,-32.8866 -2.32069,-68.592 17.66027,-103.9247 4.12339,-7.2915 4.99603,-9.523 4.13143,-10.5647 -0.85453,-1.0297 -1.857,-1.1107 -4.54825,-0.3676 -1.89867,0.5242 -8.37766,0.7775 -14.39776,0.5629 -12.71682,-0.4535 -21.8676,-3.0917 -32.49387,-9.3682 -13.06611,-7.7175 -21.43305,-16.3191 -29.83779,-30.6745 -11.61868,-19.8449 -14.12322,-48.5564 -6.2818,-72.0133 9.73733,-29.1284 30.40261,-52.1864 58.53319,-65.3103 14.48373,-6.75719 22.30545,-8.44024 39.3788,-8.47338 10.87141,-0.0211 16.15052,0.38096 20.35881,1.55056 23.48804,6.52792 39.50373,19.42692 50.07666,40.33152 9.90656,19.5872 9.61486,48.3476 -0.72422,71.403 -4.19796,9.3611 -4.60548,12.1531 -1.77393,12.1531 0.79761,0 5.75886,-1.2353 11.02501,-2.7452 5.26615,-1.5098 11.91846,-3.1959 14.78289,-3.7468 26.54102,-5.1043 57.13902,-3.1624 78.75321,4.998 7.91451,2.9882 8.95482,3.1799 9.96535,1.8365 0.89691,-1.1924 0.72106,-2.4981 -0.85736,-6.3661 -5.95239,-14.5866 -6.8083,-19.0958 -6.85512,-36.1144 -0.0485,-17.6263 0.70967,-21.9158 6.2079,-35.1232 8.18801,-19.6684 22.81849,-35.063 41.70064,-43.8785 10.44705,-4.87738 17.27909,-6.61327 28.81822,-7.32212 35.3228,-2.16989 64.96127,15.81812 81.38545,49.39382 2.80238,5.7289 6.2878,14.4643 7.74537,19.4119 2.49488,8.4688 2.64982,10.0499 2.64467,26.9873 -0.005,16.0327 -0.24403,18.7969 -2.19653,25.3889 -6.20143,20.937 -17.66529,36.8099 -34.53167,47.8126 -8.13894,5.3094 -14.35564,7.9105 -25.76314,10.7796 -7.24328,1.8218 -16.78792,1.9781 -33.11625,0.5424 -4.28242,-0.3765 -4.03106,1.8725 1.2599,11.2727 7.00969,12.4538 13.82224,30.5224 17.078,45.2951 2.39293,10.8576 4.0519,28.5101 3.42618,36.4565 -0.86734,11.0148 -3.60812,23.2118 -7.06449,31.4382 -1.58899,3.7819 -2.88907,8.1242 -2.88907,9.6494 0,2.4251 -0.35327,2.0663 -2.81426,-2.8586 -5.31159,-10.6294 -15.85687,-18.5018 -28.24403,-21.0849 -6.41679,-1.3382 -17.6597,-1.3415 -23.88189,-0.01 -2.66561,0.5716 -5.09665,0.7893 -5.40232,0.4836 -0.30566,-0.3057 0.18383,-2.3713 1.08776,-4.5904 8.65776,-21.2535 12.0901,-37.2548 12.13852,-56.5887 0.0513,-20.478 -3.72024,-37.335 -12.08109,-53.9968 -12.99649,-25.9 -35.46591,-43.977 -54.52996,-43.8703 -13.05634,0.073 -23.95915,11.0173 -29.81214,29.9255 -0.92699,2.9946 -1.99948,5.4448 -2.38333,5.4448 -0.38383,0 -1.43491,-2.2371 -2.33574,-4.9713 -3.81267,-11.5726 -13.47929,-23.1906 -21.04329,-25.2913 -8.80861,-2.4465 -19.29434,-0.6406 -30.60518,5.2709 -9.29484,4.8578 -23.15947,18.6506 -29.53451,29.3815 -13.59514,22.8841 -19.45066,46.4068 -18.35396,73.7312 0.55504,13.8289 3.95588,30.3418 8.24666,40.0418 1.02931,2.3269 1.87147,4.3897 1.87147,4.5839 0,0.1942 -2.66321,0.3605 -5.91825,0.3695 -25.15598,0.07 -44.97333,15.8954 -46.02671,36.7553 -0.46261,9.161 1.63843,16.8403 7.21357,26.3659 11.28435,19.2802 39.33174,39.1502 71.41894,50.5964 5.87702,2.0964 10.86988,3.9961 11.09523,4.2214 0.76807,0.7681 -4.15462,0.2619 -10.32205,-1.0615 z m 50.66029,-71.4626 c -11.1928,-2.2466 -20.98356,-7.9831 -24.12077,-14.1325 -3.32739,-6.5222 -2.0294,-12.1443 4.19623,-18.1753 7.81734,-7.573 19.6047,-11.3298 35.54875,-11.3298 16.5217,0 27.74087,3.7501 34.36242,11.4859 6.24294,7.2935 5.16679,14.6049 -3.26556,22.1863 -9.49665,8.5383 -30.99049,13.1229 -46.72107,9.9654 z m -18.46496,-49.1095 c 0,-1.0929 -1.45531,-3.8935 -3.23402,-6.2238 -6.25947,-8.2003 -9.44031,-20.4297 -9.36968,-36.0237 0.11118,-24.5475 9.54402,-48.7665 18.99365,-48.7665 1.66716,0 3.73899,1.338 6.4451,4.1623 4.66405,4.8676 8.26876,14.465 10.42711,27.7616 1.83496,11.3043 1.75593,32.2434 -0.15706,41.616 -2.50226,12.2597 -3.25497,11.1692 7.9235,11.4796 11.55871,0.3211 11.41114,0.4741 9.673,-10.0285 -1.94319,-11.7414 -1.46102,-38.4766 0.90844,-50.371 6.56185,-32.9396 23.48245,-35.1479 32.43234,-4.2327 1.89158,6.5341 2.18328,9.6437 2.17352,23.1711 -0.0146,20.2196 -2.14065,27.7949 -11.09223,39.522 -2.2238,2.9133 -3.55883,5.5503 -3.23595,6.3917 0.6982,1.8195 -0.17105,1.7975 -7.30306,-0.1846 -9.07398,-2.5218 -32.64876,-2.3158 -43.22161,0.3777 -4.42685,1.1278 -8.79453,2.3397 -9.70594,2.6931 -1.25588,0.487 -1.65711,0.1615 -1.65711,-1.3443 z m 5.48751,-2.2431 c 0.69028,-0.8317 0.55397,-2.7432 -0.45575,-6.3917 -1.76424,-6.3747 -1.99495,-18.9562 -0.44628,-24.3372 1.31199,-4.5586 5.29533,-9.749 7.48183,-9.749 0.81555,0 3.15411,1.7569 5.19678,3.9042 5.50396,5.7858 6.10361,4.4557 4.64051,-10.2939 -2.5765,-25.9738 -8.08426,-40.0094 -15.70016,-40.0094 -9.82413,0 -19.06267,35.1497 -15.81628,60.176 1.2687,9.7804 5.25701,20.523 9.15303,24.654 3.29779,3.4967 4.42203,3.8837 5.94632,2.047 z m 56.15118,-3.643 c 3.95612,-4.2351 9.18362,-15.4218 10.79663,-23.1045 1.8588,-8.8534 1.82732,-27.9579 -0.0611,-37.1005 -2.77542,-13.4366 -7.11882,-21.6566 -12.65492,-23.9498 -2.46636,-1.0216 -3.2493,-0.9647 -5.31092,0.3862 -3.25651,2.1337 -5.75693,6.3986 -8.0858,13.7915 -3.36386,10.6784 -5.98065,36.0007 -3.856,37.3138 0.44111,0.2726 2.01223,-0.7675 3.49139,-2.3114 1.47911,-1.5439 3.64396,-2.8071 4.81074,-2.8071 2.67223,0 5.72504,3.8202 7.09824,8.8826 1.36453,5.0305 0.55102,20.6641 -1.34293,25.8078 -1.06032,2.8796 -1.1624,4.1948 -0.38585,4.9713 1.61623,1.6163 2.52456,1.3058 5.5005,-1.8799 z"
                   style="fill:#000000;fill-opacity:1;stroke:#000000;stroke-width:2.0999999;stroke-miterlimit:4;stroke-opacity:1;stroke-dasharray:none" />
              </g>
              <path
                 style="opacity:0.96017701;fill:#ffa8a8;fill-opacity:1;stroke:none"
                 d="m -197.44025,810.97461 c -7.28167,-0.92806 -10.00382,-2.04387 -16.25796,-6.66406 -7.59293,-5.60923 -8.40107,-6.77066 -6.315,-9.07574 0.92998,-1.02762 4.47959,-3.14765 7.88801,-4.71117 5.06817,-2.32488 7.89679,-2.91004 15.52702,-3.21208 8.63691,-0.3419 9.51248,-0.19781 11.78795,1.93988 l 2.45805,2.30922 5.71205,-3.10816 c 3.14163,-1.70948 8.18706,-3.6416 11.21206,-4.2936 7.20374,-1.55267 15.38358,-1.03764 15.7683,0.99283 0.72818,3.84324 -15.4377,19.11216 -24.5604,23.19766 -5.2842,2.36648 -15.86469,3.56269 -23.22008,2.62522 z"
                 id="path4776"
                 inkscape:connector-curvature="0"
                 transform="translate(-522,603.36218)" />
            </g>
            <path
               sodipodi:type="arc"
               style="fill:#fdc6ab;fill-opacity:1;stroke:none"
               id="path4778"
               sodipodi:cx="-366"
               sodipodi:cy="745.5"
               sodipodi:rx="114"
               sodipodi:ry="47.5"
               d="m -252,745.5 c 0,26.23353 -51.03954,47.5 -114,47.5 -62.96046,0 -114,-21.26647 -114,-47.5 0,-26.23353 51.03954,-47.5 114,-47.5 62.96046,0 114,21.26647 114,47.5 z"
               transform="matrix(-0.0311641,0.38115474,-1.1463623,-0.01931394,-20.292954,1521.7634)" />
            <path
               transform="matrix(-0.2423508,0.17826746,-0.72237017,-0.7594548,-501.67342,1973.2817)"
               d="m -252,745.5 c 0,26.23353 -51.03954,47.5 -114,47.5 -62.96046,0 -114,-21.26647 -114,-47.5 0,-26.23353 51.03954,-47.5 114,-47.5 62.96046,0 114,21.26647 114,47.5 z"
               sodipodi:ry="47.5"
               sodipodi:rx="114"
               sodipodi:cy="745.5"
               sodipodi:cx="-366"
               id="path4780"
               style="fill:#fdc6ab;fill-opacity:1;stroke:none"
               sodipodi:type="arc" />
            <path
               sodipodi:type="arc"
               style="fill:#fdc6ab;fill-opacity:1;stroke:none"
               id="path4782"
               sodipodi:cx="-366"
               sodipodi:cy="745.5"
               sodipodi:rx="114"
               sodipodi:ry="47.5"
               d="m -252,745.5 c 0,26.23353 -51.03954,47.5 -114,47.5 -62.96046,0 -114,-21.26647 -114,-47.5 0,-26.23353 51.03954,-47.5 114,-47.5 62.96046,0 114,21.26647 114,47.5 z"
               transform="matrix(0.2423508,0.17826746,0.72237017,-0.7594548,-1242.3266,1968.2817)" />
          </g>
        </g>
      </g>
    </g>
  </g>
</svg>
