<svg xmlns="http://www.w3.org/2000/svg" xmlns:xlink="http://www.w3.org/1999/xlink" version="1.1" x="0px" y="0px" viewBox="0 0 64 80" enable-background="new 0 0 64 64" xml:space="preserve"><g><path d="M48.003,43.038c-3.723,0-6.741,3.018-6.741,6.742c0,3.722,3.018,6.741,6.741,6.741c3.723,0,6.741-3.018,6.741-6.741   C54.743,46.056,51.725,43.038,48.003,43.038z M48.003,52.842c-0.617,0-1.192-0.183-1.672-0.498   c-0.837-0.545-1.391-1.49-1.391-2.565c0-1.691,1.372-3.063,3.063-3.063c1.074,0,2.02,0.554,2.565,1.391   c0.315,0.481,0.497,1.056,0.497,1.672C51.065,51.471,49.694,52.842,48.003,52.842z"/><path d="M15.119,43.039c-3.723,0-6.741,3.018-6.741,6.742c0,3.722,3.018,6.741,6.741,6.741c3.723,0,6.741-3.018,6.741-6.741   C21.86,46.057,18.841,43.039,15.119,43.039z M15.119,52.843c-0.617,0-1.192-0.183-1.672-0.498c-0.837-0.545-1.391-1.49-1.391-2.565   c0-1.691,1.372-3.063,3.063-3.063c1.074,0,2.02,0.554,2.565,1.391c0.315,0.481,0.497,1.056,0.497,1.672   C18.181,51.472,16.81,52.843,15.119,52.843z"/><path d="M60.81,43.749h-0.17v-0.93l-0.01-6.68c0-1.23-0.55-2.39-1.5-3.16l-5.19-4.19l-3.7-9.97c-0.84-2.26-3-3.76-5.42-3.76h-3.57   v-1.22c0-0.72-0.58-1.3-1.3-1.3h-0.37l-0.41-3.55c-0.1-0.86-0.83-1.51-1.7-1.51h-3.32c-0.87,0-1.6,0.65-1.69,1.51l-0.41,3.55h-0.38   c-0.72,0-1.3,0.58-1.3,1.3v1.22h-24c-1.9,0-3.43,1.54-3.43,3.43v25.28c-0.72,0.13-1.27,0.75-1.27,1.51v2.97   c0,0.76,0.55,1.39,1.27,1.51v0.02h3.44c0-4.82,3.92-8.74,8.74-8.74s8.74,3.92,8.74,8.74h15.4c0-4.82,3.92-8.74,8.74-8.74   s8.74,3.92,8.74,8.74h4.07c0.84,0,1.52-0.68,1.52-1.53v-2.97C62.33,44.439,61.65,43.749,60.81,43.749z M25.69,31.919h-4.98v4.99   h-5.33v-4.99h-4.99v-5.32h4.99v-4.99h5.33v4.99h4.98V31.919z M34.09,9.799c0.03-0.66,0.29-1.16,0.59-1.16h1.15   c0.3,0,0.56,0.5,0.59,1.16l0.14,2.74h-2.61L34.09,9.799z M34.28,28.819v-10.83h10.54c0.41,0,0.8,0.08,1.15,0.24   c0.69,0.31,1.25,0.88,1.52,1.61l3.34,8.98H34.28z M57.24,39.659c-1.34,0-2.42-1.08-2.42-2.42c0-1.33,1.08-2.41,2.42-2.41V39.659z"/></g><text x="0" y="79" fill="#000000" font-size="5px" font-weight="bold" font-family="'Helvetica Neue', Helvetica, Arial-Unicode, Arial, Sans-serif">Created by Arosh Khan</text><text x="0" y="84" fill="#000000" font-size="5px" font-weight="bold" font-family="'Helvetica Neue', Helvetica, Arial-Unicode, Arial, Sans-serif">from the Noun Project</text></svg>