<svg xmlns="http://www.w3.org/2000/svg" xmlns:xlink="http://www.w3.org/1999/xlink" version="1.1" x="0px" y="0px" viewBox="0 0 912 735" style="enable-background:new 0 0 912 588;" xml:space="preserve"><path d="M45.7,335.8h30.1V149.4L130.9,312c0,0-16.9,34-18.2,71.4c-1.6,45.3,23.8,179.6,23.8,179.6H179l-2.5-170.2l80,170.2h40.5  l-71.3-231.7c0,0,48.4,42.3,68.4,48.7c38.9,12.4,163.2,0,163.2,0v183h43.7l17.2-177.6h49.2L631.4,563h36.9l-36.9-199.7l80.2,60.9  c0,0-15.2,42.4-3.4,70.7c18.3,43.6,59.8,68.1,136.4,68.1c31.5,0,46.5,0,46.5,0l-51.1-146.3l39.1-53.7c6.2-9.7-3.8-21.7-14.5-17.2  l-49.2,20.7l13.3-51.7c2.7-10.5-9-18.7-18-12.7l-23.7,15.9c0,0-86.1-291.5-170.5-291.5c-119.2,0-364.7,0-499.3,0  C-32.8,26.4,45.7,335.8,45.7,335.8z"/><text x="0" y="603" fill="#000000" font-size="5px" font-weight="bold" font-family="'Helvetica Neue', Helvetica, Arial-Unicode, Arial, Sans-serif">Created by Misha Petrishchev</text><text x="0" y="608" fill="#000000" font-size="5px" font-weight="bold" font-family="'Helvetica Neue', Helvetica, Arial-Unicode, Arial, Sans-serif">from the Noun Project</text></svg>