<svg xmlns="http://www.w3.org/2000/svg" xmlns:xlink="http://www.w3.org/1999/xlink" version="1.1" x="0px" y="0px" viewBox="0 0 100 125" enable-background="new 0 0 100 100" xml:space="preserve"><path d="M86.501,32.229c-0.132,0.105-0.512,0.052-1.148-0.382c-0.021-0.019-2.263-1.858-3.374-4.922  c-0.155-1.338-0.033-2.291,0.368-2.885c0.393-0.583,1.104-0.866,2.163-0.866c0.006,0,0.109,0.004,0.274,0.019  C86.222,27.122,87.275,31.625,86.501,32.229z"/><path d="M84.52,22.334c-1.371,0-2.308,0.405-2.869,1.237c-1.25,1.852-0.498,5.823,2.515,13.277  c3.87,9.582-0.849,17.898-5.411,25.939l-0.868,1.535c-4.554,8.094-10.516,8.92-10.576,8.927l-0.314,0.041l-0.049,0.31  c-1.26,7.759-4.109,8.906-4.132,8.914l-0.325,0.109l0.635,5.342c0,0,2.805,0.756,3.651,1.337c-1.334-0.048-3.126,0.388-3.126,0.388  c0.908,0.871,1.544,2.425,1.759,3.159c-2.218-1.201-4.593-2.606-4.721-2.659l-0.111-0.044c0,0-3.749,0.351-3.891,0.232l3.766-2.048  l-0.522-5.981l-0.035-0.133c-0.815-1.84-0.522-4.104-0.466-4.488c0.544-1.127,1.063-2.436,1.505-3.943l-0.807-0.235  c-1.899,6.491-5.38,9.21-5.416,9.238l-0.145,0.111l-0.68,6.874l0.302,0.114c1.9,0.718,3.09,2.136,3.777,3.276  c-1.781-1.159-4.092-1.272-4.092-1.272s1.229,3.115,1.326,4.065c-2.286-1.444-3.689-4.068-3.689-4.068s-4.129,0.93-5.357,0.858  c2.083-1.519,4.697-2.278,4.727-2.289l0.259-0.073l1.099-7.389l-0.005-0.049c-0.478-5.664,0.399-9.281,0.41-9.317l0.19-0.769  l-0.743,0.272c-1.693,0.621-2.885,2.805-3.399,3.924c-0.923-1.444-0.938-3.714-0.938-3.739l-0.001-0.611l-0.57,0.218  c-1.48,0.57-2.42,2.854-2.827,4.073c-1.047-1.605-0.809-4.028-0.807-4.056l0.066-0.635l-0.608,0.189  c-1.623,0.502-3.031,2.371-3.666,3.332c-1.291-2.317-0.909-6.068-0.904-6.108l0.071-0.666l-0.63,0.225  c-2.13,0.762-3.608,2.863-4.34,4.142c-0.847-4.002-0.772-9.561-0.771-9.621l0.01-0.651l-0.598,0.26  c-4.116,1.785-7.614,5.473-9.259,7.407c1.195-6.442,4.353-11.435,4.387-11.488l1.984-3.101l-2.631,2.575  c-4.982,4.871-12.631,3.756-15.352,3.161c1.354-0.813,3.858-2.526,5.421-4.87c2.677-4.015,7.486-5.381,7.535-5.395l0.526-0.146  l-0.274-0.472c-1.143-1.958-7.599-1.856-11.501-1.604c2.317-1.042,3.969-2.165,5.691-3.334c1.659-1.127,3.374-2.292,5.841-3.505  c6.107-2.999,12.007-0.664,19.551,4.076c3.307,2.078,7.438,2.263,11.63,0.521c5.859-2.433,10.573-8.101,12.009-14.44  c2.439-10.771,6.29-13.37,6.328-13.394l1.732-1.095l-2.024,0.325c-2.753,0.441-5.543-2.039-6.333-4.012  c-0.096-0.24-0.379-1.046,0.021-1.32c0.576-0.399,1.519,0.353,2.349,1.013c0.803,0.636,1.495,1.183,2.14,1.003  c0.321-0.089,0.561-0.341,0.709-0.747c0.373-1.012-0.311-2.699-1.035-4.485C71.225,9.1,70.483,7.272,70.74,7.013  c0,0,0.098-0.062,0.466,0.04c1.428,0.394,2.36,1.722,3.109,2.788c0.587,0.834,1.011,1.438,1.591,1.438c0.004,0,0.008,0,0.011,0  c0.303-0.003,0.569-0.176,0.793-0.512c0.489-0.733,0.506-2.099,0.523-3.545c0.014-0.974,0.034-2.605,0.369-2.786  c0.032-0.02,0.167-0.012,0.423,0.15c0.977,0.622,1.597,2.064,2.093,3.222c0.488,1.139,0.841,1.96,1.492,2.042  c0.341,0.042,0.665-0.137,0.966-0.531c0.507-0.663,0.834-1.759,1.149-2.82c0.249-0.839,0.666-2.243,0.997-2.29  c-0.001,0.001,0.273-0.016,0.842,0.878c2.061,3.236-0.114,8.416-0.137,8.468l-0.212,0.496l0.533,0.085  c1.368,0.216,2.438,0.175,3.085,0.104c-1.02,3.154-3.521,5.449-3.546,5.473l-0.471,0.426l0.576,0.266  c1.902,0.878,2.911,2.203,3.435,3.217C86.937,22.401,84.646,22.337,84.52,22.334z"/><text x="0" y="115" fill="#000000" font-size="5px" font-weight="bold" font-family="'Helvetica Neue', Helvetica, Arial-Unicode, Arial, Sans-serif">Created by Bakunetsu Kaito</text><text x="0" y="120" fill="#000000" font-size="5px" font-weight="bold" font-family="'Helvetica Neue', Helvetica, Arial-Unicode, Arial, Sans-serif">from the Noun Project</text></svg>