<svg xmlns="http://www.w3.org/2000/svg" xmlns:xlink="http://www.w3.org/1999/xlink" version="1.1" x="0px" y="0px" viewBox="0 0 100 125" enable-background="new 0 0 100 100" xml:space="preserve"><g><path fill="#000000" d="M70.476,48.361c-0.477-2.344-1.482-3.782-3.051-4.353c1.737-3.721,1.762-7.953-0.003-11.775   c-1.396-3.024-3.726-5.344-6.294-6.393c1.482-2.966,1.438-6.185-0.167-9.206c-2.308-4.345-7.512-7.622-12.104-7.622   c-0.358,0-0.697,0.164-0.92,0.444c-0.223,0.281-0.305,0.647-0.224,0.997c0.736,3.161,0.149,4.719-2.007,6.091l-4.62-13.489   c-0.45-1.311-1.895-2.192-3.367-1.995c-1.019,0.137-2.511,0.653-3.456,1.211c-1.213,0.715-1.81,2.302-1.352,3.626l5.308,14.732   c-1.019,0.822-1.917,1.81-2.64,3.104c-1.499,2.685-1.647,5.757-0.458,8.434c-1.478,0.9-2.645,2.142-3.358,3.671   c-1.188,2.547-1.032,5.549,0.385,8.375c-1.321,0.667-2.194,2.029-2.625,4.148c-0.308,1.514-0.094,2.734,0.635,3.625   c0.6,0.733,1.516,1.187,2.724,1.362c0.161,5.657,2.845,10.473,7.293,13.068l5.028,28.746c0.007,0.041,0.016,0.081,0.027,0.121   c0.692,2.461,2.342,3.814,4.633,3.814c0.027,0,0.054,0,0.081,0c2.307,0,3.958-1.353,4.651-3.814c0.011-0.04,0.021-0.08,0.027-0.121   l5.027-28.746c4.445-2.594,7.128-7.404,7.292-13.056c1.29-0.157,2.272-0.609,2.898-1.375C70.57,51.096,70.784,49.875,70.476,48.361   z M37.236,11.412c1.614-1.259,2.587-2.5,3.177-3.532l1.3,3.795c-0.322,0.884-1.106,2.344-2.978,3.896L37.236,11.412z M35.439,4.132   c0.638-0.376,1.84-0.792,2.642-0.9c0.362-0.052,0.814,0.219,0.924,0.538l0.726,2.12c-0.265,0.839-1.003,2.407-3.013,4.088   l-1.733-4.812C34.875,4.845,35.07,4.35,35.439,4.132z M39.252,17.007c1.551-1.201,2.521-2.39,3.124-3.395l1.361,3.973   c-0.172,0.079-0.343,0.158-0.527,0.239c-1.096,0.481-2.139,0.97-3.113,1.529L39.252,17.007z M37.631,24.879   c1.4-2.506,3.587-3.614,6.524-4.904c4.244-1.866,6.665-3.928,6.126-8.485c3.364,0.585,6.943,3.12,8.604,6.247   c0.999,1.881,1.727,4.804-0.446,8.063c-2.555,3.073-9.954,3.875-15.363,4.459c-1.436,0.155-2.792,0.302-3.945,0.475   c-0.657,0.099-1.276,0.262-1.875,0.458C36.383,29.194,36.505,26.896,37.631,24.879z M33.894,36.832   c0.948-2.033,2.933-3.374,5.589-3.773c1.104-0.167,2.437-0.311,3.847-0.463c5.833-0.63,13.009-1.411,16.419-4.759   c2.187,0.69,4.313,2.726,5.54,5.382c1.583,3.429,1.459,7.253-0.332,10.506H34.552C33.188,41.378,32.939,38.878,33.894,36.832z    M52.222,94.677c-0.515,1.756-1.546,1.987-2.317,1.971c-0.852,0.003-1.786-0.215-2.299-1.971l-4.954-28.319h14.522L52.222,94.677z    M57.973,64.548c-0.006,0.003-0.01,0.008-0.016,0.011H41.869c-0.005-0.003-0.01-0.008-0.016-0.011   c-4.034-2.128-6.46-6.422-6.53-11.513h29.18C64.434,58.126,62.007,62.42,57.973,64.548z M68.138,50.595   c-0.343,0.419-1.114,0.641-2.23,0.641c-0.028,0-0.051,0.014-0.078,0.016c-0.029-0.002-0.054-0.017-0.083-0.017H34.08   c0,0-0.001,0-0.001,0c-1.108-0.002-1.875-0.223-2.217-0.641c-0.291-0.356-0.352-0.96-0.182-1.795   c0.539-2.653,1.599-2.875,2.639-2.875h31.363c1.039,0,2.099,0.222,2.639,2.874C68.49,49.635,68.429,50.239,68.138,50.595z"/></g><text x="0" y="115" fill="#000000" font-size="5px" font-weight="bold" font-family="'Helvetica Neue', Helvetica, Arial-Unicode, Arial, Sans-serif">Created by Imogen Oh</text><text x="0" y="120" fill="#000000" font-size="5px" font-weight="bold" font-family="'Helvetica Neue', Helvetica, Arial-Unicode, Arial, Sans-serif">from the Noun Project</text></svg>