<svg xmlns="http://www.w3.org/2000/svg" xmlns:xlink="http://www.w3.org/1999/xlink" version="1.1" x="0px" y="0px" viewBox="0 0 85 62.5" enable-background="new 0 0 85 50" xml:space="preserve"><path d="M84.668,12.49c-0.573-0.272-1.188-0.392-1.799-0.391c-1.707,0.032-3.464,0.891-4.759,2.237  c-1.755-0.431-4.464-0.639-6.078,0.539C68.706,7.104,59.925,0,44.681,0C36.73,0,29.473,3.023,24.432,6.796  c3.227,1.383,4.425,4.109,4.757,5.904c0.111,0.596-0.798,1.063-1.064,0.464c-1.155-2.599-4.537-4.526-7.248-4.521  C18.23,1.979,12.96,2.856,12.96,2.856l2.39,7.035c0,0-5.609,1.219-8.31,8.296c-1.662,2.083-6.037,0.389-6.037,0.389  s-2.13,3.631-0.184,6.492c1.023,1.505,5.116,1.318,6.42,0.188c-0.465,2.633-3.257,3.668-3.257,3.668s4.072,7.896,16.839,8.377  c0,0,2.424,1.365,2.631,6.932V50h6.648c0,0,2.804-5.032,4.259-8.919c0,0,9.944,5.128,19.55,0.608  c3.099-1.814,7.279-6.116,8.244-10.244c0.141-0.569,0.714-0.918,1.284-0.778c0.57,0.139,0.92,0.713,0.781,1.286  c-1.27,5.015-5.747,9.365-9.308,11.482V50h8.22c0,0,1.116-5.835,3.345-10.2c2.229-4.367,7.245-8.313,7.107-17.892  c-0.02-1.327-0.339-3.591-0.925-5.519c1.235-0.889,3.072-1.129,4.432-0.723c-0.593,0.98-0.957,2.102-0.977,3.291  c0,0.427,0.048,0.858,0.152,1.292c0.539,2.305,2.04,3.618,3.628,3.619h0.005c0.805,0,1.586-0.357,2.128-0.992  c0.551-0.636,0.861-1.526,0.859-2.571c0.002-0.33-0.025-0.681-0.092-1.05c-0.419-1.958-1.62-3.396-3.14-4.263  c0.986-0.857,2.2-1.37,3.215-1.363c0.415,0.001,0.794,0.079,1.143,0.243c0.382,0.183,0.698,0.02,0.879-0.361  S85.05,12.673,84.668,12.49z M13.474,21.023c-0.925,0-1.675-1.432-1.675-3.198c0-1.768,0.75-3.198,1.675-3.198  c0.926,0,1.675,1.431,1.675,3.198C15.148,19.591,14.4,21.023,13.474,21.023z M55.326,9.575c0,0-3.393-2.661-9.727-2.661  c-6.336,0-9.423,2.661-9.423,2.661l-1.364-2.756c1.431-0.889,4.903-2.563,10.787-2.563c6.006,0,9.67,1.746,11.129,2.619  L55.326,9.575z M81.29,19.548c0.041,0.254,0.066,0.515,0.066,0.757c-0.037,1.499-0.767,2.017-1.462,2.034  c-0.68,0-1.671-0.575-2.137-2.449c-0.076-0.313-0.11-0.625-0.111-0.933c-0.003-0.972,0.36-1.947,0.952-2.793  C79.919,16.812,80.958,17.961,81.29,19.548z"/><text x="0" y="65" fill="#000000" font-size="5px" font-weight="bold" font-family="'Helvetica Neue', Helvetica, Arial-Unicode, Arial, Sans-serif">Created by sahua d</text><text x="0" y="70" fill="#000000" font-size="5px" font-weight="bold" font-family="'Helvetica Neue', Helvetica, Arial-Unicode, Arial, Sans-serif">from the Noun Project</text></svg>